%TF.GenerationSoftware,KiCad,Pcbnew,8.0.8-2.fc41*%
%TF.CreationDate,2025-02-20T10:07:06+00:00*%
%TF.ProjectId,PowerPoleFused,506f7765-7250-46f6-9c65-46757365642e,rev?*%
%TF.SameCoordinates,Original*%
%TF.FileFunction,Copper,L2,Bot*%
%TF.FilePolarity,Positive*%
%FSLAX46Y46*%
G04 Gerber Fmt 4.6, Leading zero omitted, Abs format (unit mm)*
G04 Created by KiCad (PCBNEW 8.0.8-2.fc41) date 2025-02-20 10:07:06*
%MOMM*%
%LPD*%
G01*
G04 APERTURE LIST*
%TA.AperFunction,ComponentPad*%
%ADD10R,1.800000X1.800000*%
%TD*%
%TA.AperFunction,ComponentPad*%
%ADD11C,1.800000*%
%TD*%
%TA.AperFunction,ComponentPad*%
%ADD12O,6.000000X5.500000*%
%TD*%
%TA.AperFunction,ComponentPad*%
%ADD13O,1.600000X1.600000*%
%TD*%
%TA.AperFunction,ComponentPad*%
%ADD14C,1.600000*%
%TD*%
%TA.AperFunction,ComponentPad*%
%ADD15C,2.400000*%
%TD*%
%TA.AperFunction,Conductor*%
%ADD16C,0.400000*%
%TD*%
%TA.AperFunction,Conductor*%
%ADD17C,6.000000*%
%TD*%
G04 APERTURE END LIST*
D10*
%TO.P,D3,1,K*%
%TO.N,0*%
X85085000Y-50800000D03*
D11*
%TO.P,D3,2,A*%
%TO.N,Net-(D3-A)*%
X87625000Y-50800000D03*
%TD*%
D12*
%TO.P,J3,1,+ve*%
%TO.N,Net-(J3-+ve)*%
X84836000Y-87604000D03*
%TO.P,J3,2,-ve*%
%TO.N,0*%
X84836000Y-95504000D03*
%TD*%
D10*
%TO.P,D4,1,K*%
%TO.N,0*%
X99309000Y-50800000D03*
D11*
%TO.P,D4,2,A*%
%TO.N,Net-(D4-A)*%
X101849000Y-50800000D03*
%TD*%
D10*
%TO.P,D1,1,K*%
%TO.N,0*%
X54356000Y-50800000D03*
D11*
%TO.P,D1,2,A*%
%TO.N,Net-(D1-A)*%
X56896000Y-50800000D03*
%TD*%
D10*
%TO.P,D5,1,K*%
%TO.N,0*%
X115316000Y-50800000D03*
D11*
%TO.P,D5,2,A*%
%TO.N,Net-(D5-A)*%
X117856000Y-50800000D03*
%TD*%
D12*
%TO.P,J2,1,+ve*%
%TO.N,Net-(J2-+ve)*%
X69596000Y-87604000D03*
%TO.P,J2,2,-ve*%
%TO.N,0*%
X69596000Y-95504000D03*
%TD*%
D13*
%TO.P,R1,2*%
%TO.N,Net-(J1-+ve)*%
X63500000Y-54356000D03*
D14*
%TO.P,R1,1*%
%TO.N,Net-(D1-A)*%
X63500000Y-46736000D03*
%TD*%
D10*
%TO.P,D6,1,K*%
%TO.N,0*%
X130048000Y-50800000D03*
D11*
%TO.P,D6,2,A*%
%TO.N,Net-(D6-A)*%
X132588000Y-50800000D03*
%TD*%
D13*
%TO.P,R5,2*%
%TO.N,Net-(D5-A)*%
X124460000Y-46736000D03*
D14*
%TO.P,R5,1*%
%TO.N,Net-(J5-+ve)*%
X124460000Y-54356000D03*
%TD*%
D13*
%TO.P,R2,2*%
%TO.N,Net-(D2-A)*%
X78232000Y-46736000D03*
D14*
%TO.P,R2,1*%
%TO.N,Net-(J2-+ve)*%
X78232000Y-54356000D03*
%TD*%
D15*
%TO.P,F5,4,4*%
%TO.N,+12V*%
X115316000Y-61137800D03*
%TO.P,F5,3,3*%
X118716000Y-61137800D03*
%TO.P,F5,2,2*%
%TO.N,Net-(J5-+ve)*%
X118716000Y-74607800D03*
%TO.P,F5,1,1*%
X115316000Y-74607800D03*
%TD*%
D13*
%TO.P,R3,2*%
%TO.N,Net-(D3-A)*%
X93472000Y-46736000D03*
D14*
%TO.P,R3,1*%
%TO.N,Net-(J3-+ve)*%
X93472000Y-54356000D03*
%TD*%
D12*
%TO.P,J6,1,+ve*%
%TO.N,Net-(J6-+ve)*%
X130556000Y-87604000D03*
%TO.P,J6,2,-ve*%
%TO.N,0*%
X130556000Y-95504000D03*
%TD*%
%TO.P,J4,1,+ve*%
%TO.N,Net-(J4-+ve)*%
X100076000Y-87604000D03*
%TO.P,J4,2,-ve*%
%TO.N,0*%
X100076000Y-95504000D03*
%TD*%
D15*
%TO.P,F2,4,4*%
%TO.N,+12V*%
X69437500Y-61137800D03*
%TO.P,F2,3,3*%
X72837500Y-61137800D03*
%TO.P,F2,2,2*%
%TO.N,Net-(J2-+ve)*%
X72837500Y-74607800D03*
%TO.P,F2,1,1*%
X69437500Y-74607800D03*
%TD*%
D13*
%TO.P,R4,2*%
%TO.N,Net-(D4-A)*%
X108204000Y-46736000D03*
D14*
%TO.P,R4,1*%
%TO.N,Net-(J4-+ve)*%
X108204000Y-54356000D03*
%TD*%
D10*
%TO.P,D2,1,K*%
%TO.N,0*%
X69596000Y-50800000D03*
D11*
%TO.P,D2,2,A*%
%TO.N,Net-(D2-A)*%
X72136000Y-50800000D03*
%TD*%
D13*
%TO.P,R6,2*%
%TO.N,Net-(D6-A)*%
X136652000Y-46736000D03*
D14*
%TO.P,R6,1*%
%TO.N,Net-(J6-+ve)*%
X136652000Y-54356000D03*
%TD*%
D12*
%TO.P,J1,1,+ve*%
%TO.N,Net-(J1-+ve)*%
X54356000Y-87604000D03*
%TO.P,J1,2,-ve*%
%TO.N,0*%
X54356000Y-95504000D03*
%TD*%
%TO.P,J5,1,+ve*%
%TO.N,Net-(J5-+ve)*%
X115316000Y-87604000D03*
%TO.P,J5,2,-ve*%
%TO.N,0*%
X115316000Y-95504000D03*
%TD*%
D15*
%TO.P,F3,4,4*%
%TO.N,+12V*%
X84677500Y-61137800D03*
%TO.P,F3,3,3*%
X88077500Y-61137800D03*
%TO.P,F3,2,2*%
%TO.N,Net-(J3-+ve)*%
X88077500Y-74607800D03*
%TO.P,F3,1,1*%
X84677500Y-74607800D03*
%TD*%
%TO.P,F4,4,4*%
%TO.N,+12V*%
X100054200Y-61137800D03*
%TO.P,F4,3,3*%
X103454200Y-61137800D03*
%TO.P,F4,2,2*%
%TO.N,Net-(J4-+ve)*%
X103454200Y-74607800D03*
%TO.P,F4,1,1*%
X100054200Y-74607800D03*
%TD*%
%TO.P,F6,4,4*%
%TO.N,+12V*%
X130556000Y-61137800D03*
%TO.P,F6,3,3*%
X133956000Y-61137800D03*
%TO.P,F6,2,2*%
%TO.N,Net-(J6-+ve)*%
X133956000Y-74607800D03*
%TO.P,F6,1,1*%
X130556000Y-74607800D03*
%TD*%
%TO.P,F1,4,4*%
%TO.N,+12V*%
X54197500Y-61137800D03*
%TO.P,F1,3,3*%
X57597500Y-61137800D03*
%TO.P,F1,2,2*%
%TO.N,Net-(J1-+ve)*%
X57597500Y-74607800D03*
%TO.P,F1,1,1*%
X54197500Y-74607800D03*
%TD*%
D16*
%TO.N,Net-(D1-A)*%
X56896000Y-50800000D02*
X59436000Y-50800000D01*
X59436000Y-50800000D02*
X63500000Y-46736000D01*
%TO.N,Net-(J1-+ve)*%
X63500000Y-68904500D02*
X63500000Y-54356000D01*
X63500000Y-68904500D02*
X59636350Y-72768150D01*
D17*
X54197500Y-74807000D02*
X54197500Y-77368400D01*
X54197500Y-87445500D02*
X54356000Y-87604000D01*
D16*
X58211100Y-74193400D02*
X56159400Y-74193400D01*
D17*
X54197500Y-77368400D02*
X54197500Y-87445500D01*
D16*
X59636350Y-72768150D02*
X57597500Y-74807000D01*
D17*
X57597500Y-74807000D02*
X57597500Y-84362500D01*
D16*
X59636350Y-72768150D02*
X58211100Y-74193400D01*
D17*
X57597500Y-84362500D02*
X54356000Y-87604000D01*
D16*
%TO.N,Net-(D2-A)*%
X72136000Y-50800000D02*
X74930000Y-50800000D01*
X74930000Y-50800000D02*
X78232000Y-47498000D01*
%TO.N,Net-(D3-A)*%
X87625000Y-50800000D02*
X89916000Y-50800000D01*
X89916000Y-50800000D02*
X93472000Y-47244000D01*
%TO.N,Net-(D4-A)*%
X105913000Y-46736000D02*
X108204000Y-46736000D01*
X101849000Y-50800000D02*
X105913000Y-46736000D01*
%TO.N,Net-(D5-A)*%
X120396000Y-50800000D02*
X124460000Y-46736000D01*
X117856000Y-50800000D02*
X120396000Y-50800000D01*
%TO.N,Net-(D6-A)*%
X132588000Y-50292000D02*
X136144000Y-46736000D01*
X136144000Y-46736000D02*
X136652000Y-46736000D01*
D17*
%TO.N,Net-(J2-+ve)*%
X69437500Y-74807000D02*
X69437500Y-87445500D01*
X69437500Y-87445500D02*
X69596000Y-87604000D01*
X72837500Y-74807000D02*
X72837500Y-84362500D01*
D16*
X72837500Y-74807000D02*
X78232000Y-69412500D01*
X78232000Y-69412500D02*
X78232000Y-55118000D01*
D17*
X72837500Y-84362500D02*
X69596000Y-87604000D01*
%TO.N,Net-(J3-+ve)*%
X88077500Y-74807000D02*
X88077500Y-84362500D01*
D16*
X93472000Y-69412500D02*
X93472000Y-54864000D01*
D17*
X84677500Y-78207000D02*
X84677500Y-78562200D01*
X84677500Y-78562200D02*
X84677500Y-87445500D01*
X88077500Y-84362500D02*
X84836000Y-87604000D01*
X84677500Y-87445500D02*
X84836000Y-87604000D01*
X84677500Y-74807000D02*
X84677500Y-78562200D01*
D16*
X88077500Y-74807000D02*
X93472000Y-69412500D01*
%TO.N,Net-(J4-+ve)*%
X103454200Y-74760200D02*
X108204000Y-70010400D01*
D17*
X100076000Y-87604000D02*
X100076000Y-74782000D01*
D16*
X108204000Y-70010400D02*
X108204000Y-54356000D01*
D17*
X100076000Y-74782000D02*
X100054200Y-74760200D01*
X103454200Y-84225800D02*
X100076000Y-87604000D01*
X103454200Y-74760200D02*
X103454200Y-84225800D01*
%TO.N,Net-(J5-+ve)*%
X118716000Y-74938000D02*
X118716000Y-84204000D01*
X115316000Y-74938000D02*
X115316000Y-87604000D01*
X118716000Y-84204000D02*
X115316000Y-87604000D01*
D16*
X124460000Y-69194000D02*
X118716000Y-74938000D01*
X124460000Y-54356000D02*
X124460000Y-69194000D01*
D17*
%TO.N,Net-(J6-+ve)*%
X130556000Y-74607800D02*
X130556000Y-87604000D01*
X133956000Y-84204000D02*
X130556000Y-87604000D01*
D16*
X133956000Y-74607800D02*
X136652000Y-71911800D01*
D17*
X133956000Y-74607800D02*
X133956000Y-84204000D01*
D16*
X136652000Y-71911800D02*
X136652000Y-54356000D01*
%TD*%
%TA.AperFunction,Conductor*%
%TO.N,0*%
G36*
X139903539Y-92983685D02*
G01*
X139949294Y-93036489D01*
X139960500Y-93088000D01*
X139960500Y-110620000D01*
X139940815Y-110687039D01*
X139888011Y-110732794D01*
X139836500Y-110744000D01*
X48644500Y-110744000D01*
X48577461Y-110724315D01*
X48531706Y-110671511D01*
X48520500Y-110620000D01*
X48520500Y-105529186D01*
X53740000Y-105529186D01*
X53740000Y-105798813D01*
X53770186Y-106066719D01*
X53770188Y-106066731D01*
X53830184Y-106329594D01*
X53830187Y-106329602D01*
X53919234Y-106584082D01*
X54036214Y-106826994D01*
X54036216Y-106826997D01*
X54179662Y-107055289D01*
X54347766Y-107266085D01*
X54538415Y-107456734D01*
X54749211Y-107624838D01*
X54977503Y-107768284D01*
X55220421Y-107885267D01*
X55411549Y-107952145D01*
X55474897Y-107974312D01*
X55474905Y-107974315D01*
X55474908Y-107974315D01*
X55474909Y-107974316D01*
X55737768Y-108034312D01*
X56005687Y-108064499D01*
X56005688Y-108064500D01*
X56005691Y-108064500D01*
X56275312Y-108064500D01*
X56275312Y-108064499D01*
X56543232Y-108034312D01*
X56806091Y-107974316D01*
X57060579Y-107885267D01*
X57303497Y-107768284D01*
X57531789Y-107624838D01*
X57742585Y-107456734D01*
X57933234Y-107266085D01*
X58101338Y-107055289D01*
X58244784Y-106826997D01*
X58361767Y-106584079D01*
X58450816Y-106329591D01*
X58510812Y-106066732D01*
X58541000Y-105798809D01*
X58541000Y-105529191D01*
X58540999Y-105529186D01*
X91840000Y-105529186D01*
X91840000Y-105798813D01*
X91870186Y-106066719D01*
X91870188Y-106066731D01*
X91930184Y-106329594D01*
X91930187Y-106329602D01*
X92019234Y-106584082D01*
X92136214Y-106826994D01*
X92136216Y-106826997D01*
X92279662Y-107055289D01*
X92447766Y-107266085D01*
X92638415Y-107456734D01*
X92849211Y-107624838D01*
X93077503Y-107768284D01*
X93320421Y-107885267D01*
X93511549Y-107952145D01*
X93574897Y-107974312D01*
X93574905Y-107974315D01*
X93574908Y-107974315D01*
X93574909Y-107974316D01*
X93837768Y-108034312D01*
X94105687Y-108064499D01*
X94105688Y-108064500D01*
X94105691Y-108064500D01*
X94375312Y-108064500D01*
X94375312Y-108064499D01*
X94643232Y-108034312D01*
X94906091Y-107974316D01*
X95160579Y-107885267D01*
X95403497Y-107768284D01*
X95631789Y-107624838D01*
X95842585Y-107456734D01*
X96033234Y-107266085D01*
X96201338Y-107055289D01*
X96344784Y-106826997D01*
X96461767Y-106584079D01*
X96550816Y-106329591D01*
X96610812Y-106066732D01*
X96641000Y-105798809D01*
X96641000Y-105529191D01*
X96640999Y-105529186D01*
X129940000Y-105529186D01*
X129940000Y-105798813D01*
X129970186Y-106066719D01*
X129970188Y-106066731D01*
X130030184Y-106329594D01*
X130030187Y-106329602D01*
X130119234Y-106584082D01*
X130236214Y-106826994D01*
X130236216Y-106826997D01*
X130379662Y-107055289D01*
X130547766Y-107266085D01*
X130738415Y-107456734D01*
X130949211Y-107624838D01*
X131177503Y-107768284D01*
X131420421Y-107885267D01*
X131611549Y-107952145D01*
X131674897Y-107974312D01*
X131674905Y-107974315D01*
X131674908Y-107974315D01*
X131674909Y-107974316D01*
X131937768Y-108034312D01*
X132205687Y-108064499D01*
X132205688Y-108064500D01*
X132205691Y-108064500D01*
X132475312Y-108064500D01*
X132475312Y-108064499D01*
X132743232Y-108034312D01*
X133006091Y-107974316D01*
X133260579Y-107885267D01*
X133503497Y-107768284D01*
X133731789Y-107624838D01*
X133942585Y-107456734D01*
X134133234Y-107266085D01*
X134301338Y-107055289D01*
X134444784Y-106826997D01*
X134561767Y-106584079D01*
X134650816Y-106329591D01*
X134710812Y-106066732D01*
X134741000Y-105798809D01*
X134741000Y-105529191D01*
X134710812Y-105261268D01*
X134650816Y-104998409D01*
X134561767Y-104743921D01*
X134444784Y-104501003D01*
X134301338Y-104272711D01*
X134133234Y-104061915D01*
X133942585Y-103871266D01*
X133731789Y-103703162D01*
X133503497Y-103559716D01*
X133503494Y-103559714D01*
X133260582Y-103442734D01*
X133006102Y-103353687D01*
X133006094Y-103353684D01*
X132808946Y-103308687D01*
X132743232Y-103293688D01*
X132743228Y-103293687D01*
X132743219Y-103293686D01*
X132475313Y-103263500D01*
X132475309Y-103263500D01*
X132205691Y-103263500D01*
X132205686Y-103263500D01*
X131937780Y-103293686D01*
X131937768Y-103293688D01*
X131674905Y-103353684D01*
X131674897Y-103353687D01*
X131420417Y-103442734D01*
X131177505Y-103559714D01*
X130949212Y-103703161D01*
X130738415Y-103871265D01*
X130547765Y-104061915D01*
X130379661Y-104272712D01*
X130236214Y-104501005D01*
X130119234Y-104743917D01*
X130030187Y-104998397D01*
X130030184Y-104998405D01*
X129970188Y-105261268D01*
X129970186Y-105261280D01*
X129940000Y-105529186D01*
X96640999Y-105529186D01*
X96610812Y-105261268D01*
X96550816Y-104998409D01*
X96461767Y-104743921D01*
X96344784Y-104501003D01*
X96201338Y-104272711D01*
X96033234Y-104061915D01*
X95842585Y-103871266D01*
X95631789Y-103703162D01*
X95403497Y-103559716D01*
X95403494Y-103559714D01*
X95160582Y-103442734D01*
X94906102Y-103353687D01*
X94906094Y-103353684D01*
X94708946Y-103308687D01*
X94643232Y-103293688D01*
X94643228Y-103293687D01*
X94643219Y-103293686D01*
X94375313Y-103263500D01*
X94375309Y-103263500D01*
X94105691Y-103263500D01*
X94105686Y-103263500D01*
X93837780Y-103293686D01*
X93837768Y-103293688D01*
X93574905Y-103353684D01*
X93574897Y-103353687D01*
X93320417Y-103442734D01*
X93077505Y-103559714D01*
X92849212Y-103703161D01*
X92638415Y-103871265D01*
X92447765Y-104061915D01*
X92279661Y-104272712D01*
X92136214Y-104501005D01*
X92019234Y-104743917D01*
X91930187Y-104998397D01*
X91930184Y-104998405D01*
X91870188Y-105261268D01*
X91870186Y-105261280D01*
X91840000Y-105529186D01*
X58540999Y-105529186D01*
X58510812Y-105261268D01*
X58450816Y-104998409D01*
X58361767Y-104743921D01*
X58244784Y-104501003D01*
X58101338Y-104272711D01*
X57933234Y-104061915D01*
X57742585Y-103871266D01*
X57531789Y-103703162D01*
X57303497Y-103559716D01*
X57303494Y-103559714D01*
X57060582Y-103442734D01*
X56806102Y-103353687D01*
X56806094Y-103353684D01*
X56608946Y-103308687D01*
X56543232Y-103293688D01*
X56543228Y-103293687D01*
X56543219Y-103293686D01*
X56275313Y-103263500D01*
X56275309Y-103263500D01*
X56005691Y-103263500D01*
X56005686Y-103263500D01*
X55737780Y-103293686D01*
X55737768Y-103293688D01*
X55474905Y-103353684D01*
X55474897Y-103353687D01*
X55220417Y-103442734D01*
X54977505Y-103559714D01*
X54749212Y-103703161D01*
X54538415Y-103871265D01*
X54347765Y-104061915D01*
X54179661Y-104272712D01*
X54036214Y-104501005D01*
X53919234Y-104743917D01*
X53830187Y-104998397D01*
X53830184Y-104998405D01*
X53770188Y-105261268D01*
X53770186Y-105261280D01*
X53740000Y-105529186D01*
X48520500Y-105529186D01*
X48520500Y-93088000D01*
X48540185Y-93020961D01*
X48592989Y-92975206D01*
X48644500Y-92964000D01*
X139836500Y-92964000D01*
X139903539Y-92983685D01*
G37*
%TD.AperFunction*%
%TD*%
%TA.AperFunction,Conductor*%
%TO.N,+12V*%
G36*
X61966716Y-45448110D02*
G01*
X62033741Y-45467831D01*
X62079466Y-45520661D01*
X62089371Y-45589825D01*
X62063590Y-45649421D01*
X62008187Y-45718894D01*
X61873258Y-45952599D01*
X61873256Y-45952603D01*
X61774666Y-46203804D01*
X61774664Y-46203811D01*
X61714616Y-46466898D01*
X61694451Y-46735995D01*
X61694451Y-46736003D01*
X61697714Y-46779545D01*
X61683095Y-46847868D01*
X61661742Y-46876493D01*
X58975055Y-49563181D01*
X58913732Y-49596666D01*
X58887374Y-49599500D01*
X58433406Y-49599500D01*
X58366367Y-49579815D01*
X58339640Y-49554932D01*
X58338868Y-49555602D01*
X58335961Y-49552247D01*
X58143752Y-49360038D01*
X58143746Y-49360033D01*
X58143742Y-49360029D01*
X57926113Y-49197113D01*
X57926108Y-49197110D01*
X57926107Y-49197109D01*
X57687518Y-49066830D01*
X57687519Y-49066830D01*
X57637920Y-49048330D01*
X57432801Y-48971825D01*
X57432794Y-48971823D01*
X57432793Y-48971823D01*
X57167167Y-48914040D01*
X57167160Y-48914039D01*
X56896001Y-48894645D01*
X56895999Y-48894645D01*
X56624839Y-48914039D01*
X56624832Y-48914040D01*
X56359206Y-48971823D01*
X56359202Y-48971824D01*
X56359199Y-48971825D01*
X56218107Y-49024449D01*
X56104483Y-49066829D01*
X56005722Y-49120757D01*
X55937449Y-49135608D01*
X55871985Y-49111191D01*
X55867954Y-49108040D01*
X55809407Y-49060302D01*
X55629049Y-48966091D01*
X55629048Y-48966090D01*
X55629045Y-48966089D01*
X55494396Y-48927562D01*
X55433418Y-48910114D01*
X55433415Y-48910113D01*
X55433413Y-48910113D01*
X55367102Y-48904217D01*
X55314037Y-48899500D01*
X55314032Y-48899500D01*
X53397971Y-48899500D01*
X53397965Y-48899500D01*
X53397964Y-48899501D01*
X53386316Y-48900536D01*
X53278584Y-48910113D01*
X53082954Y-48966089D01*
X52992772Y-49013196D01*
X52902593Y-49060302D01*
X52902591Y-49060303D01*
X52902590Y-49060304D01*
X52744890Y-49188890D01*
X52616304Y-49346590D01*
X52616302Y-49346593D01*
X52609284Y-49360029D01*
X52522089Y-49526954D01*
X52466114Y-49722583D01*
X52466113Y-49722586D01*
X52455500Y-49841966D01*
X52455500Y-51758028D01*
X52455501Y-51758034D01*
X52466113Y-51877415D01*
X52522089Y-52073045D01*
X52522090Y-52073048D01*
X52522091Y-52073049D01*
X52616302Y-52253407D01*
X52616304Y-52253409D01*
X52744890Y-52411109D01*
X52810816Y-52464864D01*
X52902593Y-52539698D01*
X53082951Y-52633909D01*
X53278582Y-52689886D01*
X53397963Y-52700500D01*
X55314036Y-52700499D01*
X55433418Y-52689886D01*
X55629049Y-52633909D01*
X55809407Y-52539698D01*
X55867936Y-52491972D01*
X55932330Y-52464864D01*
X56001160Y-52476873D01*
X56005723Y-52479243D01*
X56104481Y-52533169D01*
X56104480Y-52533169D01*
X56104484Y-52533170D01*
X56104487Y-52533172D01*
X56359199Y-52628175D01*
X56624840Y-52685961D01*
X56876605Y-52703967D01*
X56895999Y-52705355D01*
X56896000Y-52705355D01*
X56896001Y-52705355D01*
X56914100Y-52704060D01*
X57167160Y-52685961D01*
X57432801Y-52628175D01*
X57687513Y-52533172D01*
X57687517Y-52533169D01*
X57687519Y-52533169D01*
X57911055Y-52411109D01*
X57926113Y-52402887D01*
X58143742Y-52239971D01*
X58335971Y-52047742D01*
X58335979Y-52047730D01*
X58338868Y-52044398D01*
X58340261Y-52045605D01*
X58390076Y-52008317D01*
X58433406Y-52000500D01*
X59530486Y-52000500D01*
X59717118Y-51970940D01*
X59896832Y-51912547D01*
X60065199Y-51826760D01*
X60218074Y-51715690D01*
X63360944Y-48572818D01*
X63422267Y-48539334D01*
X63448625Y-48536500D01*
X63634928Y-48536500D01*
X63634929Y-48536500D01*
X63634936Y-48536499D01*
X63901767Y-48496281D01*
X63901768Y-48496280D01*
X63901772Y-48496280D01*
X64159641Y-48416738D01*
X64359905Y-48320296D01*
X64402767Y-48299655D01*
X64402767Y-48299654D01*
X64402775Y-48299651D01*
X64625741Y-48147635D01*
X64823561Y-47964085D01*
X64991815Y-47753102D01*
X65126743Y-47519398D01*
X65225334Y-47268195D01*
X65285383Y-47005103D01*
X65305549Y-46736000D01*
X65285383Y-46466897D01*
X65225334Y-46203805D01*
X65126743Y-45952602D01*
X64991815Y-45718898D01*
X64937779Y-45651140D01*
X64911372Y-45586454D01*
X64924127Y-45517759D01*
X64971998Y-45466865D01*
X65034790Y-45449829D01*
X76692134Y-45456362D01*
X76759160Y-45476083D01*
X76804885Y-45528913D01*
X76814790Y-45598077D01*
X76789010Y-45657673D01*
X76740184Y-45718898D01*
X76605258Y-45952599D01*
X76605256Y-45952603D01*
X76506666Y-46203804D01*
X76506664Y-46203811D01*
X76446616Y-46466898D01*
X76426451Y-46735995D01*
X76426451Y-46736004D01*
X76446616Y-47005101D01*
X76506664Y-47268188D01*
X76506667Y-47268200D01*
X76549546Y-47377452D01*
X76555715Y-47447048D01*
X76523277Y-47508932D01*
X76521799Y-47510435D01*
X74469055Y-49563181D01*
X74407732Y-49596666D01*
X74381374Y-49599500D01*
X73673406Y-49599500D01*
X73606367Y-49579815D01*
X73579640Y-49554932D01*
X73578868Y-49555602D01*
X73575961Y-49552247D01*
X73383752Y-49360038D01*
X73383746Y-49360033D01*
X73383742Y-49360029D01*
X73166113Y-49197113D01*
X73166108Y-49197110D01*
X73166107Y-49197109D01*
X72927518Y-49066830D01*
X72927519Y-49066830D01*
X72877920Y-49048330D01*
X72672801Y-48971825D01*
X72672794Y-48971823D01*
X72672793Y-48971823D01*
X72407167Y-48914040D01*
X72407160Y-48914039D01*
X72136001Y-48894645D01*
X72135999Y-48894645D01*
X71864839Y-48914039D01*
X71864832Y-48914040D01*
X71599206Y-48971823D01*
X71599202Y-48971824D01*
X71599199Y-48971825D01*
X71458107Y-49024449D01*
X71344483Y-49066829D01*
X71245722Y-49120757D01*
X71177449Y-49135608D01*
X71111985Y-49111191D01*
X71107954Y-49108040D01*
X71049407Y-49060302D01*
X70869049Y-48966091D01*
X70869048Y-48966090D01*
X70869045Y-48966089D01*
X70734396Y-48927562D01*
X70673418Y-48910114D01*
X70673415Y-48910113D01*
X70673413Y-48910113D01*
X70607102Y-48904217D01*
X70554037Y-48899500D01*
X70554032Y-48899500D01*
X68637971Y-48899500D01*
X68637965Y-48899500D01*
X68637964Y-48899501D01*
X68626316Y-48900536D01*
X68518584Y-48910113D01*
X68322954Y-48966089D01*
X68232772Y-49013196D01*
X68142593Y-49060302D01*
X68142591Y-49060303D01*
X68142590Y-49060304D01*
X67984890Y-49188890D01*
X67856304Y-49346590D01*
X67856302Y-49346593D01*
X67849284Y-49360029D01*
X67762089Y-49526954D01*
X67706114Y-49722583D01*
X67706113Y-49722586D01*
X67695500Y-49841966D01*
X67695500Y-51758028D01*
X67695501Y-51758034D01*
X67706113Y-51877415D01*
X67762089Y-52073045D01*
X67762090Y-52073048D01*
X67762091Y-52073049D01*
X67856302Y-52253407D01*
X67856304Y-52253409D01*
X67984890Y-52411109D01*
X68050816Y-52464864D01*
X68142593Y-52539698D01*
X68322951Y-52633909D01*
X68518582Y-52689886D01*
X68637963Y-52700500D01*
X70554036Y-52700499D01*
X70673418Y-52689886D01*
X70869049Y-52633909D01*
X71049407Y-52539698D01*
X71107936Y-52491972D01*
X71172330Y-52464864D01*
X71241160Y-52476873D01*
X71245723Y-52479243D01*
X71344481Y-52533169D01*
X71344480Y-52533169D01*
X71344484Y-52533170D01*
X71344487Y-52533172D01*
X71599199Y-52628175D01*
X71864840Y-52685961D01*
X72116605Y-52703967D01*
X72135999Y-52705355D01*
X72136000Y-52705355D01*
X72136001Y-52705355D01*
X72154100Y-52704060D01*
X72407160Y-52685961D01*
X72672801Y-52628175D01*
X72927513Y-52533172D01*
X72927517Y-52533169D01*
X72927519Y-52533169D01*
X73151055Y-52411109D01*
X73166113Y-52402887D01*
X73383742Y-52239971D01*
X73575971Y-52047742D01*
X73575979Y-52047730D01*
X73578868Y-52044398D01*
X73580261Y-52045605D01*
X73630076Y-52008317D01*
X73673406Y-52000500D01*
X75024486Y-52000500D01*
X75211118Y-51970940D01*
X75390832Y-51912547D01*
X75559199Y-51826760D01*
X75712074Y-51715690D01*
X79107470Y-48320292D01*
X79130949Y-48302278D01*
X79130940Y-48302265D01*
X79131180Y-48302100D01*
X79133163Y-48300580D01*
X79134748Y-48299663D01*
X79134775Y-48299651D01*
X79357741Y-48147635D01*
X79555561Y-47964085D01*
X79723815Y-47753102D01*
X79858743Y-47519398D01*
X79957334Y-47268195D01*
X80017383Y-47005103D01*
X80037549Y-46736000D01*
X80017383Y-46466897D01*
X79957334Y-46203805D01*
X79858743Y-45952602D01*
X79723815Y-45718898D01*
X79676366Y-45659399D01*
X79649959Y-45594715D01*
X79662714Y-45526019D01*
X79710585Y-45475125D01*
X79773380Y-45458088D01*
X91925324Y-45464898D01*
X91992352Y-45484620D01*
X92038077Y-45537450D01*
X92047982Y-45606614D01*
X92022202Y-45666210D01*
X91980184Y-45718898D01*
X91845258Y-45952599D01*
X91845256Y-45952603D01*
X91746666Y-46203804D01*
X91746664Y-46203811D01*
X91686616Y-46466898D01*
X91666451Y-46735995D01*
X91666451Y-46736004D01*
X91686616Y-47005101D01*
X91686616Y-47005103D01*
X91732042Y-47204129D01*
X91727769Y-47273868D01*
X91698832Y-47319402D01*
X89455055Y-49563181D01*
X89393732Y-49596666D01*
X89367374Y-49599500D01*
X89162406Y-49599500D01*
X89095367Y-49579815D01*
X89068640Y-49554932D01*
X89067868Y-49555602D01*
X89064961Y-49552247D01*
X88872752Y-49360038D01*
X88872746Y-49360033D01*
X88872742Y-49360029D01*
X88655113Y-49197113D01*
X88655108Y-49197110D01*
X88655107Y-49197109D01*
X88416518Y-49066830D01*
X88416519Y-49066830D01*
X88366920Y-49048330D01*
X88161801Y-48971825D01*
X88161794Y-48971823D01*
X88161793Y-48971823D01*
X87896167Y-48914040D01*
X87896160Y-48914039D01*
X87625001Y-48894645D01*
X87624999Y-48894645D01*
X87353839Y-48914039D01*
X87353832Y-48914040D01*
X87088206Y-48971823D01*
X87088202Y-48971824D01*
X87088199Y-48971825D01*
X86947107Y-49024449D01*
X86833483Y-49066829D01*
X86734722Y-49120757D01*
X86666449Y-49135608D01*
X86600985Y-49111191D01*
X86596954Y-49108040D01*
X86538407Y-49060302D01*
X86358049Y-48966091D01*
X86358048Y-48966090D01*
X86358045Y-48966089D01*
X86223396Y-48927562D01*
X86162418Y-48910114D01*
X86162415Y-48910113D01*
X86162413Y-48910113D01*
X86096102Y-48904217D01*
X86043037Y-48899500D01*
X86043032Y-48899500D01*
X84126971Y-48899500D01*
X84126965Y-48899500D01*
X84126964Y-48899501D01*
X84115316Y-48900536D01*
X84007584Y-48910113D01*
X83811954Y-48966089D01*
X83721772Y-49013196D01*
X83631593Y-49060302D01*
X83631591Y-49060303D01*
X83631590Y-49060304D01*
X83473890Y-49188890D01*
X83345304Y-49346590D01*
X83345302Y-49346593D01*
X83338284Y-49360029D01*
X83251089Y-49526954D01*
X83195114Y-49722583D01*
X83195113Y-49722586D01*
X83184500Y-49841966D01*
X83184500Y-51758028D01*
X83184501Y-51758034D01*
X83195113Y-51877415D01*
X83251089Y-52073045D01*
X83251090Y-52073048D01*
X83251091Y-52073049D01*
X83345302Y-52253407D01*
X83345304Y-52253409D01*
X83473890Y-52411109D01*
X83539816Y-52464864D01*
X83631593Y-52539698D01*
X83811951Y-52633909D01*
X84007582Y-52689886D01*
X84126963Y-52700500D01*
X86043036Y-52700499D01*
X86162418Y-52689886D01*
X86358049Y-52633909D01*
X86538407Y-52539698D01*
X86596936Y-52491972D01*
X86661330Y-52464864D01*
X86730160Y-52476873D01*
X86734723Y-52479243D01*
X86833481Y-52533169D01*
X86833480Y-52533169D01*
X86833484Y-52533170D01*
X86833487Y-52533172D01*
X87088199Y-52628175D01*
X87353840Y-52685961D01*
X87605605Y-52703967D01*
X87624999Y-52705355D01*
X87625000Y-52705355D01*
X87625001Y-52705355D01*
X87643100Y-52704060D01*
X87896160Y-52685961D01*
X88161801Y-52628175D01*
X88416513Y-52533172D01*
X88416517Y-52533169D01*
X88416519Y-52533169D01*
X88640055Y-52411109D01*
X88655113Y-52402887D01*
X88872742Y-52239971D01*
X89064971Y-52047742D01*
X89064979Y-52047730D01*
X89067868Y-52044398D01*
X89069261Y-52045605D01*
X89119076Y-52008317D01*
X89162406Y-52000500D01*
X90010486Y-52000500D01*
X90197118Y-51970940D01*
X90376832Y-51912547D01*
X90545199Y-51826760D01*
X90698074Y-51715690D01*
X93915237Y-48498525D01*
X93966366Y-48467717D01*
X94024493Y-48449788D01*
X94131624Y-48416744D01*
X94131631Y-48416740D01*
X94131641Y-48416738D01*
X94331905Y-48320296D01*
X94374767Y-48299655D01*
X94374767Y-48299654D01*
X94374775Y-48299651D01*
X94597741Y-48147635D01*
X94795561Y-47964085D01*
X94963815Y-47753102D01*
X95098743Y-47519398D01*
X95197334Y-47268195D01*
X95257383Y-47005103D01*
X95277549Y-46736000D01*
X95257383Y-46466897D01*
X95197334Y-46203805D01*
X95098743Y-45952602D01*
X94963815Y-45718898D01*
X94923179Y-45667943D01*
X94896772Y-45603257D01*
X94909527Y-45534562D01*
X94957398Y-45483668D01*
X95020189Y-45466632D01*
X105232290Y-45472355D01*
X105299315Y-45492076D01*
X105345040Y-45544906D01*
X105354945Y-45614070D01*
X105325884Y-45677609D01*
X105288519Y-45706835D01*
X105283804Y-45709237D01*
X105192076Y-45775882D01*
X105130927Y-45820310D01*
X105130925Y-45820312D01*
X105130924Y-45820312D01*
X102082776Y-48868458D01*
X102021453Y-48901943D01*
X101986249Y-48904461D01*
X101849001Y-48894645D01*
X101848999Y-48894645D01*
X101577839Y-48914039D01*
X101577832Y-48914040D01*
X101312206Y-48971823D01*
X101312202Y-48971824D01*
X101312199Y-48971825D01*
X101171107Y-49024449D01*
X101057483Y-49066829D01*
X100958722Y-49120757D01*
X100890449Y-49135608D01*
X100824985Y-49111191D01*
X100820954Y-49108040D01*
X100762407Y-49060302D01*
X100582049Y-48966091D01*
X100582048Y-48966090D01*
X100582045Y-48966089D01*
X100447396Y-48927562D01*
X100386418Y-48910114D01*
X100386415Y-48910113D01*
X100386413Y-48910113D01*
X100320102Y-48904217D01*
X100267037Y-48899500D01*
X100267032Y-48899500D01*
X98350971Y-48899500D01*
X98350965Y-48899500D01*
X98350964Y-48899501D01*
X98339316Y-48900536D01*
X98231584Y-48910113D01*
X98035954Y-48966089D01*
X97945772Y-49013196D01*
X97855593Y-49060302D01*
X97855591Y-49060303D01*
X97855590Y-49060304D01*
X97697890Y-49188890D01*
X97569304Y-49346590D01*
X97569302Y-49346593D01*
X97562284Y-49360029D01*
X97475089Y-49526954D01*
X97419114Y-49722583D01*
X97419113Y-49722586D01*
X97408500Y-49841966D01*
X97408500Y-51758028D01*
X97408501Y-51758034D01*
X97419113Y-51877415D01*
X97475089Y-52073045D01*
X97475090Y-52073048D01*
X97475091Y-52073049D01*
X97569302Y-52253407D01*
X97569304Y-52253409D01*
X97697890Y-52411109D01*
X97763816Y-52464864D01*
X97855593Y-52539698D01*
X98035951Y-52633909D01*
X98231582Y-52689886D01*
X98350963Y-52700500D01*
X100267036Y-52700499D01*
X100386418Y-52689886D01*
X100582049Y-52633909D01*
X100762407Y-52539698D01*
X100820936Y-52491972D01*
X100885330Y-52464864D01*
X100954160Y-52476873D01*
X100958723Y-52479243D01*
X101057481Y-52533169D01*
X101057480Y-52533169D01*
X101057484Y-52533170D01*
X101057487Y-52533172D01*
X101312199Y-52628175D01*
X101577840Y-52685961D01*
X101829605Y-52703967D01*
X101848999Y-52705355D01*
X101849000Y-52705355D01*
X101849001Y-52705355D01*
X101867100Y-52704060D01*
X102120160Y-52685961D01*
X102385801Y-52628175D01*
X102640513Y-52533172D01*
X102640517Y-52533169D01*
X102640519Y-52533169D01*
X102864055Y-52411109D01*
X102879113Y-52402887D01*
X103096742Y-52239971D01*
X103288971Y-52047742D01*
X103451887Y-51830113D01*
X103582172Y-51591513D01*
X103677175Y-51336801D01*
X103734961Y-51071160D01*
X103754355Y-50800000D01*
X103744538Y-50662748D01*
X103759390Y-50594476D01*
X103780538Y-50566224D01*
X106373944Y-47972819D01*
X106435267Y-47939334D01*
X106461625Y-47936500D01*
X106802043Y-47936500D01*
X106869082Y-47956185D01*
X106886383Y-47969600D01*
X107078259Y-48147635D01*
X107301226Y-48299651D01*
X107544359Y-48416738D01*
X107802228Y-48496280D01*
X107802229Y-48496280D01*
X107802232Y-48496281D01*
X108069063Y-48536499D01*
X108069068Y-48536499D01*
X108069071Y-48536500D01*
X108069072Y-48536500D01*
X108338928Y-48536500D01*
X108338929Y-48536500D01*
X108338936Y-48536499D01*
X108605767Y-48496281D01*
X108605768Y-48496280D01*
X108605772Y-48496280D01*
X108863641Y-48416738D01*
X109063905Y-48320296D01*
X109106767Y-48299655D01*
X109106767Y-48299654D01*
X109106775Y-48299651D01*
X109329741Y-48147635D01*
X109527561Y-47964085D01*
X109695815Y-47753102D01*
X109830743Y-47519398D01*
X109929334Y-47268195D01*
X109989383Y-47005103D01*
X110009549Y-46736000D01*
X109989383Y-46466897D01*
X109929334Y-46203805D01*
X109830743Y-45952602D01*
X109695815Y-45718898D01*
X109661766Y-45676202D01*
X109635359Y-45611518D01*
X109648114Y-45542822D01*
X109695985Y-45491928D01*
X109758779Y-45474891D01*
X122899487Y-45482255D01*
X122966511Y-45501976D01*
X123012236Y-45554806D01*
X123022141Y-45623970D01*
X122996361Y-45683566D01*
X122968184Y-45718898D01*
X122833258Y-45952599D01*
X122833256Y-45952603D01*
X122734666Y-46203804D01*
X122734664Y-46203811D01*
X122674616Y-46466898D01*
X122654451Y-46735995D01*
X122654451Y-46736003D01*
X122657714Y-46779545D01*
X122643095Y-46847868D01*
X122621742Y-46876493D01*
X119935055Y-49563181D01*
X119873732Y-49596666D01*
X119847374Y-49599500D01*
X119393406Y-49599500D01*
X119326367Y-49579815D01*
X119299640Y-49554932D01*
X119298868Y-49555602D01*
X119295961Y-49552247D01*
X119103752Y-49360038D01*
X119103746Y-49360033D01*
X119103742Y-49360029D01*
X118886113Y-49197113D01*
X118886108Y-49197110D01*
X118886107Y-49197109D01*
X118647518Y-49066830D01*
X118647519Y-49066830D01*
X118597920Y-49048330D01*
X118392801Y-48971825D01*
X118392794Y-48971823D01*
X118392793Y-48971823D01*
X118127167Y-48914040D01*
X118127160Y-48914039D01*
X117856001Y-48894645D01*
X117855999Y-48894645D01*
X117584839Y-48914039D01*
X117584832Y-48914040D01*
X117319206Y-48971823D01*
X117319202Y-48971824D01*
X117319199Y-48971825D01*
X117178107Y-49024449D01*
X117064483Y-49066829D01*
X116965722Y-49120757D01*
X116897449Y-49135608D01*
X116831985Y-49111191D01*
X116827954Y-49108040D01*
X116769407Y-49060302D01*
X116589049Y-48966091D01*
X116589048Y-48966090D01*
X116589045Y-48966089D01*
X116454396Y-48927562D01*
X116393418Y-48910114D01*
X116393415Y-48910113D01*
X116393413Y-48910113D01*
X116327102Y-48904217D01*
X116274037Y-48899500D01*
X116274032Y-48899500D01*
X114357971Y-48899500D01*
X114357965Y-48899500D01*
X114357964Y-48899501D01*
X114346316Y-48900536D01*
X114238584Y-48910113D01*
X114042954Y-48966089D01*
X113952772Y-49013196D01*
X113862593Y-49060302D01*
X113862591Y-49060303D01*
X113862590Y-49060304D01*
X113704890Y-49188890D01*
X113576304Y-49346590D01*
X113576302Y-49346593D01*
X113569284Y-49360029D01*
X113482089Y-49526954D01*
X113426114Y-49722583D01*
X113426113Y-49722586D01*
X113415500Y-49841966D01*
X113415500Y-51758028D01*
X113415501Y-51758034D01*
X113426113Y-51877415D01*
X113482089Y-52073045D01*
X113482090Y-52073048D01*
X113482091Y-52073049D01*
X113576302Y-52253407D01*
X113576304Y-52253409D01*
X113704890Y-52411109D01*
X113770816Y-52464864D01*
X113862593Y-52539698D01*
X114042951Y-52633909D01*
X114238582Y-52689886D01*
X114357963Y-52700500D01*
X116274036Y-52700499D01*
X116393418Y-52689886D01*
X116589049Y-52633909D01*
X116769407Y-52539698D01*
X116827936Y-52491972D01*
X116892330Y-52464864D01*
X116961160Y-52476873D01*
X116965723Y-52479243D01*
X117064481Y-52533169D01*
X117064480Y-52533169D01*
X117064484Y-52533170D01*
X117064487Y-52533172D01*
X117319199Y-52628175D01*
X117584840Y-52685961D01*
X117836605Y-52703967D01*
X117855999Y-52705355D01*
X117856000Y-52705355D01*
X117856001Y-52705355D01*
X117874100Y-52704060D01*
X118127160Y-52685961D01*
X118392801Y-52628175D01*
X118647513Y-52533172D01*
X118647517Y-52533169D01*
X118647519Y-52533169D01*
X118871055Y-52411109D01*
X118886113Y-52402887D01*
X119103742Y-52239971D01*
X119295971Y-52047742D01*
X119295979Y-52047730D01*
X119298868Y-52044398D01*
X119300261Y-52045605D01*
X119350076Y-52008317D01*
X119393406Y-52000500D01*
X120490486Y-52000500D01*
X120677118Y-51970940D01*
X120856832Y-51912547D01*
X121025199Y-51826760D01*
X121178074Y-51715690D01*
X124320944Y-48572818D01*
X124382267Y-48539334D01*
X124408625Y-48536500D01*
X124594928Y-48536500D01*
X124594929Y-48536500D01*
X124594936Y-48536499D01*
X124861767Y-48496281D01*
X124861768Y-48496280D01*
X124861772Y-48496280D01*
X125119641Y-48416738D01*
X125319905Y-48320296D01*
X125362767Y-48299655D01*
X125362767Y-48299654D01*
X125362775Y-48299651D01*
X125585741Y-48147635D01*
X125783561Y-47964085D01*
X125951815Y-47753102D01*
X126086743Y-47519398D01*
X126185334Y-47268195D01*
X126245383Y-47005103D01*
X126265549Y-46736000D01*
X126245383Y-46466897D01*
X126185334Y-46203805D01*
X126086743Y-45952602D01*
X125951815Y-45718898D01*
X125925035Y-45685317D01*
X125898627Y-45620632D01*
X125911382Y-45551937D01*
X125959252Y-45501043D01*
X126022048Y-45484005D01*
X135086042Y-45489084D01*
X135153065Y-45508805D01*
X135198790Y-45561635D01*
X135208695Y-45630799D01*
X135182915Y-45690394D01*
X135160186Y-45718894D01*
X135025258Y-45952599D01*
X135025256Y-45952603D01*
X134926666Y-46203804D01*
X134919304Y-46236055D01*
X134886095Y-46296139D01*
X132280418Y-48901816D01*
X132219095Y-48935301D01*
X132051207Y-48971822D01*
X131796483Y-49066829D01*
X131697722Y-49120757D01*
X131629449Y-49135608D01*
X131563985Y-49111191D01*
X131559954Y-49108040D01*
X131501407Y-49060302D01*
X131321049Y-48966091D01*
X131321048Y-48966090D01*
X131321045Y-48966089D01*
X131186396Y-48927562D01*
X131125418Y-48910114D01*
X131125415Y-48910113D01*
X131125413Y-48910113D01*
X131059102Y-48904217D01*
X131006037Y-48899500D01*
X131006032Y-48899500D01*
X129089971Y-48899500D01*
X129089965Y-48899500D01*
X129089964Y-48899501D01*
X129078316Y-48900536D01*
X128970584Y-48910113D01*
X128774954Y-48966089D01*
X128684772Y-49013196D01*
X128594593Y-49060302D01*
X128594591Y-49060303D01*
X128594590Y-49060304D01*
X128436890Y-49188890D01*
X128308304Y-49346590D01*
X128308302Y-49346593D01*
X128301284Y-49360029D01*
X128214089Y-49526954D01*
X128158114Y-49722583D01*
X128158113Y-49722586D01*
X128147500Y-49841966D01*
X128147500Y-51758028D01*
X128147501Y-51758034D01*
X128158113Y-51877415D01*
X128214089Y-52073045D01*
X128214090Y-52073048D01*
X128214091Y-52073049D01*
X128308302Y-52253407D01*
X128308304Y-52253409D01*
X128436890Y-52411109D01*
X128502816Y-52464864D01*
X128594593Y-52539698D01*
X128774951Y-52633909D01*
X128970582Y-52689886D01*
X129089963Y-52700500D01*
X131006036Y-52700499D01*
X131125418Y-52689886D01*
X131321049Y-52633909D01*
X131501407Y-52539698D01*
X131559936Y-52491972D01*
X131624330Y-52464864D01*
X131693160Y-52476873D01*
X131697723Y-52479243D01*
X131796481Y-52533169D01*
X131796480Y-52533169D01*
X131796484Y-52533170D01*
X131796487Y-52533172D01*
X132051199Y-52628175D01*
X132316840Y-52685961D01*
X132568605Y-52703967D01*
X132587999Y-52705355D01*
X132588000Y-52705355D01*
X132588001Y-52705355D01*
X132606100Y-52704060D01*
X132859160Y-52685961D01*
X133124801Y-52628175D01*
X133379513Y-52533172D01*
X133379517Y-52533169D01*
X133379519Y-52533169D01*
X133603055Y-52411109D01*
X133618113Y-52402887D01*
X133835742Y-52239971D01*
X134027971Y-52047742D01*
X134190887Y-51830113D01*
X134321172Y-51591513D01*
X134416175Y-51336801D01*
X134473961Y-51071160D01*
X134493355Y-50800000D01*
X134473961Y-50528840D01*
X134416175Y-50263199D01*
X134416173Y-50263195D01*
X134414929Y-50258955D01*
X134416051Y-50258625D01*
X134411429Y-50194193D01*
X134444896Y-50132866D01*
X136068432Y-48509330D01*
X136129753Y-48475847D01*
X136192658Y-48478521D01*
X136250228Y-48496280D01*
X136517071Y-48536500D01*
X136517072Y-48536500D01*
X136786928Y-48536500D01*
X136786929Y-48536500D01*
X136786936Y-48536499D01*
X137053767Y-48496281D01*
X137053768Y-48496280D01*
X137053772Y-48496280D01*
X137311641Y-48416738D01*
X137511905Y-48320296D01*
X137554767Y-48299655D01*
X137554767Y-48299654D01*
X137554775Y-48299651D01*
X137777741Y-48147635D01*
X137975561Y-47964085D01*
X138143815Y-47753102D01*
X138278743Y-47519398D01*
X138377334Y-47268195D01*
X138437383Y-47005103D01*
X138457549Y-46736000D01*
X138437383Y-46466897D01*
X138377334Y-46203805D01*
X138278743Y-45952602D01*
X138143815Y-45718898D01*
X138122485Y-45692151D01*
X138096078Y-45627467D01*
X138108833Y-45558771D01*
X138156703Y-45507877D01*
X138219499Y-45490840D01*
X139094076Y-45491330D01*
X139161102Y-45511052D01*
X139206827Y-45563882D01*
X139218003Y-45614724D01*
X139318390Y-66143924D01*
X139299033Y-66211059D01*
X139246453Y-66257071D01*
X139194322Y-66268530D01*
X137976431Y-66267848D01*
X137909402Y-66248126D01*
X137863677Y-66195296D01*
X137852500Y-66143848D01*
X137852500Y-55752369D01*
X137872185Y-55685330D01*
X137892159Y-55661470D01*
X137975561Y-55584085D01*
X138143815Y-55373102D01*
X138278743Y-55139398D01*
X138377334Y-54888195D01*
X138437383Y-54625103D01*
X138457549Y-54356000D01*
X138437383Y-54086897D01*
X138377334Y-53823805D01*
X138278743Y-53572602D01*
X138143815Y-53338898D01*
X137975561Y-53127915D01*
X137975560Y-53127914D01*
X137975557Y-53127910D01*
X137777741Y-52944365D01*
X137554775Y-52792349D01*
X137554769Y-52792346D01*
X137554768Y-52792345D01*
X137554767Y-52792344D01*
X137311643Y-52675263D01*
X137311645Y-52675263D01*
X137053773Y-52595720D01*
X137053767Y-52595718D01*
X136786936Y-52555500D01*
X136786929Y-52555500D01*
X136517071Y-52555500D01*
X136517063Y-52555500D01*
X136250232Y-52595718D01*
X136250226Y-52595720D01*
X135992358Y-52675262D01*
X135749230Y-52792346D01*
X135526258Y-52944365D01*
X135328442Y-53127910D01*
X135160185Y-53338898D01*
X135025258Y-53572599D01*
X135025256Y-53572603D01*
X134926666Y-53823804D01*
X134926664Y-53823811D01*
X134866616Y-54086898D01*
X134846451Y-54355995D01*
X134846451Y-54356004D01*
X134866616Y-54625101D01*
X134926664Y-54888188D01*
X134926666Y-54888195D01*
X135025257Y-55139398D01*
X135160185Y-55373102D01*
X135328439Y-55584085D01*
X135411841Y-55661470D01*
X135447596Y-55721498D01*
X135451500Y-55752369D01*
X135451500Y-66142366D01*
X135431815Y-66209405D01*
X135379011Y-66255160D01*
X135327431Y-66266366D01*
X125784431Y-66261027D01*
X125717402Y-66241305D01*
X125671677Y-66188475D01*
X125660500Y-66137027D01*
X125660500Y-55752369D01*
X125680185Y-55685330D01*
X125700159Y-55661470D01*
X125783561Y-55584085D01*
X125951815Y-55373102D01*
X126086743Y-55139398D01*
X126185334Y-54888195D01*
X126245383Y-54625103D01*
X126265549Y-54356000D01*
X126245383Y-54086897D01*
X126185334Y-53823805D01*
X126086743Y-53572602D01*
X125951815Y-53338898D01*
X125783561Y-53127915D01*
X125783560Y-53127914D01*
X125783557Y-53127910D01*
X125585741Y-52944365D01*
X125362775Y-52792349D01*
X125362769Y-52792346D01*
X125362768Y-52792345D01*
X125362767Y-52792344D01*
X125119643Y-52675263D01*
X125119645Y-52675263D01*
X124861773Y-52595720D01*
X124861767Y-52595718D01*
X124594936Y-52555500D01*
X124594929Y-52555500D01*
X124325071Y-52555500D01*
X124325063Y-52555500D01*
X124058232Y-52595718D01*
X124058226Y-52595720D01*
X123800358Y-52675262D01*
X123557230Y-52792346D01*
X123334258Y-52944365D01*
X123136442Y-53127910D01*
X122968185Y-53338898D01*
X122833258Y-53572599D01*
X122833256Y-53572603D01*
X122734666Y-53823804D01*
X122734664Y-53823811D01*
X122674616Y-54086898D01*
X122654451Y-54355995D01*
X122654451Y-54356004D01*
X122674616Y-54625101D01*
X122734664Y-54888188D01*
X122734666Y-54888195D01*
X122833257Y-55139398D01*
X122968185Y-55373102D01*
X123136439Y-55584085D01*
X123219841Y-55661470D01*
X123255596Y-55721498D01*
X123259500Y-55752369D01*
X123259500Y-66135545D01*
X123239815Y-66202584D01*
X123187011Y-66248339D01*
X123135431Y-66259545D01*
X109528431Y-66251932D01*
X109461402Y-66232210D01*
X109415677Y-66179380D01*
X109404500Y-66127932D01*
X109404500Y-55752369D01*
X109424185Y-55685330D01*
X109444159Y-55661470D01*
X109527561Y-55584085D01*
X109695815Y-55373102D01*
X109830743Y-55139398D01*
X109929334Y-54888195D01*
X109989383Y-54625103D01*
X110009549Y-54356000D01*
X109989383Y-54086897D01*
X109929334Y-53823805D01*
X109830743Y-53572602D01*
X109695815Y-53338898D01*
X109527561Y-53127915D01*
X109527560Y-53127914D01*
X109527557Y-53127910D01*
X109329741Y-52944365D01*
X109106775Y-52792349D01*
X109106769Y-52792346D01*
X109106768Y-52792345D01*
X109106767Y-52792344D01*
X108863643Y-52675263D01*
X108863645Y-52675263D01*
X108605773Y-52595720D01*
X108605767Y-52595718D01*
X108338936Y-52555500D01*
X108338929Y-52555500D01*
X108069071Y-52555500D01*
X108069063Y-52555500D01*
X107802232Y-52595718D01*
X107802226Y-52595720D01*
X107544358Y-52675262D01*
X107301230Y-52792346D01*
X107078258Y-52944365D01*
X106880442Y-53127910D01*
X106712185Y-53338898D01*
X106577258Y-53572599D01*
X106577256Y-53572603D01*
X106478666Y-53823804D01*
X106478664Y-53823811D01*
X106418616Y-54086898D01*
X106398451Y-54355995D01*
X106398451Y-54356004D01*
X106418616Y-54625101D01*
X106478664Y-54888188D01*
X106478666Y-54888195D01*
X106577257Y-55139398D01*
X106712185Y-55373102D01*
X106880439Y-55584085D01*
X106963841Y-55661470D01*
X106999596Y-55721498D01*
X107003500Y-55752369D01*
X107003500Y-66126450D01*
X106983815Y-66193489D01*
X106931011Y-66239244D01*
X106879431Y-66250450D01*
X94796431Y-66243690D01*
X94729402Y-66223968D01*
X94683677Y-66171138D01*
X94672500Y-66119690D01*
X94672500Y-55752369D01*
X94692185Y-55685330D01*
X94712159Y-55661470D01*
X94795561Y-55584085D01*
X94963815Y-55373102D01*
X95098743Y-55139398D01*
X95197334Y-54888195D01*
X95257383Y-54625103D01*
X95277549Y-54356000D01*
X95257383Y-54086897D01*
X95197334Y-53823805D01*
X95098743Y-53572602D01*
X94963815Y-53338898D01*
X94795561Y-53127915D01*
X94795560Y-53127914D01*
X94795557Y-53127910D01*
X94597741Y-52944365D01*
X94374775Y-52792349D01*
X94374769Y-52792346D01*
X94374768Y-52792345D01*
X94374767Y-52792344D01*
X94131643Y-52675263D01*
X94131645Y-52675263D01*
X93873773Y-52595720D01*
X93873767Y-52595718D01*
X93606936Y-52555500D01*
X93606929Y-52555500D01*
X93337071Y-52555500D01*
X93337063Y-52555500D01*
X93070232Y-52595718D01*
X93070226Y-52595720D01*
X92812358Y-52675262D01*
X92569230Y-52792346D01*
X92346258Y-52944365D01*
X92148442Y-53127910D01*
X91980185Y-53338898D01*
X91845258Y-53572599D01*
X91845256Y-53572603D01*
X91746666Y-53823804D01*
X91746664Y-53823811D01*
X91686616Y-54086898D01*
X91666451Y-54355995D01*
X91666451Y-54356004D01*
X91686616Y-54625101D01*
X91746664Y-54888188D01*
X91746666Y-54888195D01*
X91845257Y-55139398D01*
X91980185Y-55373102D01*
X92148439Y-55584085D01*
X92231841Y-55661470D01*
X92267596Y-55721498D01*
X92271500Y-55752369D01*
X92271500Y-66118207D01*
X92251815Y-66185246D01*
X92199011Y-66231001D01*
X92147431Y-66242207D01*
X79556431Y-66235163D01*
X79489402Y-66215441D01*
X79443677Y-66162611D01*
X79432500Y-66111163D01*
X79432500Y-55752369D01*
X79452185Y-55685330D01*
X79472159Y-55661470D01*
X79555561Y-55584085D01*
X79723815Y-55373102D01*
X79858743Y-55139398D01*
X79957334Y-54888195D01*
X80017383Y-54625103D01*
X80037549Y-54356000D01*
X80017383Y-54086897D01*
X79957334Y-53823805D01*
X79858743Y-53572602D01*
X79723815Y-53338898D01*
X79555561Y-53127915D01*
X79555560Y-53127914D01*
X79555557Y-53127910D01*
X79357741Y-52944365D01*
X79134775Y-52792349D01*
X79134769Y-52792346D01*
X79134768Y-52792345D01*
X79134767Y-52792344D01*
X78891643Y-52675263D01*
X78891645Y-52675263D01*
X78633773Y-52595720D01*
X78633767Y-52595718D01*
X78366936Y-52555500D01*
X78366929Y-52555500D01*
X78097071Y-52555500D01*
X78097063Y-52555500D01*
X77830232Y-52595718D01*
X77830226Y-52595720D01*
X77572358Y-52675262D01*
X77329230Y-52792346D01*
X77106258Y-52944365D01*
X76908442Y-53127910D01*
X76740185Y-53338898D01*
X76605258Y-53572599D01*
X76605256Y-53572603D01*
X76506666Y-53823804D01*
X76506664Y-53823811D01*
X76446616Y-54086898D01*
X76426451Y-54355995D01*
X76426451Y-54356004D01*
X76446616Y-54625101D01*
X76506664Y-54888188D01*
X76506666Y-54888195D01*
X76605257Y-55139398D01*
X76740185Y-55373102D01*
X76908439Y-55584085D01*
X76991841Y-55661470D01*
X77027596Y-55721498D01*
X77031500Y-55752369D01*
X77031500Y-66109681D01*
X77011815Y-66176720D01*
X76959011Y-66222475D01*
X76907431Y-66233681D01*
X64824431Y-66226921D01*
X64757402Y-66207199D01*
X64711677Y-66154369D01*
X64700500Y-66102921D01*
X64700500Y-55752369D01*
X64720185Y-55685330D01*
X64740159Y-55661470D01*
X64823561Y-55584085D01*
X64991815Y-55373102D01*
X65126743Y-55139398D01*
X65225334Y-54888195D01*
X65285383Y-54625103D01*
X65305549Y-54356000D01*
X65285383Y-54086897D01*
X65225334Y-53823805D01*
X65126743Y-53572602D01*
X64991815Y-53338898D01*
X64823561Y-53127915D01*
X64823560Y-53127914D01*
X64823557Y-53127910D01*
X64625741Y-52944365D01*
X64402775Y-52792349D01*
X64402769Y-52792346D01*
X64402768Y-52792345D01*
X64402767Y-52792344D01*
X64159643Y-52675263D01*
X64159645Y-52675263D01*
X63901773Y-52595720D01*
X63901767Y-52595718D01*
X63634936Y-52555500D01*
X63634929Y-52555500D01*
X63365071Y-52555500D01*
X63365063Y-52555500D01*
X63098232Y-52595718D01*
X63098226Y-52595720D01*
X62840358Y-52675262D01*
X62597230Y-52792346D01*
X62374258Y-52944365D01*
X62176442Y-53127910D01*
X62008185Y-53338898D01*
X61873258Y-53572599D01*
X61873256Y-53572603D01*
X61774666Y-53823804D01*
X61774664Y-53823811D01*
X61714616Y-54086898D01*
X61694451Y-54355995D01*
X61694451Y-54356004D01*
X61714616Y-54625101D01*
X61774664Y-54888188D01*
X61774666Y-54888195D01*
X61873257Y-55139398D01*
X62008185Y-55373102D01*
X62176439Y-55584085D01*
X62259841Y-55661470D01*
X62295596Y-55721498D01*
X62299500Y-55752369D01*
X62299500Y-66101439D01*
X62279815Y-66168478D01*
X62227011Y-66214233D01*
X62175431Y-66225439D01*
X48644695Y-66217869D01*
X48577666Y-66198147D01*
X48531941Y-66145317D01*
X48520764Y-66093608D01*
X48564536Y-45564404D01*
X48584364Y-45497407D01*
X48637265Y-45451765D01*
X48688603Y-45440669D01*
X61966716Y-45448110D01*
G37*
%TD.AperFunction*%
%TD*%
M02*
