%TF.GenerationSoftware,KiCad,Pcbnew,8.0.8-2.fc41*%
%TF.CreationDate,2025-02-20T10:07:06+00:00*%
%TF.ProjectId,PowerPoleFused,506f7765-7250-46f6-9c65-46757365642e,rev?*%
%TF.SameCoordinates,Original*%
%TF.FileFunction,Copper,L1,Top*%
%TF.FilePolarity,Positive*%
%FSLAX46Y46*%
G04 Gerber Fmt 4.6, Leading zero omitted, Abs format (unit mm)*
G04 Created by KiCad (PCBNEW 8.0.8-2.fc41) date 2025-02-20 10:07:06*
%MOMM*%
%LPD*%
G01*
G04 APERTURE LIST*
%TA.AperFunction,ComponentPad*%
%ADD10R,1.800000X1.800000*%
%TD*%
%TA.AperFunction,ComponentPad*%
%ADD11C,1.800000*%
%TD*%
%TA.AperFunction,ComponentPad*%
%ADD12O,6.000000X5.500000*%
%TD*%
%TA.AperFunction,ComponentPad*%
%ADD13O,1.600000X1.600000*%
%TD*%
%TA.AperFunction,ComponentPad*%
%ADD14C,1.600000*%
%TD*%
%TA.AperFunction,ComponentPad*%
%ADD15C,2.400000*%
%TD*%
%TA.AperFunction,Conductor*%
%ADD16C,6.000000*%
%TD*%
%TA.AperFunction,Conductor*%
%ADD17C,0.400000*%
%TD*%
%TA.AperFunction,Conductor*%
%ADD18C,0.250000*%
%TD*%
G04 APERTURE END LIST*
D10*
%TO.P,D3,1,K*%
%TO.N,0*%
X85085000Y-50800000D03*
D11*
%TO.P,D3,2,A*%
%TO.N,Net-(D3-A)*%
X87625000Y-50800000D03*
%TD*%
D12*
%TO.P,J3,1,+ve*%
%TO.N,Net-(J3-+ve)*%
X84836000Y-87604000D03*
%TO.P,J3,2,-ve*%
%TO.N,0*%
X84836000Y-95504000D03*
%TD*%
D10*
%TO.P,D4,1,K*%
%TO.N,0*%
X99309000Y-50800000D03*
D11*
%TO.P,D4,2,A*%
%TO.N,Net-(D4-A)*%
X101849000Y-50800000D03*
%TD*%
D10*
%TO.P,D1,1,K*%
%TO.N,0*%
X54356000Y-50800000D03*
D11*
%TO.P,D1,2,A*%
%TO.N,Net-(D1-A)*%
X56896000Y-50800000D03*
%TD*%
D10*
%TO.P,D5,1,K*%
%TO.N,0*%
X115316000Y-50800000D03*
D11*
%TO.P,D5,2,A*%
%TO.N,Net-(D5-A)*%
X117856000Y-50800000D03*
%TD*%
D12*
%TO.P,J2,1,+ve*%
%TO.N,Net-(J2-+ve)*%
X69596000Y-87604000D03*
%TO.P,J2,2,-ve*%
%TO.N,0*%
X69596000Y-95504000D03*
%TD*%
D13*
%TO.P,R1,2*%
%TO.N,Net-(J1-+ve)*%
X63500000Y-54356000D03*
D14*
%TO.P,R1,1*%
%TO.N,Net-(D1-A)*%
X63500000Y-46736000D03*
%TD*%
D10*
%TO.P,D6,1,K*%
%TO.N,0*%
X130048000Y-50800000D03*
D11*
%TO.P,D6,2,A*%
%TO.N,Net-(D6-A)*%
X132588000Y-50800000D03*
%TD*%
D13*
%TO.P,R5,2*%
%TO.N,Net-(D5-A)*%
X124460000Y-46736000D03*
D14*
%TO.P,R5,1*%
%TO.N,Net-(J5-+ve)*%
X124460000Y-54356000D03*
%TD*%
D13*
%TO.P,R2,2*%
%TO.N,Net-(D2-A)*%
X78232000Y-46736000D03*
D14*
%TO.P,R2,1*%
%TO.N,Net-(J2-+ve)*%
X78232000Y-54356000D03*
%TD*%
D15*
%TO.P,F5,4,4*%
%TO.N,+12V*%
X115316000Y-61137800D03*
%TO.P,F5,3,3*%
X118716000Y-61137800D03*
%TO.P,F5,2,2*%
%TO.N,Net-(J5-+ve)*%
X118716000Y-74607800D03*
%TO.P,F5,1,1*%
X115316000Y-74607800D03*
%TD*%
D13*
%TO.P,R3,2*%
%TO.N,Net-(D3-A)*%
X93472000Y-46736000D03*
D14*
%TO.P,R3,1*%
%TO.N,Net-(J3-+ve)*%
X93472000Y-54356000D03*
%TD*%
D12*
%TO.P,J6,1,+ve*%
%TO.N,Net-(J6-+ve)*%
X130556000Y-87604000D03*
%TO.P,J6,2,-ve*%
%TO.N,0*%
X130556000Y-95504000D03*
%TD*%
%TO.P,J4,1,+ve*%
%TO.N,Net-(J4-+ve)*%
X100076000Y-87604000D03*
%TO.P,J4,2,-ve*%
%TO.N,0*%
X100076000Y-95504000D03*
%TD*%
D15*
%TO.P,F2,4,4*%
%TO.N,+12V*%
X69437500Y-61137800D03*
%TO.P,F2,3,3*%
X72837500Y-61137800D03*
%TO.P,F2,2,2*%
%TO.N,Net-(J2-+ve)*%
X72837500Y-74607800D03*
%TO.P,F2,1,1*%
X69437500Y-74607800D03*
%TD*%
D13*
%TO.P,R4,2*%
%TO.N,Net-(D4-A)*%
X108204000Y-46736000D03*
D14*
%TO.P,R4,1*%
%TO.N,Net-(J4-+ve)*%
X108204000Y-54356000D03*
%TD*%
D10*
%TO.P,D2,1,K*%
%TO.N,0*%
X69596000Y-50800000D03*
D11*
%TO.P,D2,2,A*%
%TO.N,Net-(D2-A)*%
X72136000Y-50800000D03*
%TD*%
D13*
%TO.P,R6,2*%
%TO.N,Net-(D6-A)*%
X136652000Y-46736000D03*
D14*
%TO.P,R6,1*%
%TO.N,Net-(J6-+ve)*%
X136652000Y-54356000D03*
%TD*%
D12*
%TO.P,J1,1,+ve*%
%TO.N,Net-(J1-+ve)*%
X54356000Y-87604000D03*
%TO.P,J1,2,-ve*%
%TO.N,0*%
X54356000Y-95504000D03*
%TD*%
%TO.P,J5,1,+ve*%
%TO.N,Net-(J5-+ve)*%
X115316000Y-87604000D03*
%TO.P,J5,2,-ve*%
%TO.N,0*%
X115316000Y-95504000D03*
%TD*%
D15*
%TO.P,F3,4,4*%
%TO.N,+12V*%
X84677500Y-61137800D03*
%TO.P,F3,3,3*%
X88077500Y-61137800D03*
%TO.P,F3,2,2*%
%TO.N,Net-(J3-+ve)*%
X88077500Y-74607800D03*
%TO.P,F3,1,1*%
X84677500Y-74607800D03*
%TD*%
%TO.P,F4,4,4*%
%TO.N,+12V*%
X100054200Y-61137800D03*
%TO.P,F4,3,3*%
X103454200Y-61137800D03*
%TO.P,F4,2,2*%
%TO.N,Net-(J4-+ve)*%
X103454200Y-74607800D03*
%TO.P,F4,1,1*%
X100054200Y-74607800D03*
%TD*%
%TO.P,F6,4,4*%
%TO.N,+12V*%
X130556000Y-61137800D03*
%TO.P,F6,3,3*%
X133956000Y-61137800D03*
%TO.P,F6,2,2*%
%TO.N,Net-(J6-+ve)*%
X133956000Y-74607800D03*
%TO.P,F6,1,1*%
X130556000Y-74607800D03*
%TD*%
%TO.P,F1,4,4*%
%TO.N,+12V*%
X54197500Y-61137800D03*
%TO.P,F1,3,3*%
X57597500Y-61137800D03*
%TO.P,F1,2,2*%
%TO.N,Net-(J1-+ve)*%
X57597500Y-74607800D03*
%TO.P,F1,1,1*%
X54197500Y-74607800D03*
%TD*%
D16*
%TO.N,Net-(J1-+ve)*%
X54197500Y-74807000D02*
X57597500Y-74807000D01*
D17*
X57839800Y-74807000D02*
X54197500Y-74807000D01*
X57597500Y-74807000D02*
X57839800Y-74807000D01*
D16*
X54197500Y-74807000D02*
X54197500Y-78232000D01*
X54197500Y-78232000D02*
X54197500Y-87445500D01*
D17*
X57839800Y-74807000D02*
X57886600Y-74853800D01*
D16*
X57597500Y-84362500D02*
X54356000Y-87604000D01*
X57597500Y-74807000D02*
X57597500Y-84362500D01*
X54197500Y-87445500D02*
X54356000Y-87604000D01*
%TO.N,Net-(J2-+ve)*%
X69514100Y-78130400D02*
X72837500Y-74807000D01*
X72837500Y-74807000D02*
X72837500Y-84362500D01*
X69437500Y-78130400D02*
X69437500Y-87445500D01*
X69437500Y-74807000D02*
X69437500Y-78130400D01*
X69437500Y-87445500D02*
X69596000Y-87604000D01*
X72837500Y-84362500D02*
X69596000Y-87604000D01*
X69437500Y-78130400D02*
X69514100Y-78130400D01*
%TO.N,Net-(J3-+ve)*%
X84677500Y-77978000D02*
X84677500Y-87445500D01*
X84906500Y-77978000D02*
X88077500Y-74807000D01*
X84677500Y-87445500D02*
X84836000Y-87604000D01*
X84677500Y-77978000D02*
X84906500Y-77978000D01*
X88077500Y-84362500D02*
X84836000Y-87604000D01*
X88077500Y-74807000D02*
X88077500Y-84362500D01*
X84677500Y-74807000D02*
X84677500Y-77978000D01*
%TO.N,Net-(J4-+ve)*%
X100076000Y-87604000D02*
X100076000Y-78138400D01*
X100076000Y-78138400D02*
X103454200Y-74760200D01*
X103454200Y-74760200D02*
X103454200Y-84225800D01*
X100054200Y-87582200D02*
X100076000Y-87604000D01*
X100054200Y-74760200D02*
X100054200Y-87582200D01*
X103454200Y-84225800D02*
X100076000Y-87604000D01*
%TO.N,Net-(J5-+ve)*%
X115316000Y-74938000D02*
X115316000Y-78181200D01*
X118716000Y-74938000D02*
X118716000Y-84204000D01*
X115316000Y-78181200D02*
X115316000Y-87604000D01*
X115316000Y-78181200D02*
X115472800Y-78181200D01*
X118716000Y-84204000D02*
X115316000Y-87604000D01*
X115472800Y-78181200D02*
X118716000Y-74938000D01*
%TO.N,Net-(J6-+ve)*%
X130556000Y-78007800D02*
X133956000Y-74607800D01*
X130556000Y-87604000D02*
X130556000Y-78007800D01*
X130556000Y-87604000D02*
X130556000Y-74607800D01*
X133956000Y-84204000D02*
X130556000Y-87604000D01*
X133956000Y-74607800D02*
X133956000Y-84204000D01*
D18*
%TO.N,0*%
X130048000Y-46939200D02*
X127889000Y-44780200D01*
D17*
X130556000Y-95254000D02*
X138785600Y-87024400D01*
X135051800Y-48056800D02*
X132283200Y-48056800D01*
D18*
X88747600Y-44780200D02*
X72999600Y-44780200D01*
X99309000Y-50119200D02*
X104648000Y-44780200D01*
X60375800Y-44780200D02*
X54356000Y-50800000D01*
X127889000Y-44780200D02*
X116738400Y-44780200D01*
X72999600Y-44780200D02*
X60375800Y-44780200D01*
X104648000Y-44780200D02*
X88747600Y-44780200D01*
X130048000Y-50292000D02*
X130048000Y-46939200D01*
D17*
X69596000Y-51282600D02*
X69596000Y-50800000D01*
D18*
X69596000Y-50800000D02*
X69596000Y-48183800D01*
D17*
X130048000Y-50749200D02*
X130048000Y-50292000D01*
D18*
X85085000Y-50800000D02*
X85085000Y-48442800D01*
X115316000Y-50800000D02*
X115316000Y-46202600D01*
X99309000Y-50800000D02*
X99309000Y-50119200D01*
X69596000Y-48183800D02*
X72999600Y-44780200D01*
X116738400Y-44780200D02*
X104648000Y-44780200D01*
D17*
X132283200Y-48056800D02*
X130048000Y-50292000D01*
D18*
X115316000Y-46202600D02*
X116738400Y-44780200D01*
D17*
X138785600Y-51790600D02*
X135051800Y-48056800D01*
X138785600Y-87024400D02*
X138785600Y-51790600D01*
D18*
X85085000Y-48442800D02*
X88747600Y-44780200D01*
D17*
X130556000Y-95504000D02*
X130556000Y-95254000D01*
%TD*%
%TA.AperFunction,Conductor*%
%TO.N,0*%
G36*
X139903539Y-92983685D02*
G01*
X139949294Y-93036489D01*
X139960500Y-93088000D01*
X139960500Y-110620000D01*
X139940815Y-110687039D01*
X139888011Y-110732794D01*
X139836500Y-110744000D01*
X48644500Y-110744000D01*
X48577461Y-110724315D01*
X48531706Y-110671511D01*
X48520500Y-110620000D01*
X48520500Y-105529186D01*
X53740000Y-105529186D01*
X53740000Y-105798813D01*
X53770186Y-106066719D01*
X53770188Y-106066731D01*
X53830184Y-106329594D01*
X53830187Y-106329602D01*
X53919234Y-106584082D01*
X54036214Y-106826994D01*
X54036216Y-106826997D01*
X54179662Y-107055289D01*
X54347766Y-107266085D01*
X54538415Y-107456734D01*
X54749211Y-107624838D01*
X54977503Y-107768284D01*
X55220421Y-107885267D01*
X55411549Y-107952145D01*
X55474897Y-107974312D01*
X55474905Y-107974315D01*
X55474908Y-107974315D01*
X55474909Y-107974316D01*
X55737768Y-108034312D01*
X56005687Y-108064499D01*
X56005688Y-108064500D01*
X56005691Y-108064500D01*
X56275312Y-108064500D01*
X56275312Y-108064499D01*
X56543232Y-108034312D01*
X56806091Y-107974316D01*
X57060579Y-107885267D01*
X57303497Y-107768284D01*
X57531789Y-107624838D01*
X57742585Y-107456734D01*
X57933234Y-107266085D01*
X58101338Y-107055289D01*
X58244784Y-106826997D01*
X58361767Y-106584079D01*
X58450816Y-106329591D01*
X58510812Y-106066732D01*
X58541000Y-105798809D01*
X58541000Y-105529191D01*
X58540999Y-105529186D01*
X91840000Y-105529186D01*
X91840000Y-105798813D01*
X91870186Y-106066719D01*
X91870188Y-106066731D01*
X91930184Y-106329594D01*
X91930187Y-106329602D01*
X92019234Y-106584082D01*
X92136214Y-106826994D01*
X92136216Y-106826997D01*
X92279662Y-107055289D01*
X92447766Y-107266085D01*
X92638415Y-107456734D01*
X92849211Y-107624838D01*
X93077503Y-107768284D01*
X93320421Y-107885267D01*
X93511549Y-107952145D01*
X93574897Y-107974312D01*
X93574905Y-107974315D01*
X93574908Y-107974315D01*
X93574909Y-107974316D01*
X93837768Y-108034312D01*
X94105687Y-108064499D01*
X94105688Y-108064500D01*
X94105691Y-108064500D01*
X94375312Y-108064500D01*
X94375312Y-108064499D01*
X94643232Y-108034312D01*
X94906091Y-107974316D01*
X95160579Y-107885267D01*
X95403497Y-107768284D01*
X95631789Y-107624838D01*
X95842585Y-107456734D01*
X96033234Y-107266085D01*
X96201338Y-107055289D01*
X96344784Y-106826997D01*
X96461767Y-106584079D01*
X96550816Y-106329591D01*
X96610812Y-106066732D01*
X96641000Y-105798809D01*
X96641000Y-105529191D01*
X96640999Y-105529186D01*
X129940000Y-105529186D01*
X129940000Y-105798813D01*
X129970186Y-106066719D01*
X129970188Y-106066731D01*
X130030184Y-106329594D01*
X130030187Y-106329602D01*
X130119234Y-106584082D01*
X130236214Y-106826994D01*
X130236216Y-106826997D01*
X130379662Y-107055289D01*
X130547766Y-107266085D01*
X130738415Y-107456734D01*
X130949211Y-107624838D01*
X131177503Y-107768284D01*
X131420421Y-107885267D01*
X131611549Y-107952145D01*
X131674897Y-107974312D01*
X131674905Y-107974315D01*
X131674908Y-107974315D01*
X131674909Y-107974316D01*
X131937768Y-108034312D01*
X132205687Y-108064499D01*
X132205688Y-108064500D01*
X132205691Y-108064500D01*
X132475312Y-108064500D01*
X132475312Y-108064499D01*
X132743232Y-108034312D01*
X133006091Y-107974316D01*
X133260579Y-107885267D01*
X133503497Y-107768284D01*
X133731789Y-107624838D01*
X133942585Y-107456734D01*
X134133234Y-107266085D01*
X134301338Y-107055289D01*
X134444784Y-106826997D01*
X134561767Y-106584079D01*
X134650816Y-106329591D01*
X134710812Y-106066732D01*
X134741000Y-105798809D01*
X134741000Y-105529191D01*
X134710812Y-105261268D01*
X134650816Y-104998409D01*
X134561767Y-104743921D01*
X134444784Y-104501003D01*
X134301338Y-104272711D01*
X134133234Y-104061915D01*
X133942585Y-103871266D01*
X133731789Y-103703162D01*
X133503497Y-103559716D01*
X133503494Y-103559714D01*
X133260582Y-103442734D01*
X133006102Y-103353687D01*
X133006094Y-103353684D01*
X132808946Y-103308687D01*
X132743232Y-103293688D01*
X132743228Y-103293687D01*
X132743219Y-103293686D01*
X132475313Y-103263500D01*
X132475309Y-103263500D01*
X132205691Y-103263500D01*
X132205686Y-103263500D01*
X131937780Y-103293686D01*
X131937768Y-103293688D01*
X131674905Y-103353684D01*
X131674897Y-103353687D01*
X131420417Y-103442734D01*
X131177505Y-103559714D01*
X130949212Y-103703161D01*
X130738415Y-103871265D01*
X130547765Y-104061915D01*
X130379661Y-104272712D01*
X130236214Y-104501005D01*
X130119234Y-104743917D01*
X130030187Y-104998397D01*
X130030184Y-104998405D01*
X129970188Y-105261268D01*
X129970186Y-105261280D01*
X129940000Y-105529186D01*
X96640999Y-105529186D01*
X96610812Y-105261268D01*
X96550816Y-104998409D01*
X96461767Y-104743921D01*
X96344784Y-104501003D01*
X96201338Y-104272711D01*
X96033234Y-104061915D01*
X95842585Y-103871266D01*
X95631789Y-103703162D01*
X95403497Y-103559716D01*
X95403494Y-103559714D01*
X95160582Y-103442734D01*
X94906102Y-103353687D01*
X94906094Y-103353684D01*
X94708946Y-103308687D01*
X94643232Y-103293688D01*
X94643228Y-103293687D01*
X94643219Y-103293686D01*
X94375313Y-103263500D01*
X94375309Y-103263500D01*
X94105691Y-103263500D01*
X94105686Y-103263500D01*
X93837780Y-103293686D01*
X93837768Y-103293688D01*
X93574905Y-103353684D01*
X93574897Y-103353687D01*
X93320417Y-103442734D01*
X93077505Y-103559714D01*
X92849212Y-103703161D01*
X92638415Y-103871265D01*
X92447765Y-104061915D01*
X92279661Y-104272712D01*
X92136214Y-104501005D01*
X92019234Y-104743917D01*
X91930187Y-104998397D01*
X91930184Y-104998405D01*
X91870188Y-105261268D01*
X91870186Y-105261280D01*
X91840000Y-105529186D01*
X58540999Y-105529186D01*
X58510812Y-105261268D01*
X58450816Y-104998409D01*
X58361767Y-104743921D01*
X58244784Y-104501003D01*
X58101338Y-104272711D01*
X57933234Y-104061915D01*
X57742585Y-103871266D01*
X57531789Y-103703162D01*
X57303497Y-103559716D01*
X57303494Y-103559714D01*
X57060582Y-103442734D01*
X56806102Y-103353687D01*
X56806094Y-103353684D01*
X56608946Y-103308687D01*
X56543232Y-103293688D01*
X56543228Y-103293687D01*
X56543219Y-103293686D01*
X56275313Y-103263500D01*
X56275309Y-103263500D01*
X56005691Y-103263500D01*
X56005686Y-103263500D01*
X55737780Y-103293686D01*
X55737768Y-103293688D01*
X55474905Y-103353684D01*
X55474897Y-103353687D01*
X55220417Y-103442734D01*
X54977505Y-103559714D01*
X54749212Y-103703161D01*
X54538415Y-103871265D01*
X54347765Y-104061915D01*
X54179661Y-104272712D01*
X54036214Y-104501005D01*
X53919234Y-104743917D01*
X53830187Y-104998397D01*
X53830184Y-104998405D01*
X53770188Y-105261268D01*
X53770186Y-105261280D01*
X53740000Y-105529186D01*
X48520500Y-105529186D01*
X48520500Y-93088000D01*
X48540185Y-93020961D01*
X48592989Y-92975206D01*
X48644500Y-92964000D01*
X139836500Y-92964000D01*
X139903539Y-92983685D01*
G37*
%TD.AperFunction*%
%TD*%
%TA.AperFunction,Conductor*%
%TO.N,+12V*%
G36*
X57819225Y-45445786D02*
G01*
X57886251Y-45465507D01*
X57931976Y-45518337D01*
X57941881Y-45587501D01*
X57912820Y-45651040D01*
X57906834Y-45657466D01*
X54701120Y-48863181D01*
X54639797Y-48896666D01*
X54613439Y-48899500D01*
X53397971Y-48899500D01*
X53397965Y-48899500D01*
X53397964Y-48899501D01*
X53386316Y-48900536D01*
X53278584Y-48910113D01*
X53082954Y-48966089D01*
X52992772Y-49013196D01*
X52902593Y-49060302D01*
X52902591Y-49060303D01*
X52902590Y-49060304D01*
X52744890Y-49188890D01*
X52623336Y-49337966D01*
X52616302Y-49346593D01*
X52609284Y-49360029D01*
X52522089Y-49526954D01*
X52466114Y-49722583D01*
X52466113Y-49722586D01*
X52455500Y-49841966D01*
X52455500Y-51758028D01*
X52455501Y-51758034D01*
X52466113Y-51877415D01*
X52522089Y-52073045D01*
X52522090Y-52073048D01*
X52522091Y-52073049D01*
X52616302Y-52253407D01*
X52616304Y-52253409D01*
X52744890Y-52411109D01*
X52810816Y-52464864D01*
X52902593Y-52539698D01*
X53082951Y-52633909D01*
X53278582Y-52689886D01*
X53397963Y-52700500D01*
X55314036Y-52700499D01*
X55433418Y-52689886D01*
X55629049Y-52633909D01*
X55809407Y-52539698D01*
X55867936Y-52491972D01*
X55932330Y-52464864D01*
X56001160Y-52476873D01*
X56005723Y-52479243D01*
X56104481Y-52533169D01*
X56104480Y-52533169D01*
X56104484Y-52533170D01*
X56104487Y-52533172D01*
X56359199Y-52628175D01*
X56624840Y-52685961D01*
X56876605Y-52703967D01*
X56895999Y-52705355D01*
X56896000Y-52705355D01*
X56896001Y-52705355D01*
X56914100Y-52704060D01*
X57167160Y-52685961D01*
X57432801Y-52628175D01*
X57687513Y-52533172D01*
X57687517Y-52533169D01*
X57687519Y-52533169D01*
X57911055Y-52411109D01*
X57926113Y-52402887D01*
X58143742Y-52239971D01*
X58335971Y-52047742D01*
X58498887Y-51830113D01*
X58629172Y-51591513D01*
X58724175Y-51336801D01*
X58781961Y-51071160D01*
X58801355Y-50800000D01*
X58781961Y-50528840D01*
X58724175Y-50263199D01*
X58629172Y-50008487D01*
X58629170Y-50008484D01*
X58629169Y-50008480D01*
X58498890Y-49769892D01*
X58498889Y-49769891D01*
X58498887Y-49769887D01*
X58335971Y-49552258D01*
X58335966Y-49552253D01*
X58335961Y-49552247D01*
X58143752Y-49360038D01*
X58143746Y-49360033D01*
X58143742Y-49360029D01*
X57926113Y-49197113D01*
X57926108Y-49197110D01*
X57926107Y-49197109D01*
X57828598Y-49143865D01*
X57779193Y-49094460D01*
X57764341Y-49026187D01*
X57788758Y-48960722D01*
X57800337Y-48947359D01*
X60805679Y-45942019D01*
X60867002Y-45908534D01*
X60893360Y-45905700D01*
X61709790Y-45905700D01*
X61776829Y-45925385D01*
X61822584Y-45978189D01*
X61832528Y-46047347D01*
X61825218Y-46075003D01*
X61774666Y-46203804D01*
X61774664Y-46203811D01*
X61714616Y-46466898D01*
X61694451Y-46735995D01*
X61694451Y-46736004D01*
X61714616Y-47005101D01*
X61772123Y-47257055D01*
X61774666Y-47268195D01*
X61873257Y-47519398D01*
X62008185Y-47753102D01*
X62087779Y-47852909D01*
X62176442Y-47964089D01*
X62317770Y-48095221D01*
X62374259Y-48147635D01*
X62597226Y-48299651D01*
X62840359Y-48416738D01*
X63098228Y-48496280D01*
X63098229Y-48496280D01*
X63098232Y-48496281D01*
X63365063Y-48536499D01*
X63365068Y-48536499D01*
X63365071Y-48536500D01*
X63365072Y-48536500D01*
X63634928Y-48536500D01*
X63634929Y-48536500D01*
X63634936Y-48536499D01*
X63901767Y-48496281D01*
X63901768Y-48496280D01*
X63901772Y-48496280D01*
X64159641Y-48416738D01*
X64402775Y-48299651D01*
X64625741Y-48147635D01*
X64779259Y-48005190D01*
X64823557Y-47964089D01*
X64823557Y-47964087D01*
X64823561Y-47964085D01*
X64991815Y-47753102D01*
X65126743Y-47519398D01*
X65225334Y-47268195D01*
X65285383Y-47005103D01*
X65301316Y-46792490D01*
X65305549Y-46736004D01*
X65305549Y-46735995D01*
X65285383Y-46466898D01*
X65271951Y-46408049D01*
X65225334Y-46203805D01*
X65174781Y-46075001D01*
X65168613Y-46005406D01*
X65201050Y-45943522D01*
X65261795Y-45909000D01*
X65290210Y-45905700D01*
X69983041Y-45905700D01*
X70050080Y-45925385D01*
X70095835Y-45978189D01*
X70105779Y-46047347D01*
X70076754Y-46110903D01*
X70070722Y-46117381D01*
X68737519Y-47450583D01*
X68737519Y-47450584D01*
X68737517Y-47450586D01*
X68692796Y-47512138D01*
X68633386Y-47593909D01*
X68552957Y-47751757D01*
X68552956Y-47751760D01*
X68498214Y-47920243D01*
X68470500Y-48095221D01*
X68470500Y-48830376D01*
X68450815Y-48897415D01*
X68398011Y-48943170D01*
X68380614Y-48949590D01*
X68359495Y-48955634D01*
X68322953Y-48966090D01*
X68322951Y-48966090D01*
X68322951Y-48966091D01*
X68142593Y-49060302D01*
X68142591Y-49060303D01*
X68142590Y-49060304D01*
X67984890Y-49188890D01*
X67863336Y-49337966D01*
X67856302Y-49346593D01*
X67849284Y-49360029D01*
X67762089Y-49526954D01*
X67706114Y-49722583D01*
X67706113Y-49722586D01*
X67695500Y-49841966D01*
X67695500Y-51758028D01*
X67695501Y-51758034D01*
X67706113Y-51877415D01*
X67762089Y-52073045D01*
X67762090Y-52073048D01*
X67762091Y-52073049D01*
X67856302Y-52253407D01*
X67856304Y-52253409D01*
X67984890Y-52411109D01*
X68050816Y-52464864D01*
X68142593Y-52539698D01*
X68322951Y-52633909D01*
X68518582Y-52689886D01*
X68637963Y-52700500D01*
X70554036Y-52700499D01*
X70673418Y-52689886D01*
X70869049Y-52633909D01*
X71049407Y-52539698D01*
X71107936Y-52491972D01*
X71172330Y-52464864D01*
X71241160Y-52476873D01*
X71245723Y-52479243D01*
X71344481Y-52533169D01*
X71344480Y-52533169D01*
X71344484Y-52533170D01*
X71344487Y-52533172D01*
X71599199Y-52628175D01*
X71864840Y-52685961D01*
X72116605Y-52703967D01*
X72135999Y-52705355D01*
X72136000Y-52705355D01*
X72136001Y-52705355D01*
X72154100Y-52704060D01*
X72407160Y-52685961D01*
X72672801Y-52628175D01*
X72927513Y-52533172D01*
X72927517Y-52533169D01*
X72927519Y-52533169D01*
X73151055Y-52411109D01*
X73166113Y-52402887D01*
X73383742Y-52239971D01*
X73575971Y-52047742D01*
X73738887Y-51830113D01*
X73869172Y-51591513D01*
X73964175Y-51336801D01*
X74021961Y-51071160D01*
X74041355Y-50800000D01*
X74021961Y-50528840D01*
X73964175Y-50263199D01*
X73869172Y-50008487D01*
X73869170Y-50008484D01*
X73869169Y-50008480D01*
X73738890Y-49769892D01*
X73738889Y-49769891D01*
X73738887Y-49769887D01*
X73575971Y-49552258D01*
X73575966Y-49552253D01*
X73575961Y-49552247D01*
X73383752Y-49360038D01*
X73383746Y-49360033D01*
X73383742Y-49360029D01*
X73166113Y-49197113D01*
X73166108Y-49197110D01*
X73166107Y-49197109D01*
X72927518Y-49066830D01*
X72927519Y-49066830D01*
X72877920Y-49048330D01*
X72672801Y-48971825D01*
X72672794Y-48971823D01*
X72672793Y-48971823D01*
X72407167Y-48914040D01*
X72407160Y-48914039D01*
X72136001Y-48894645D01*
X72135999Y-48894645D01*
X71864839Y-48914039D01*
X71864832Y-48914040D01*
X71599206Y-48971823D01*
X71599202Y-48971824D01*
X71599199Y-48971825D01*
X71458107Y-49024449D01*
X71344483Y-49066829D01*
X71245722Y-49120757D01*
X71177449Y-49135608D01*
X71111985Y-49111191D01*
X71107954Y-49108040D01*
X71049407Y-49060302D01*
X70869049Y-48966091D01*
X70869042Y-48966089D01*
X70846903Y-48959754D01*
X70811387Y-48949591D01*
X70752350Y-48912224D01*
X70722887Y-48848870D01*
X70721500Y-48830376D01*
X70721500Y-48701359D01*
X70741185Y-48634320D01*
X70757819Y-48613678D01*
X73429478Y-45942019D01*
X73490801Y-45908534D01*
X73517159Y-45905700D01*
X76441790Y-45905700D01*
X76508829Y-45925385D01*
X76554584Y-45978189D01*
X76564528Y-46047347D01*
X76557218Y-46075003D01*
X76506666Y-46203804D01*
X76506664Y-46203811D01*
X76446616Y-46466898D01*
X76426451Y-46735995D01*
X76426451Y-46736004D01*
X76446616Y-47005101D01*
X76504123Y-47257055D01*
X76506666Y-47268195D01*
X76605257Y-47519398D01*
X76740185Y-47753102D01*
X76819779Y-47852909D01*
X76908442Y-47964089D01*
X77049770Y-48095221D01*
X77106259Y-48147635D01*
X77329226Y-48299651D01*
X77572359Y-48416738D01*
X77830228Y-48496280D01*
X77830229Y-48496280D01*
X77830232Y-48496281D01*
X78097063Y-48536499D01*
X78097068Y-48536499D01*
X78097071Y-48536500D01*
X78097072Y-48536500D01*
X78366928Y-48536500D01*
X78366929Y-48536500D01*
X78366936Y-48536499D01*
X78633767Y-48496281D01*
X78633768Y-48496280D01*
X78633772Y-48496280D01*
X78891641Y-48416738D01*
X79134775Y-48299651D01*
X79357741Y-48147635D01*
X79511259Y-48005190D01*
X79555557Y-47964089D01*
X79555557Y-47964087D01*
X79555561Y-47964085D01*
X79723815Y-47753102D01*
X79858743Y-47519398D01*
X79957334Y-47268195D01*
X80017383Y-47005103D01*
X80033316Y-46792490D01*
X80037549Y-46736004D01*
X80037549Y-46735995D01*
X80017383Y-46466898D01*
X80003951Y-46408049D01*
X79957334Y-46203805D01*
X79906781Y-46075001D01*
X79900613Y-46005406D01*
X79933050Y-45943522D01*
X79993795Y-45909000D01*
X80022210Y-45905700D01*
X85731041Y-45905700D01*
X85798080Y-45925385D01*
X85843835Y-45978189D01*
X85853779Y-46047347D01*
X85824754Y-46110903D01*
X85818722Y-46117381D01*
X84226519Y-47709583D01*
X84226519Y-47709584D01*
X84226517Y-47709586D01*
X84194901Y-47753102D01*
X84122386Y-47852909D01*
X84088809Y-47918807D01*
X84065738Y-47964089D01*
X84056489Y-47982241D01*
X84056488Y-47982242D01*
X84041956Y-48010760D01*
X84041956Y-48010761D01*
X83996300Y-48151280D01*
X83987214Y-48179243D01*
X83987213Y-48179248D01*
X83959500Y-48354221D01*
X83959500Y-48830376D01*
X83939815Y-48897415D01*
X83887011Y-48943170D01*
X83869614Y-48949590D01*
X83848495Y-48955634D01*
X83811953Y-48966090D01*
X83811951Y-48966090D01*
X83811951Y-48966091D01*
X83631593Y-49060302D01*
X83631591Y-49060303D01*
X83631590Y-49060304D01*
X83473890Y-49188890D01*
X83352336Y-49337966D01*
X83345302Y-49346593D01*
X83338284Y-49360029D01*
X83251089Y-49526954D01*
X83195114Y-49722583D01*
X83195113Y-49722586D01*
X83184500Y-49841966D01*
X83184500Y-51758028D01*
X83184501Y-51758034D01*
X83195113Y-51877415D01*
X83251089Y-52073045D01*
X83251090Y-52073048D01*
X83251091Y-52073049D01*
X83345302Y-52253407D01*
X83345304Y-52253409D01*
X83473890Y-52411109D01*
X83539816Y-52464864D01*
X83631593Y-52539698D01*
X83811951Y-52633909D01*
X84007582Y-52689886D01*
X84126963Y-52700500D01*
X86043036Y-52700499D01*
X86162418Y-52689886D01*
X86358049Y-52633909D01*
X86538407Y-52539698D01*
X86596936Y-52491972D01*
X86661330Y-52464864D01*
X86730160Y-52476873D01*
X86734723Y-52479243D01*
X86833481Y-52533169D01*
X86833480Y-52533169D01*
X86833484Y-52533170D01*
X86833487Y-52533172D01*
X87088199Y-52628175D01*
X87353840Y-52685961D01*
X87605605Y-52703967D01*
X87624999Y-52705355D01*
X87625000Y-52705355D01*
X87625001Y-52705355D01*
X87643100Y-52704060D01*
X87896160Y-52685961D01*
X88161801Y-52628175D01*
X88416513Y-52533172D01*
X88416517Y-52533169D01*
X88416519Y-52533169D01*
X88640055Y-52411109D01*
X88655113Y-52402887D01*
X88872742Y-52239971D01*
X89064971Y-52047742D01*
X89227887Y-51830113D01*
X89358172Y-51591513D01*
X89453175Y-51336801D01*
X89510961Y-51071160D01*
X89530355Y-50800000D01*
X89510961Y-50528840D01*
X89453175Y-50263199D01*
X89358172Y-50008487D01*
X89358170Y-50008484D01*
X89358169Y-50008480D01*
X89227890Y-49769892D01*
X89227889Y-49769891D01*
X89227887Y-49769887D01*
X89064971Y-49552258D01*
X89064966Y-49552253D01*
X89064961Y-49552247D01*
X88872752Y-49360038D01*
X88872746Y-49360033D01*
X88872742Y-49360029D01*
X88655113Y-49197113D01*
X88655108Y-49197110D01*
X88655107Y-49197109D01*
X88416518Y-49066830D01*
X88416519Y-49066830D01*
X88366920Y-49048330D01*
X88161801Y-48971825D01*
X88161794Y-48971823D01*
X88161793Y-48971823D01*
X87896167Y-48914040D01*
X87896160Y-48914039D01*
X87625001Y-48894645D01*
X87624999Y-48894645D01*
X87353839Y-48914039D01*
X87353832Y-48914040D01*
X87088206Y-48971823D01*
X87088202Y-48971824D01*
X87088199Y-48971825D01*
X86947107Y-49024449D01*
X86833483Y-49066829D01*
X86734722Y-49120757D01*
X86666449Y-49135608D01*
X86600985Y-49111191D01*
X86596954Y-49108040D01*
X86538407Y-49060302D01*
X86373296Y-48974055D01*
X86322991Y-48925570D01*
X86306884Y-48857582D01*
X86330091Y-48791679D01*
X86343023Y-48776473D01*
X89177479Y-45942019D01*
X89238802Y-45908534D01*
X89265160Y-45905700D01*
X91681790Y-45905700D01*
X91748829Y-45925385D01*
X91794584Y-45978189D01*
X91804528Y-46047347D01*
X91797218Y-46075003D01*
X91746666Y-46203804D01*
X91746664Y-46203811D01*
X91686616Y-46466898D01*
X91666451Y-46735995D01*
X91666451Y-46736004D01*
X91686616Y-47005101D01*
X91744123Y-47257055D01*
X91746666Y-47268195D01*
X91845257Y-47519398D01*
X91980185Y-47753102D01*
X92059779Y-47852909D01*
X92148442Y-47964089D01*
X92289770Y-48095221D01*
X92346259Y-48147635D01*
X92569226Y-48299651D01*
X92812359Y-48416738D01*
X93070228Y-48496280D01*
X93070229Y-48496280D01*
X93070232Y-48496281D01*
X93337063Y-48536499D01*
X93337068Y-48536499D01*
X93337071Y-48536500D01*
X93337072Y-48536500D01*
X93606928Y-48536500D01*
X93606929Y-48536500D01*
X93606936Y-48536499D01*
X93873767Y-48496281D01*
X93873768Y-48496280D01*
X93873772Y-48496280D01*
X94131641Y-48416738D01*
X94374775Y-48299651D01*
X94597741Y-48147635D01*
X94751259Y-48005190D01*
X94795557Y-47964089D01*
X94795557Y-47964087D01*
X94795561Y-47964085D01*
X94963815Y-47753102D01*
X95098743Y-47519398D01*
X95197334Y-47268195D01*
X95257383Y-47005103D01*
X95273316Y-46792490D01*
X95277549Y-46736004D01*
X95277549Y-46735995D01*
X95257383Y-46466898D01*
X95243951Y-46408049D01*
X95197334Y-46203805D01*
X95146781Y-46075001D01*
X95140613Y-46005406D01*
X95173050Y-45943522D01*
X95233795Y-45909000D01*
X95262210Y-45905700D01*
X101631441Y-45905700D01*
X101698480Y-45925385D01*
X101744235Y-45978189D01*
X101754179Y-46047347D01*
X101725154Y-46110903D01*
X101719122Y-46117381D01*
X98973320Y-48863181D01*
X98911997Y-48896666D01*
X98885639Y-48899500D01*
X98350971Y-48899500D01*
X98350965Y-48899500D01*
X98350964Y-48899501D01*
X98339316Y-48900536D01*
X98231584Y-48910113D01*
X98035954Y-48966089D01*
X97945772Y-49013196D01*
X97855593Y-49060302D01*
X97855591Y-49060303D01*
X97855590Y-49060304D01*
X97697890Y-49188890D01*
X97576336Y-49337966D01*
X97569302Y-49346593D01*
X97562284Y-49360029D01*
X97475089Y-49526954D01*
X97419114Y-49722583D01*
X97419113Y-49722586D01*
X97408500Y-49841966D01*
X97408500Y-51758028D01*
X97408501Y-51758034D01*
X97419113Y-51877415D01*
X97475089Y-52073045D01*
X97475090Y-52073048D01*
X97475091Y-52073049D01*
X97569302Y-52253407D01*
X97569304Y-52253409D01*
X97697890Y-52411109D01*
X97763816Y-52464864D01*
X97855593Y-52539698D01*
X98035951Y-52633909D01*
X98231582Y-52689886D01*
X98350963Y-52700500D01*
X100267036Y-52700499D01*
X100386418Y-52689886D01*
X100582049Y-52633909D01*
X100762407Y-52539698D01*
X100820936Y-52491972D01*
X100885330Y-52464864D01*
X100954160Y-52476873D01*
X100958723Y-52479243D01*
X101057481Y-52533169D01*
X101057480Y-52533169D01*
X101057484Y-52533170D01*
X101057487Y-52533172D01*
X101312199Y-52628175D01*
X101577840Y-52685961D01*
X101829605Y-52703967D01*
X101848999Y-52705355D01*
X101849000Y-52705355D01*
X101849001Y-52705355D01*
X101867100Y-52704060D01*
X102120160Y-52685961D01*
X102385801Y-52628175D01*
X102640513Y-52533172D01*
X102640517Y-52533169D01*
X102640519Y-52533169D01*
X102864055Y-52411109D01*
X102879113Y-52402887D01*
X103096742Y-52239971D01*
X103288971Y-52047742D01*
X103451887Y-51830113D01*
X103582172Y-51591513D01*
X103677175Y-51336801D01*
X103734961Y-51071160D01*
X103754355Y-50800000D01*
X103734961Y-50528840D01*
X103677175Y-50263199D01*
X103582172Y-50008487D01*
X103582170Y-50008484D01*
X103582169Y-50008480D01*
X103451890Y-49769892D01*
X103451889Y-49769891D01*
X103451887Y-49769887D01*
X103288971Y-49552258D01*
X103288966Y-49552253D01*
X103288961Y-49552247D01*
X103096752Y-49360038D01*
X103096746Y-49360033D01*
X103096742Y-49360029D01*
X102879113Y-49197113D01*
X102879108Y-49197110D01*
X102879107Y-49197109D01*
X102640518Y-49066830D01*
X102640519Y-49066830D01*
X102531551Y-49026187D01*
X102385801Y-48971825D01*
X102385798Y-48971824D01*
X102385792Y-48971822D01*
X102330312Y-48959754D01*
X102268988Y-48926270D01*
X102235503Y-48864947D01*
X102240487Y-48795255D01*
X102268986Y-48750909D01*
X105077878Y-45942019D01*
X105139201Y-45908534D01*
X105165559Y-45905700D01*
X106413790Y-45905700D01*
X106480829Y-45925385D01*
X106526584Y-45978189D01*
X106536528Y-46047347D01*
X106529218Y-46075003D01*
X106478666Y-46203804D01*
X106478664Y-46203811D01*
X106418616Y-46466898D01*
X106398451Y-46735995D01*
X106398451Y-46736004D01*
X106418616Y-47005101D01*
X106476123Y-47257055D01*
X106478666Y-47268195D01*
X106577257Y-47519398D01*
X106712185Y-47753102D01*
X106791779Y-47852909D01*
X106880442Y-47964089D01*
X107021770Y-48095221D01*
X107078259Y-48147635D01*
X107301226Y-48299651D01*
X107544359Y-48416738D01*
X107802228Y-48496280D01*
X107802229Y-48496280D01*
X107802232Y-48496281D01*
X108069063Y-48536499D01*
X108069068Y-48536499D01*
X108069071Y-48536500D01*
X108069072Y-48536500D01*
X108338928Y-48536500D01*
X108338929Y-48536500D01*
X108338936Y-48536499D01*
X108605767Y-48496281D01*
X108605768Y-48496280D01*
X108605772Y-48496280D01*
X108863641Y-48416738D01*
X109106775Y-48299651D01*
X109329741Y-48147635D01*
X109483259Y-48005190D01*
X109527557Y-47964089D01*
X109527557Y-47964087D01*
X109527561Y-47964085D01*
X109695815Y-47753102D01*
X109830743Y-47519398D01*
X109929334Y-47268195D01*
X109989383Y-47005103D01*
X110005316Y-46792490D01*
X110009549Y-46736004D01*
X110009549Y-46735995D01*
X109989383Y-46466898D01*
X109975951Y-46408049D01*
X109929334Y-46203805D01*
X109878781Y-46075001D01*
X109872613Y-46005406D01*
X109905050Y-45943522D01*
X109965795Y-45909000D01*
X109994210Y-45905700D01*
X114078310Y-45905700D01*
X114145349Y-45925385D01*
X114191104Y-45978189D01*
X114201048Y-46047347D01*
X114200783Y-46049098D01*
X114190500Y-46114021D01*
X114190500Y-48830376D01*
X114170815Y-48897415D01*
X114118011Y-48943170D01*
X114100614Y-48949590D01*
X114079495Y-48955634D01*
X114042953Y-48966090D01*
X114042951Y-48966090D01*
X114042951Y-48966091D01*
X113862593Y-49060302D01*
X113862591Y-49060303D01*
X113862590Y-49060304D01*
X113704890Y-49188890D01*
X113583336Y-49337966D01*
X113576302Y-49346593D01*
X113569284Y-49360029D01*
X113482089Y-49526954D01*
X113426114Y-49722583D01*
X113426113Y-49722586D01*
X113415500Y-49841966D01*
X113415500Y-51758028D01*
X113415501Y-51758034D01*
X113426113Y-51877415D01*
X113482089Y-52073045D01*
X113482090Y-52073048D01*
X113482091Y-52073049D01*
X113576302Y-52253407D01*
X113576304Y-52253409D01*
X113704890Y-52411109D01*
X113770816Y-52464864D01*
X113862593Y-52539698D01*
X114042951Y-52633909D01*
X114238582Y-52689886D01*
X114357963Y-52700500D01*
X116274036Y-52700499D01*
X116393418Y-52689886D01*
X116589049Y-52633909D01*
X116769407Y-52539698D01*
X116827936Y-52491972D01*
X116892330Y-52464864D01*
X116961160Y-52476873D01*
X116965723Y-52479243D01*
X117064481Y-52533169D01*
X117064480Y-52533169D01*
X117064484Y-52533170D01*
X117064487Y-52533172D01*
X117319199Y-52628175D01*
X117584840Y-52685961D01*
X117836605Y-52703967D01*
X117855999Y-52705355D01*
X117856000Y-52705355D01*
X117856001Y-52705355D01*
X117874100Y-52704060D01*
X118127160Y-52685961D01*
X118392801Y-52628175D01*
X118647513Y-52533172D01*
X118647517Y-52533169D01*
X118647519Y-52533169D01*
X118871055Y-52411109D01*
X118886113Y-52402887D01*
X119103742Y-52239971D01*
X119295971Y-52047742D01*
X119458887Y-51830113D01*
X119589172Y-51591513D01*
X119684175Y-51336801D01*
X119741961Y-51071160D01*
X119761355Y-50800000D01*
X119741961Y-50528840D01*
X119684175Y-50263199D01*
X119589172Y-50008487D01*
X119589170Y-50008484D01*
X119589169Y-50008480D01*
X119458890Y-49769892D01*
X119458889Y-49769891D01*
X119458887Y-49769887D01*
X119295971Y-49552258D01*
X119295966Y-49552253D01*
X119295961Y-49552247D01*
X119103752Y-49360038D01*
X119103746Y-49360033D01*
X119103742Y-49360029D01*
X118886113Y-49197113D01*
X118886108Y-49197110D01*
X118886107Y-49197109D01*
X118647518Y-49066830D01*
X118647519Y-49066830D01*
X118597920Y-49048330D01*
X118392801Y-48971825D01*
X118392794Y-48971823D01*
X118392793Y-48971823D01*
X118127167Y-48914040D01*
X118127160Y-48914039D01*
X117856001Y-48894645D01*
X117855999Y-48894645D01*
X117584839Y-48914039D01*
X117584832Y-48914040D01*
X117319206Y-48971823D01*
X117319202Y-48971824D01*
X117319199Y-48971825D01*
X117178107Y-49024449D01*
X117064483Y-49066829D01*
X116965722Y-49120757D01*
X116897449Y-49135608D01*
X116831985Y-49111191D01*
X116827954Y-49108040D01*
X116769407Y-49060302D01*
X116589049Y-48966091D01*
X116589042Y-48966089D01*
X116566903Y-48959754D01*
X116531387Y-48949591D01*
X116472350Y-48912224D01*
X116442887Y-48848870D01*
X116441500Y-48830376D01*
X116441500Y-46720159D01*
X116461185Y-46653120D01*
X116477819Y-46632478D01*
X117168278Y-45942019D01*
X117229601Y-45908534D01*
X117255959Y-45905700D01*
X122669790Y-45905700D01*
X122736829Y-45925385D01*
X122782584Y-45978189D01*
X122792528Y-46047347D01*
X122785218Y-46075003D01*
X122734666Y-46203804D01*
X122734664Y-46203811D01*
X122674616Y-46466898D01*
X122654451Y-46735995D01*
X122654451Y-46736004D01*
X122674616Y-47005101D01*
X122732123Y-47257055D01*
X122734666Y-47268195D01*
X122833257Y-47519398D01*
X122968185Y-47753102D01*
X123047779Y-47852909D01*
X123136442Y-47964089D01*
X123277770Y-48095221D01*
X123334259Y-48147635D01*
X123557226Y-48299651D01*
X123800359Y-48416738D01*
X124058228Y-48496280D01*
X124058229Y-48496280D01*
X124058232Y-48496281D01*
X124325063Y-48536499D01*
X124325068Y-48536499D01*
X124325071Y-48536500D01*
X124325072Y-48536500D01*
X124594928Y-48536500D01*
X124594929Y-48536500D01*
X124594936Y-48536499D01*
X124861767Y-48496281D01*
X124861768Y-48496280D01*
X124861772Y-48496280D01*
X125119641Y-48416738D01*
X125362775Y-48299651D01*
X125585741Y-48147635D01*
X125739259Y-48005190D01*
X125783557Y-47964089D01*
X125783557Y-47964087D01*
X125783561Y-47964085D01*
X125951815Y-47753102D01*
X126086743Y-47519398D01*
X126185334Y-47268195D01*
X126245383Y-47005103D01*
X126261316Y-46792490D01*
X126265549Y-46736004D01*
X126265549Y-46735995D01*
X126245383Y-46466898D01*
X126231951Y-46408049D01*
X126185334Y-46203805D01*
X126134781Y-46075001D01*
X126128613Y-46005406D01*
X126161050Y-45943522D01*
X126221795Y-45909000D01*
X126250210Y-45905700D01*
X127371441Y-45905700D01*
X127438480Y-45925385D01*
X127459122Y-45942019D01*
X128886181Y-47369078D01*
X128919666Y-47430401D01*
X128922500Y-47456759D01*
X128922500Y-48830376D01*
X128902815Y-48897415D01*
X128850011Y-48943170D01*
X128832614Y-48949590D01*
X128811495Y-48955634D01*
X128774953Y-48966090D01*
X128774951Y-48966090D01*
X128774951Y-48966091D01*
X128594593Y-49060302D01*
X128594591Y-49060303D01*
X128594590Y-49060304D01*
X128436890Y-49188890D01*
X128315336Y-49337966D01*
X128308302Y-49346593D01*
X128301284Y-49360029D01*
X128214089Y-49526954D01*
X128158114Y-49722583D01*
X128158113Y-49722586D01*
X128147500Y-49841966D01*
X128147500Y-51758028D01*
X128147501Y-51758034D01*
X128158113Y-51877415D01*
X128214089Y-52073045D01*
X128214090Y-52073048D01*
X128214091Y-52073049D01*
X128308302Y-52253407D01*
X128308304Y-52253409D01*
X128436890Y-52411109D01*
X128502816Y-52464864D01*
X128594593Y-52539698D01*
X128774951Y-52633909D01*
X128970582Y-52689886D01*
X129089963Y-52700500D01*
X131006036Y-52700499D01*
X131125418Y-52689886D01*
X131321049Y-52633909D01*
X131501407Y-52539698D01*
X131559936Y-52491972D01*
X131624330Y-52464864D01*
X131693160Y-52476873D01*
X131697723Y-52479243D01*
X131796481Y-52533169D01*
X131796480Y-52533169D01*
X131796484Y-52533170D01*
X131796487Y-52533172D01*
X132051199Y-52628175D01*
X132316840Y-52685961D01*
X132568605Y-52703967D01*
X132587999Y-52705355D01*
X132588000Y-52705355D01*
X132588001Y-52705355D01*
X132606100Y-52704060D01*
X132859160Y-52685961D01*
X133124801Y-52628175D01*
X133379513Y-52533172D01*
X133379517Y-52533169D01*
X133379519Y-52533169D01*
X133603055Y-52411109D01*
X133618113Y-52402887D01*
X133835742Y-52239971D01*
X134027971Y-52047742D01*
X134190887Y-51830113D01*
X134321172Y-51591513D01*
X134416175Y-51336801D01*
X134473961Y-51071160D01*
X134493355Y-50800000D01*
X134473961Y-50528840D01*
X134416175Y-50263199D01*
X134321172Y-50008487D01*
X134321170Y-50008484D01*
X134321169Y-50008480D01*
X134190890Y-49769892D01*
X134190889Y-49769891D01*
X134190887Y-49769887D01*
X134027971Y-49552258D01*
X134027966Y-49552253D01*
X134027961Y-49552247D01*
X133944695Y-49468981D01*
X133911210Y-49407658D01*
X133916194Y-49337966D01*
X133958066Y-49282033D01*
X134023530Y-49257616D01*
X134032376Y-49257300D01*
X134503174Y-49257300D01*
X134570213Y-49276985D01*
X134590855Y-49293619D01*
X137548781Y-52251544D01*
X137582266Y-52312867D01*
X137585100Y-52339225D01*
X137585100Y-52609608D01*
X137565415Y-52676647D01*
X137512611Y-52722402D01*
X137443453Y-52732346D01*
X137407299Y-52721328D01*
X137311643Y-52675263D01*
X137311645Y-52675263D01*
X137053773Y-52595720D01*
X137053767Y-52595718D01*
X136786936Y-52555500D01*
X136786929Y-52555500D01*
X136517071Y-52555500D01*
X136517063Y-52555500D01*
X136250232Y-52595718D01*
X136250226Y-52595720D01*
X135992358Y-52675262D01*
X135749230Y-52792346D01*
X135526258Y-52944365D01*
X135328442Y-53127910D01*
X135160185Y-53338898D01*
X135025258Y-53572599D01*
X135025256Y-53572603D01*
X134926666Y-53823804D01*
X134926664Y-53823811D01*
X134866616Y-54086898D01*
X134846451Y-54355995D01*
X134846451Y-54356004D01*
X134866616Y-54625101D01*
X134926664Y-54888188D01*
X134926666Y-54888195D01*
X135025257Y-55139398D01*
X135160185Y-55373102D01*
X135296080Y-55543509D01*
X135328442Y-55584089D01*
X135515183Y-55757358D01*
X135526259Y-55767635D01*
X135749226Y-55919651D01*
X135992359Y-56036738D01*
X136250228Y-56116280D01*
X136250229Y-56116280D01*
X136250232Y-56116281D01*
X136517063Y-56156499D01*
X136517068Y-56156499D01*
X136517071Y-56156500D01*
X136517072Y-56156500D01*
X136786928Y-56156500D01*
X136786929Y-56156500D01*
X136786936Y-56156499D01*
X137053767Y-56116281D01*
X137053768Y-56116280D01*
X137053772Y-56116280D01*
X137311641Y-56036738D01*
X137407301Y-55990670D01*
X137476239Y-55979319D01*
X137540374Y-56007041D01*
X137579340Y-56065036D01*
X137585100Y-56102391D01*
X137585100Y-66143559D01*
X137565415Y-66210598D01*
X137512611Y-66256353D01*
X137461031Y-66267559D01*
X48644695Y-66217869D01*
X48577666Y-66198147D01*
X48531941Y-66145317D01*
X48520764Y-66093608D01*
X48545791Y-54355995D01*
X61694451Y-54355995D01*
X61694451Y-54356004D01*
X61714616Y-54625101D01*
X61774664Y-54888188D01*
X61774666Y-54888195D01*
X61873257Y-55139398D01*
X62008185Y-55373102D01*
X62144080Y-55543509D01*
X62176442Y-55584089D01*
X62363183Y-55757358D01*
X62374259Y-55767635D01*
X62597226Y-55919651D01*
X62840359Y-56036738D01*
X63098228Y-56116280D01*
X63098229Y-56116280D01*
X63098232Y-56116281D01*
X63365063Y-56156499D01*
X63365068Y-56156499D01*
X63365071Y-56156500D01*
X63365072Y-56156500D01*
X63634928Y-56156500D01*
X63634929Y-56156500D01*
X63634936Y-56156499D01*
X63901767Y-56116281D01*
X63901768Y-56116280D01*
X63901772Y-56116280D01*
X64159641Y-56036738D01*
X64402775Y-55919651D01*
X64625741Y-55767635D01*
X64823561Y-55584085D01*
X64991815Y-55373102D01*
X65126743Y-55139398D01*
X65225334Y-54888195D01*
X65285383Y-54625103D01*
X65305549Y-54356000D01*
X65305549Y-54355995D01*
X76426451Y-54355995D01*
X76426451Y-54356004D01*
X76446616Y-54625101D01*
X76506664Y-54888188D01*
X76506666Y-54888195D01*
X76605257Y-55139398D01*
X76740185Y-55373102D01*
X76876080Y-55543509D01*
X76908442Y-55584089D01*
X77095183Y-55757358D01*
X77106259Y-55767635D01*
X77329226Y-55919651D01*
X77572359Y-56036738D01*
X77830228Y-56116280D01*
X77830229Y-56116280D01*
X77830232Y-56116281D01*
X78097063Y-56156499D01*
X78097068Y-56156499D01*
X78097071Y-56156500D01*
X78097072Y-56156500D01*
X78366928Y-56156500D01*
X78366929Y-56156500D01*
X78366936Y-56156499D01*
X78633767Y-56116281D01*
X78633768Y-56116280D01*
X78633772Y-56116280D01*
X78891641Y-56036738D01*
X79134775Y-55919651D01*
X79357741Y-55767635D01*
X79555561Y-55584085D01*
X79723815Y-55373102D01*
X79858743Y-55139398D01*
X79957334Y-54888195D01*
X80017383Y-54625103D01*
X80037549Y-54356000D01*
X80037549Y-54355995D01*
X91666451Y-54355995D01*
X91666451Y-54356004D01*
X91686616Y-54625101D01*
X91746664Y-54888188D01*
X91746666Y-54888195D01*
X91845257Y-55139398D01*
X91980185Y-55373102D01*
X92116080Y-55543509D01*
X92148442Y-55584089D01*
X92335183Y-55757358D01*
X92346259Y-55767635D01*
X92569226Y-55919651D01*
X92812359Y-56036738D01*
X93070228Y-56116280D01*
X93070229Y-56116280D01*
X93070232Y-56116281D01*
X93337063Y-56156499D01*
X93337068Y-56156499D01*
X93337071Y-56156500D01*
X93337072Y-56156500D01*
X93606928Y-56156500D01*
X93606929Y-56156500D01*
X93606936Y-56156499D01*
X93873767Y-56116281D01*
X93873768Y-56116280D01*
X93873772Y-56116280D01*
X94131641Y-56036738D01*
X94374775Y-55919651D01*
X94597741Y-55767635D01*
X94795561Y-55584085D01*
X94963815Y-55373102D01*
X95098743Y-55139398D01*
X95197334Y-54888195D01*
X95257383Y-54625103D01*
X95277549Y-54356000D01*
X95277549Y-54355995D01*
X106398451Y-54355995D01*
X106398451Y-54356004D01*
X106418616Y-54625101D01*
X106478664Y-54888188D01*
X106478666Y-54888195D01*
X106577257Y-55139398D01*
X106712185Y-55373102D01*
X106848080Y-55543509D01*
X106880442Y-55584089D01*
X107067183Y-55757358D01*
X107078259Y-55767635D01*
X107301226Y-55919651D01*
X107544359Y-56036738D01*
X107802228Y-56116280D01*
X107802229Y-56116280D01*
X107802232Y-56116281D01*
X108069063Y-56156499D01*
X108069068Y-56156499D01*
X108069071Y-56156500D01*
X108069072Y-56156500D01*
X108338928Y-56156500D01*
X108338929Y-56156500D01*
X108338936Y-56156499D01*
X108605767Y-56116281D01*
X108605768Y-56116280D01*
X108605772Y-56116280D01*
X108863641Y-56036738D01*
X109106775Y-55919651D01*
X109329741Y-55767635D01*
X109527561Y-55584085D01*
X109695815Y-55373102D01*
X109830743Y-55139398D01*
X109929334Y-54888195D01*
X109989383Y-54625103D01*
X110009549Y-54356000D01*
X110009549Y-54355995D01*
X122654451Y-54355995D01*
X122654451Y-54356004D01*
X122674616Y-54625101D01*
X122734664Y-54888188D01*
X122734666Y-54888195D01*
X122833257Y-55139398D01*
X122968185Y-55373102D01*
X123104080Y-55543509D01*
X123136442Y-55584089D01*
X123323183Y-55757358D01*
X123334259Y-55767635D01*
X123557226Y-55919651D01*
X123800359Y-56036738D01*
X124058228Y-56116280D01*
X124058229Y-56116280D01*
X124058232Y-56116281D01*
X124325063Y-56156499D01*
X124325068Y-56156499D01*
X124325071Y-56156500D01*
X124325072Y-56156500D01*
X124594928Y-56156500D01*
X124594929Y-56156500D01*
X124594936Y-56156499D01*
X124861767Y-56116281D01*
X124861768Y-56116280D01*
X124861772Y-56116280D01*
X125119641Y-56036738D01*
X125362775Y-55919651D01*
X125585741Y-55767635D01*
X125783561Y-55584085D01*
X125951815Y-55373102D01*
X126086743Y-55139398D01*
X126185334Y-54888195D01*
X126245383Y-54625103D01*
X126265549Y-54356000D01*
X126245383Y-54086897D01*
X126185334Y-53823805D01*
X126086743Y-53572602D01*
X125951815Y-53338898D01*
X125783561Y-53127915D01*
X125783560Y-53127914D01*
X125783557Y-53127910D01*
X125585741Y-52944365D01*
X125362775Y-52792349D01*
X125362769Y-52792346D01*
X125362768Y-52792345D01*
X125362767Y-52792344D01*
X125119643Y-52675263D01*
X125119645Y-52675263D01*
X124861773Y-52595720D01*
X124861767Y-52595718D01*
X124594936Y-52555500D01*
X124594929Y-52555500D01*
X124325071Y-52555500D01*
X124325063Y-52555500D01*
X124058232Y-52595718D01*
X124058226Y-52595720D01*
X123800358Y-52675262D01*
X123557230Y-52792346D01*
X123334258Y-52944365D01*
X123136442Y-53127910D01*
X122968185Y-53338898D01*
X122833258Y-53572599D01*
X122833256Y-53572603D01*
X122734666Y-53823804D01*
X122734664Y-53823811D01*
X122674616Y-54086898D01*
X122654451Y-54355995D01*
X110009549Y-54355995D01*
X109989383Y-54086897D01*
X109929334Y-53823805D01*
X109830743Y-53572602D01*
X109695815Y-53338898D01*
X109527561Y-53127915D01*
X109527560Y-53127914D01*
X109527557Y-53127910D01*
X109329741Y-52944365D01*
X109106775Y-52792349D01*
X109106769Y-52792346D01*
X109106768Y-52792345D01*
X109106767Y-52792344D01*
X108863643Y-52675263D01*
X108863645Y-52675263D01*
X108605773Y-52595720D01*
X108605767Y-52595718D01*
X108338936Y-52555500D01*
X108338929Y-52555500D01*
X108069071Y-52555500D01*
X108069063Y-52555500D01*
X107802232Y-52595718D01*
X107802226Y-52595720D01*
X107544358Y-52675262D01*
X107301230Y-52792346D01*
X107078258Y-52944365D01*
X106880442Y-53127910D01*
X106712185Y-53338898D01*
X106577258Y-53572599D01*
X106577256Y-53572603D01*
X106478666Y-53823804D01*
X106478664Y-53823811D01*
X106418616Y-54086898D01*
X106398451Y-54355995D01*
X95277549Y-54355995D01*
X95257383Y-54086897D01*
X95197334Y-53823805D01*
X95098743Y-53572602D01*
X94963815Y-53338898D01*
X94795561Y-53127915D01*
X94795560Y-53127914D01*
X94795557Y-53127910D01*
X94597741Y-52944365D01*
X94374775Y-52792349D01*
X94374769Y-52792346D01*
X94374768Y-52792345D01*
X94374767Y-52792344D01*
X94131643Y-52675263D01*
X94131645Y-52675263D01*
X93873773Y-52595720D01*
X93873767Y-52595718D01*
X93606936Y-52555500D01*
X93606929Y-52555500D01*
X93337071Y-52555500D01*
X93337063Y-52555500D01*
X93070232Y-52595718D01*
X93070226Y-52595720D01*
X92812358Y-52675262D01*
X92569230Y-52792346D01*
X92346258Y-52944365D01*
X92148442Y-53127910D01*
X91980185Y-53338898D01*
X91845258Y-53572599D01*
X91845256Y-53572603D01*
X91746666Y-53823804D01*
X91746664Y-53823811D01*
X91686616Y-54086898D01*
X91666451Y-54355995D01*
X80037549Y-54355995D01*
X80017383Y-54086897D01*
X79957334Y-53823805D01*
X79858743Y-53572602D01*
X79723815Y-53338898D01*
X79555561Y-53127915D01*
X79555560Y-53127914D01*
X79555557Y-53127910D01*
X79357741Y-52944365D01*
X79134775Y-52792349D01*
X79134769Y-52792346D01*
X79134768Y-52792345D01*
X79134767Y-52792344D01*
X78891643Y-52675263D01*
X78891645Y-52675263D01*
X78633773Y-52595720D01*
X78633767Y-52595718D01*
X78366936Y-52555500D01*
X78366929Y-52555500D01*
X78097071Y-52555500D01*
X78097063Y-52555500D01*
X77830232Y-52595718D01*
X77830226Y-52595720D01*
X77572358Y-52675262D01*
X77329230Y-52792346D01*
X77106258Y-52944365D01*
X76908442Y-53127910D01*
X76740185Y-53338898D01*
X76605258Y-53572599D01*
X76605256Y-53572603D01*
X76506666Y-53823804D01*
X76506664Y-53823811D01*
X76446616Y-54086898D01*
X76426451Y-54355995D01*
X65305549Y-54355995D01*
X65285383Y-54086897D01*
X65225334Y-53823805D01*
X65126743Y-53572602D01*
X64991815Y-53338898D01*
X64823561Y-53127915D01*
X64823560Y-53127914D01*
X64823557Y-53127910D01*
X64625741Y-52944365D01*
X64402775Y-52792349D01*
X64402769Y-52792346D01*
X64402768Y-52792345D01*
X64402767Y-52792344D01*
X64159643Y-52675263D01*
X64159645Y-52675263D01*
X63901773Y-52595720D01*
X63901767Y-52595718D01*
X63634936Y-52555500D01*
X63634929Y-52555500D01*
X63365071Y-52555500D01*
X63365063Y-52555500D01*
X63098232Y-52595718D01*
X63098226Y-52595720D01*
X62840358Y-52675262D01*
X62597230Y-52792346D01*
X62374258Y-52944365D01*
X62176442Y-53127910D01*
X62008185Y-53338898D01*
X61873258Y-53572599D01*
X61873256Y-53572603D01*
X61774666Y-53823804D01*
X61774664Y-53823811D01*
X61714616Y-54086898D01*
X61694451Y-54355995D01*
X48545791Y-54355995D01*
X48564536Y-45564404D01*
X48584364Y-45497407D01*
X48637265Y-45451765D01*
X48688603Y-45440669D01*
X57819225Y-45445786D01*
G37*
%TD.AperFunction*%
%TD*%
M02*
