M48
; DRILL file {KiCad 8.0.6} date 2024-11-19T18:22:34+0000
; FORMAT={-:-/ absolute / inch / decimal}
; #@! TF.CreationDate,2024-11-19T18:22:34+00:00
; #@! TF.GenerationSoftware,Kicad,Pcbnew,8.0.6
; #@! TF.FileFunction,Plated,1,2,PTH
FMAT,2
INCH
; #@! TA.AperFunction,Plated,PTH,ComponentDrill
T1C0.0472
%
G90
G05
T1
G00X1.1297Y-1.126
M15
G01X1.1297Y-1.252
M16
G05
G00X1.1297Y-1.437
M15
G01X1.1297Y-1.563
M16
G05
G00X1.7297Y-1.126
M15
G01X1.7297Y-1.252
M16
G05
G00X1.7297Y-1.437
M15
G01X1.7297Y-1.563
M16
G05
G00X2.3297Y-1.126
M15
G01X2.3297Y-1.252
M16
G05
G00X2.3297Y-1.437
M15
G01X2.3297Y-1.563
M16
G05
G00X2.9297Y-1.126
M15
G01X2.9297Y-1.252
M16
G05
G00X2.9297Y-1.437
M15
G01X2.9297Y-1.563
M16
G05
G00X3.5297Y-1.126
M15
G01X3.5297Y-1.252
M16
G05
G00X3.5297Y-1.437
M15
G01X3.5297Y-1.563
M16
G05
G00X4.1297Y-1.126
M15
G01X4.1297Y-1.252
M16
G05
G00X4.1297Y-1.437
M15
G01X4.1297Y-1.563
M16
G05
M30
