%TF.GenerationSoftware,KiCad,Pcbnew,8.0.8-2.fc41*%
%TF.CreationDate,2025-02-20T10:07:06+00:00*%
%TF.ProjectId,PowerPoleFused,506f7765-7250-46f6-9c65-46757365642e,rev?*%
%TF.SameCoordinates,Original*%
%TF.FileFunction,Legend,Top*%
%TF.FilePolarity,Positive*%
%FSLAX46Y46*%
G04 Gerber Fmt 4.6, Leading zero omitted, Abs format (unit mm)*
G04 Created by KiCad (PCBNEW 8.0.8-2.fc41) date 2025-02-20 10:07:06*
%MOMM*%
%LPD*%
G01*
G04 APERTURE LIST*
%ADD10C,0.150000*%
%ADD11C,0.254000*%
%ADD12C,0.010000*%
%ADD13C,0.120000*%
%ADD14C,0.100000*%
%ADD15R,1.800000X1.800000*%
%ADD16C,1.800000*%
%ADD17O,6.000000X5.500000*%
%ADD18O,1.600000X1.600000*%
%ADD19C,1.600000*%
%ADD20C,2.400000*%
%ADD21C,4.300000*%
G04 APERTURE END LIST*
D10*
X102432007Y-37604475D02*
X102098674Y-37128284D01*
X101860579Y-37604475D02*
X101860579Y-36604475D01*
X101860579Y-36604475D02*
X102241531Y-36604475D01*
X102241531Y-36604475D02*
X102336769Y-36652094D01*
X102336769Y-36652094D02*
X102384388Y-36699713D01*
X102384388Y-36699713D02*
X102432007Y-36794951D01*
X102432007Y-36794951D02*
X102432007Y-36937808D01*
X102432007Y-36937808D02*
X102384388Y-37033046D01*
X102384388Y-37033046D02*
X102336769Y-37080665D01*
X102336769Y-37080665D02*
X102241531Y-37128284D01*
X102241531Y-37128284D02*
X101860579Y-37128284D01*
X102812960Y-37318760D02*
X103289150Y-37318760D01*
X102717722Y-37604475D02*
X103051055Y-36604475D01*
X103051055Y-36604475D02*
X103384388Y-37604475D01*
X103717722Y-37604475D02*
X103717722Y-36604475D01*
X103717722Y-36604475D02*
X103955817Y-36604475D01*
X103955817Y-36604475D02*
X104098674Y-36652094D01*
X104098674Y-36652094D02*
X104193912Y-36747332D01*
X104193912Y-36747332D02*
X104241531Y-36842570D01*
X104241531Y-36842570D02*
X104289150Y-37033046D01*
X104289150Y-37033046D02*
X104289150Y-37175903D01*
X104289150Y-37175903D02*
X104241531Y-37366379D01*
X104241531Y-37366379D02*
X104193912Y-37461617D01*
X104193912Y-37461617D02*
X104098674Y-37556856D01*
X104098674Y-37556856D02*
X103955817Y-37604475D01*
X103955817Y-37604475D02*
X103717722Y-37604475D01*
X104670103Y-37318760D02*
X105146293Y-37318760D01*
X104574865Y-37604475D02*
X104908198Y-36604475D01*
X104908198Y-36604475D02*
X105241531Y-37604475D01*
X106146293Y-37604475D02*
X105812960Y-37128284D01*
X105574865Y-37604475D02*
X105574865Y-36604475D01*
X105574865Y-36604475D02*
X105955817Y-36604475D01*
X105955817Y-36604475D02*
X106051055Y-36652094D01*
X106051055Y-36652094D02*
X106098674Y-36699713D01*
X106098674Y-36699713D02*
X106146293Y-36794951D01*
X106146293Y-36794951D02*
X106146293Y-36937808D01*
X106146293Y-36937808D02*
X106098674Y-37033046D01*
X106098674Y-37033046D02*
X106051055Y-37080665D01*
X106051055Y-37080665D02*
X105955817Y-37128284D01*
X105955817Y-37128284D02*
X105574865Y-37128284D01*
X107146293Y-37509236D02*
X107098674Y-37556856D01*
X107098674Y-37556856D02*
X106955817Y-37604475D01*
X106955817Y-37604475D02*
X106860579Y-37604475D01*
X106860579Y-37604475D02*
X106717722Y-37556856D01*
X106717722Y-37556856D02*
X106622484Y-37461617D01*
X106622484Y-37461617D02*
X106574865Y-37366379D01*
X106574865Y-37366379D02*
X106527246Y-37175903D01*
X106527246Y-37175903D02*
X106527246Y-37033046D01*
X106527246Y-37033046D02*
X106574865Y-36842570D01*
X106574865Y-36842570D02*
X106622484Y-36747332D01*
X106622484Y-36747332D02*
X106717722Y-36652094D01*
X106717722Y-36652094D02*
X106860579Y-36604475D01*
X106860579Y-36604475D02*
X106955817Y-36604475D01*
X106955817Y-36604475D02*
X107098674Y-36652094D01*
X107098674Y-36652094D02*
X107146293Y-36699713D01*
X108765341Y-36604475D02*
X108574865Y-36604475D01*
X108574865Y-36604475D02*
X108479627Y-36652094D01*
X108479627Y-36652094D02*
X108432008Y-36699713D01*
X108432008Y-36699713D02*
X108336770Y-36842570D01*
X108336770Y-36842570D02*
X108289151Y-37033046D01*
X108289151Y-37033046D02*
X108289151Y-37413998D01*
X108289151Y-37413998D02*
X108336770Y-37509236D01*
X108336770Y-37509236D02*
X108384389Y-37556856D01*
X108384389Y-37556856D02*
X108479627Y-37604475D01*
X108479627Y-37604475D02*
X108670103Y-37604475D01*
X108670103Y-37604475D02*
X108765341Y-37556856D01*
X108765341Y-37556856D02*
X108812960Y-37509236D01*
X108812960Y-37509236D02*
X108860579Y-37413998D01*
X108860579Y-37413998D02*
X108860579Y-37175903D01*
X108860579Y-37175903D02*
X108812960Y-37080665D01*
X108812960Y-37080665D02*
X108765341Y-37033046D01*
X108765341Y-37033046D02*
X108670103Y-36985427D01*
X108670103Y-36985427D02*
X108479627Y-36985427D01*
X108479627Y-36985427D02*
X108384389Y-37033046D01*
X108384389Y-37033046D02*
X108336770Y-37080665D01*
X108336770Y-37080665D02*
X108289151Y-37175903D01*
X109955818Y-36937808D02*
X110146294Y-37604475D01*
X110146294Y-37604475D02*
X110336770Y-37128284D01*
X110336770Y-37128284D02*
X110527246Y-37604475D01*
X110527246Y-37604475D02*
X110717722Y-36937808D01*
X111527246Y-37604475D02*
X111527246Y-37080665D01*
X111527246Y-37080665D02*
X111479627Y-36985427D01*
X111479627Y-36985427D02*
X111384389Y-36937808D01*
X111384389Y-36937808D02*
X111193913Y-36937808D01*
X111193913Y-36937808D02*
X111098675Y-36985427D01*
X111527246Y-37556856D02*
X111432008Y-37604475D01*
X111432008Y-37604475D02*
X111193913Y-37604475D01*
X111193913Y-37604475D02*
X111098675Y-37556856D01*
X111098675Y-37556856D02*
X111051056Y-37461617D01*
X111051056Y-37461617D02*
X111051056Y-37366379D01*
X111051056Y-37366379D02*
X111098675Y-37271141D01*
X111098675Y-37271141D02*
X111193913Y-37223522D01*
X111193913Y-37223522D02*
X111432008Y-37223522D01*
X111432008Y-37223522D02*
X111527246Y-37175903D01*
X111908199Y-36937808D02*
X112146294Y-37604475D01*
X112384389Y-36937808D02*
X112146294Y-37604475D01*
X112146294Y-37604475D02*
X112051056Y-37842570D01*
X112051056Y-37842570D02*
X112003437Y-37890189D01*
X112003437Y-37890189D02*
X111908199Y-37937808D01*
X113384390Y-36937808D02*
X113765342Y-36937808D01*
X113527247Y-37604475D02*
X113527247Y-36747332D01*
X113527247Y-36747332D02*
X113574866Y-36652094D01*
X113574866Y-36652094D02*
X113670104Y-36604475D01*
X113670104Y-36604475D02*
X113765342Y-36604475D01*
X114527247Y-36937808D02*
X114527247Y-37604475D01*
X114098676Y-36937808D02*
X114098676Y-37461617D01*
X114098676Y-37461617D02*
X114146295Y-37556856D01*
X114146295Y-37556856D02*
X114241533Y-37604475D01*
X114241533Y-37604475D02*
X114384390Y-37604475D01*
X114384390Y-37604475D02*
X114479628Y-37556856D01*
X114479628Y-37556856D02*
X114527247Y-37509236D01*
X114955819Y-37556856D02*
X115051057Y-37604475D01*
X115051057Y-37604475D02*
X115241533Y-37604475D01*
X115241533Y-37604475D02*
X115336771Y-37556856D01*
X115336771Y-37556856D02*
X115384390Y-37461617D01*
X115384390Y-37461617D02*
X115384390Y-37413998D01*
X115384390Y-37413998D02*
X115336771Y-37318760D01*
X115336771Y-37318760D02*
X115241533Y-37271141D01*
X115241533Y-37271141D02*
X115098676Y-37271141D01*
X115098676Y-37271141D02*
X115003438Y-37223522D01*
X115003438Y-37223522D02*
X114955819Y-37128284D01*
X114955819Y-37128284D02*
X114955819Y-37080665D01*
X114955819Y-37080665D02*
X115003438Y-36985427D01*
X115003438Y-36985427D02*
X115098676Y-36937808D01*
X115098676Y-36937808D02*
X115241533Y-36937808D01*
X115241533Y-36937808D02*
X115336771Y-36985427D01*
X116193914Y-37556856D02*
X116098676Y-37604475D01*
X116098676Y-37604475D02*
X115908200Y-37604475D01*
X115908200Y-37604475D02*
X115812962Y-37556856D01*
X115812962Y-37556856D02*
X115765343Y-37461617D01*
X115765343Y-37461617D02*
X115765343Y-37080665D01*
X115765343Y-37080665D02*
X115812962Y-36985427D01*
X115812962Y-36985427D02*
X115908200Y-36937808D01*
X115908200Y-36937808D02*
X116098676Y-36937808D01*
X116098676Y-36937808D02*
X116193914Y-36985427D01*
X116193914Y-36985427D02*
X116241533Y-37080665D01*
X116241533Y-37080665D02*
X116241533Y-37175903D01*
X116241533Y-37175903D02*
X115765343Y-37271141D01*
X117098676Y-37604475D02*
X117098676Y-36604475D01*
X117098676Y-37556856D02*
X117003438Y-37604475D01*
X117003438Y-37604475D02*
X116812962Y-37604475D01*
X116812962Y-37604475D02*
X116717724Y-37556856D01*
X116717724Y-37556856D02*
X116670105Y-37509236D01*
X116670105Y-37509236D02*
X116622486Y-37413998D01*
X116622486Y-37413998D02*
X116622486Y-37128284D01*
X116622486Y-37128284D02*
X116670105Y-37033046D01*
X116670105Y-37033046D02*
X116717724Y-36985427D01*
X116717724Y-36985427D02*
X116812962Y-36937808D01*
X116812962Y-36937808D02*
X117003438Y-36937808D01*
X117003438Y-36937808D02*
X117098676Y-36985427D01*
X118336772Y-36937808D02*
X118336772Y-37937808D01*
X118336772Y-36985427D02*
X118432010Y-36937808D01*
X118432010Y-36937808D02*
X118622486Y-36937808D01*
X118622486Y-36937808D02*
X118717724Y-36985427D01*
X118717724Y-36985427D02*
X118765343Y-37033046D01*
X118765343Y-37033046D02*
X118812962Y-37128284D01*
X118812962Y-37128284D02*
X118812962Y-37413998D01*
X118812962Y-37413998D02*
X118765343Y-37509236D01*
X118765343Y-37509236D02*
X118717724Y-37556856D01*
X118717724Y-37556856D02*
X118622486Y-37604475D01*
X118622486Y-37604475D02*
X118432010Y-37604475D01*
X118432010Y-37604475D02*
X118336772Y-37556856D01*
X119384391Y-37604475D02*
X119289153Y-37556856D01*
X119289153Y-37556856D02*
X119241534Y-37509236D01*
X119241534Y-37509236D02*
X119193915Y-37413998D01*
X119193915Y-37413998D02*
X119193915Y-37128284D01*
X119193915Y-37128284D02*
X119241534Y-37033046D01*
X119241534Y-37033046D02*
X119289153Y-36985427D01*
X119289153Y-36985427D02*
X119384391Y-36937808D01*
X119384391Y-36937808D02*
X119527248Y-36937808D01*
X119527248Y-36937808D02*
X119622486Y-36985427D01*
X119622486Y-36985427D02*
X119670105Y-37033046D01*
X119670105Y-37033046D02*
X119717724Y-37128284D01*
X119717724Y-37128284D02*
X119717724Y-37413998D01*
X119717724Y-37413998D02*
X119670105Y-37509236D01*
X119670105Y-37509236D02*
X119622486Y-37556856D01*
X119622486Y-37556856D02*
X119527248Y-37604475D01*
X119527248Y-37604475D02*
X119384391Y-37604475D01*
X120051058Y-36937808D02*
X120241534Y-37604475D01*
X120241534Y-37604475D02*
X120432010Y-37128284D01*
X120432010Y-37128284D02*
X120622486Y-37604475D01*
X120622486Y-37604475D02*
X120812962Y-36937808D01*
X121574867Y-37556856D02*
X121479629Y-37604475D01*
X121479629Y-37604475D02*
X121289153Y-37604475D01*
X121289153Y-37604475D02*
X121193915Y-37556856D01*
X121193915Y-37556856D02*
X121146296Y-37461617D01*
X121146296Y-37461617D02*
X121146296Y-37080665D01*
X121146296Y-37080665D02*
X121193915Y-36985427D01*
X121193915Y-36985427D02*
X121289153Y-36937808D01*
X121289153Y-36937808D02*
X121479629Y-36937808D01*
X121479629Y-36937808D02*
X121574867Y-36985427D01*
X121574867Y-36985427D02*
X121622486Y-37080665D01*
X121622486Y-37080665D02*
X121622486Y-37175903D01*
X121622486Y-37175903D02*
X121146296Y-37271141D01*
X122051058Y-37604475D02*
X122051058Y-36937808D01*
X122051058Y-37128284D02*
X122098677Y-37033046D01*
X122098677Y-37033046D02*
X122146296Y-36985427D01*
X122146296Y-36985427D02*
X122241534Y-36937808D01*
X122241534Y-36937808D02*
X122336772Y-36937808D01*
X122670106Y-36937808D02*
X122670106Y-37937808D01*
X122670106Y-36985427D02*
X122765344Y-36937808D01*
X122765344Y-36937808D02*
X122955820Y-36937808D01*
X122955820Y-36937808D02*
X123051058Y-36985427D01*
X123051058Y-36985427D02*
X123098677Y-37033046D01*
X123098677Y-37033046D02*
X123146296Y-37128284D01*
X123146296Y-37128284D02*
X123146296Y-37413998D01*
X123146296Y-37413998D02*
X123098677Y-37509236D01*
X123098677Y-37509236D02*
X123051058Y-37556856D01*
X123051058Y-37556856D02*
X122955820Y-37604475D01*
X122955820Y-37604475D02*
X122765344Y-37604475D01*
X122765344Y-37604475D02*
X122670106Y-37556856D01*
X123717725Y-37604475D02*
X123622487Y-37556856D01*
X123622487Y-37556856D02*
X123574868Y-37509236D01*
X123574868Y-37509236D02*
X123527249Y-37413998D01*
X123527249Y-37413998D02*
X123527249Y-37128284D01*
X123527249Y-37128284D02*
X123574868Y-37033046D01*
X123574868Y-37033046D02*
X123622487Y-36985427D01*
X123622487Y-36985427D02*
X123717725Y-36937808D01*
X123717725Y-36937808D02*
X123860582Y-36937808D01*
X123860582Y-36937808D02*
X123955820Y-36985427D01*
X123955820Y-36985427D02*
X124003439Y-37033046D01*
X124003439Y-37033046D02*
X124051058Y-37128284D01*
X124051058Y-37128284D02*
X124051058Y-37413998D01*
X124051058Y-37413998D02*
X124003439Y-37509236D01*
X124003439Y-37509236D02*
X123955820Y-37556856D01*
X123955820Y-37556856D02*
X123860582Y-37604475D01*
X123860582Y-37604475D02*
X123717725Y-37604475D01*
X124622487Y-37604475D02*
X124527249Y-37556856D01*
X124527249Y-37556856D02*
X124479630Y-37461617D01*
X124479630Y-37461617D02*
X124479630Y-36604475D01*
X125384392Y-37556856D02*
X125289154Y-37604475D01*
X125289154Y-37604475D02*
X125098678Y-37604475D01*
X125098678Y-37604475D02*
X125003440Y-37556856D01*
X125003440Y-37556856D02*
X124955821Y-37461617D01*
X124955821Y-37461617D02*
X124955821Y-37080665D01*
X124955821Y-37080665D02*
X125003440Y-36985427D01*
X125003440Y-36985427D02*
X125098678Y-36937808D01*
X125098678Y-36937808D02*
X125289154Y-36937808D01*
X125289154Y-36937808D02*
X125384392Y-36985427D01*
X125384392Y-36985427D02*
X125432011Y-37080665D01*
X125432011Y-37080665D02*
X125432011Y-37175903D01*
X125432011Y-37175903D02*
X124955821Y-37271141D01*
X101860579Y-39214419D02*
X101860579Y-38214419D01*
X102289150Y-39214419D02*
X102289150Y-38690609D01*
X102289150Y-38690609D02*
X102241531Y-38595371D01*
X102241531Y-38595371D02*
X102146293Y-38547752D01*
X102146293Y-38547752D02*
X102003436Y-38547752D01*
X102003436Y-38547752D02*
X101908198Y-38595371D01*
X101908198Y-38595371D02*
X101860579Y-38642990D01*
X102622484Y-38547752D02*
X103003436Y-38547752D01*
X102765341Y-38214419D02*
X102765341Y-39071561D01*
X102765341Y-39071561D02*
X102812960Y-39166800D01*
X102812960Y-39166800D02*
X102908198Y-39214419D01*
X102908198Y-39214419D02*
X103003436Y-39214419D01*
X103193913Y-38547752D02*
X103574865Y-38547752D01*
X103336770Y-38214419D02*
X103336770Y-39071561D01*
X103336770Y-39071561D02*
X103384389Y-39166800D01*
X103384389Y-39166800D02*
X103479627Y-39214419D01*
X103479627Y-39214419D02*
X103574865Y-39214419D01*
X103908199Y-38547752D02*
X103908199Y-39547752D01*
X103908199Y-38595371D02*
X104003437Y-38547752D01*
X104003437Y-38547752D02*
X104193913Y-38547752D01*
X104193913Y-38547752D02*
X104289151Y-38595371D01*
X104289151Y-38595371D02*
X104336770Y-38642990D01*
X104336770Y-38642990D02*
X104384389Y-38738228D01*
X104384389Y-38738228D02*
X104384389Y-39023942D01*
X104384389Y-39023942D02*
X104336770Y-39119180D01*
X104336770Y-39119180D02*
X104289151Y-39166800D01*
X104289151Y-39166800D02*
X104193913Y-39214419D01*
X104193913Y-39214419D02*
X104003437Y-39214419D01*
X104003437Y-39214419D02*
X103908199Y-39166800D01*
X104765342Y-39166800D02*
X104860580Y-39214419D01*
X104860580Y-39214419D02*
X105051056Y-39214419D01*
X105051056Y-39214419D02*
X105146294Y-39166800D01*
X105146294Y-39166800D02*
X105193913Y-39071561D01*
X105193913Y-39071561D02*
X105193913Y-39023942D01*
X105193913Y-39023942D02*
X105146294Y-38928704D01*
X105146294Y-38928704D02*
X105051056Y-38881085D01*
X105051056Y-38881085D02*
X104908199Y-38881085D01*
X104908199Y-38881085D02*
X104812961Y-38833466D01*
X104812961Y-38833466D02*
X104765342Y-38738228D01*
X104765342Y-38738228D02*
X104765342Y-38690609D01*
X104765342Y-38690609D02*
X104812961Y-38595371D01*
X104812961Y-38595371D02*
X104908199Y-38547752D01*
X104908199Y-38547752D02*
X105051056Y-38547752D01*
X105051056Y-38547752D02*
X105146294Y-38595371D01*
X105622485Y-39119180D02*
X105670104Y-39166800D01*
X105670104Y-39166800D02*
X105622485Y-39214419D01*
X105622485Y-39214419D02*
X105574866Y-39166800D01*
X105574866Y-39166800D02*
X105622485Y-39119180D01*
X105622485Y-39119180D02*
X105622485Y-39214419D01*
X105622485Y-38595371D02*
X105670104Y-38642990D01*
X105670104Y-38642990D02*
X105622485Y-38690609D01*
X105622485Y-38690609D02*
X105574866Y-38642990D01*
X105574866Y-38642990D02*
X105622485Y-38595371D01*
X105622485Y-38595371D02*
X105622485Y-38690609D01*
X106812960Y-38166800D02*
X105955818Y-39452514D01*
X107860579Y-38166800D02*
X107003437Y-39452514D01*
X108193913Y-39214419D02*
X108193913Y-38214419D01*
X108193913Y-38595371D02*
X108289151Y-38547752D01*
X108289151Y-38547752D02*
X108479627Y-38547752D01*
X108479627Y-38547752D02*
X108574865Y-38595371D01*
X108574865Y-38595371D02*
X108622484Y-38642990D01*
X108622484Y-38642990D02*
X108670103Y-38738228D01*
X108670103Y-38738228D02*
X108670103Y-39023942D01*
X108670103Y-39023942D02*
X108622484Y-39119180D01*
X108622484Y-39119180D02*
X108574865Y-39166800D01*
X108574865Y-39166800D02*
X108479627Y-39214419D01*
X108479627Y-39214419D02*
X108289151Y-39214419D01*
X108289151Y-39214419D02*
X108193913Y-39166800D01*
X109098675Y-39214419D02*
X109098675Y-38547752D01*
X109098675Y-38214419D02*
X109051056Y-38262038D01*
X109051056Y-38262038D02*
X109098675Y-38309657D01*
X109098675Y-38309657D02*
X109146294Y-38262038D01*
X109146294Y-38262038D02*
X109098675Y-38214419D01*
X109098675Y-38214419D02*
X109098675Y-38309657D01*
X109432008Y-38547752D02*
X109812960Y-38547752D01*
X109574865Y-38214419D02*
X109574865Y-39071561D01*
X109574865Y-39071561D02*
X109622484Y-39166800D01*
X109622484Y-39166800D02*
X109717722Y-39214419D01*
X109717722Y-39214419D02*
X109812960Y-39214419D01*
X110146294Y-39119180D02*
X110193913Y-39166800D01*
X110193913Y-39166800D02*
X110146294Y-39214419D01*
X110146294Y-39214419D02*
X110098675Y-39166800D01*
X110098675Y-39166800D02*
X110146294Y-39119180D01*
X110146294Y-39119180D02*
X110146294Y-39214419D01*
X110765341Y-39214419D02*
X110670103Y-39166800D01*
X110670103Y-39166800D02*
X110622484Y-39071561D01*
X110622484Y-39071561D02*
X110622484Y-38214419D01*
X111051056Y-38547752D02*
X111289151Y-39214419D01*
X111527246Y-38547752D02*
X111289151Y-39214419D01*
X111289151Y-39214419D02*
X111193913Y-39452514D01*
X111193913Y-39452514D02*
X111146294Y-39500133D01*
X111146294Y-39500133D02*
X111051056Y-39547752D01*
X112622484Y-38166800D02*
X111765342Y-39452514D01*
X113384389Y-38547752D02*
X113384389Y-39214419D01*
X113146294Y-38166800D02*
X112908199Y-38881085D01*
X112908199Y-38881085D02*
X113527246Y-38881085D01*
X113908199Y-39214419D02*
X113908199Y-38214419D01*
X114336770Y-39214419D02*
X114336770Y-38690609D01*
X114336770Y-38690609D02*
X114289151Y-38595371D01*
X114289151Y-38595371D02*
X114193913Y-38547752D01*
X114193913Y-38547752D02*
X114051056Y-38547752D01*
X114051056Y-38547752D02*
X113955818Y-38595371D01*
X113955818Y-38595371D02*
X113908199Y-38642990D01*
X114812961Y-39214419D02*
X114812961Y-38214419D01*
X114812961Y-38214419D02*
X115146294Y-38928704D01*
X115146294Y-38928704D02*
X115479627Y-38214419D01*
X115479627Y-38214419D02*
X115479627Y-39214419D01*
X115955818Y-39214419D02*
X115955818Y-38214419D01*
X116384389Y-39214419D02*
X116384389Y-38690609D01*
X116384389Y-38690609D02*
X116336770Y-38595371D01*
X116336770Y-38595371D02*
X116241532Y-38547752D01*
X116241532Y-38547752D02*
X116098675Y-38547752D01*
X116098675Y-38547752D02*
X116003437Y-38595371D01*
X116003437Y-38595371D02*
X115955818Y-38642990D01*
X117003437Y-39214419D02*
X116908199Y-39166800D01*
X116908199Y-39166800D02*
X116860580Y-39071561D01*
X116860580Y-39071561D02*
X116860580Y-38214419D01*
X117384390Y-39214419D02*
X117384390Y-38214419D01*
X117384390Y-38595371D02*
X117479628Y-38547752D01*
X117479628Y-38547752D02*
X117670104Y-38547752D01*
X117670104Y-38547752D02*
X117765342Y-38595371D01*
X117765342Y-38595371D02*
X117812961Y-38642990D01*
X117812961Y-38642990D02*
X117860580Y-38738228D01*
X117860580Y-38738228D02*
X117860580Y-39023942D01*
X117860580Y-39023942D02*
X117812961Y-39119180D01*
X117812961Y-39119180D02*
X117765342Y-39166800D01*
X117765342Y-39166800D02*
X117670104Y-39214419D01*
X117670104Y-39214419D02*
X117479628Y-39214419D01*
X117479628Y-39214419D02*
X117384390Y-39166800D01*
X118717723Y-38547752D02*
X118717723Y-39547752D01*
X118717723Y-39166800D02*
X118622485Y-39214419D01*
X118622485Y-39214419D02*
X118432009Y-39214419D01*
X118432009Y-39214419D02*
X118336771Y-39166800D01*
X118336771Y-39166800D02*
X118289152Y-39119180D01*
X118289152Y-39119180D02*
X118241533Y-39023942D01*
X118241533Y-39023942D02*
X118241533Y-38738228D01*
X118241533Y-38738228D02*
X118289152Y-38642990D01*
X118289152Y-38642990D02*
X118336771Y-38595371D01*
X118336771Y-38595371D02*
X118432009Y-38547752D01*
X118432009Y-38547752D02*
X118622485Y-38547752D01*
X118622485Y-38547752D02*
X118717723Y-38595371D01*
X85616905Y-47294819D02*
X85616905Y-46294819D01*
X85616905Y-46294819D02*
X85855000Y-46294819D01*
X85855000Y-46294819D02*
X85997857Y-46342438D01*
X85997857Y-46342438D02*
X86093095Y-46437676D01*
X86093095Y-46437676D02*
X86140714Y-46532914D01*
X86140714Y-46532914D02*
X86188333Y-46723390D01*
X86188333Y-46723390D02*
X86188333Y-46866247D01*
X86188333Y-46866247D02*
X86140714Y-47056723D01*
X86140714Y-47056723D02*
X86093095Y-47151961D01*
X86093095Y-47151961D02*
X85997857Y-47247200D01*
X85997857Y-47247200D02*
X85855000Y-47294819D01*
X85855000Y-47294819D02*
X85616905Y-47294819D01*
X86521667Y-46294819D02*
X87140714Y-46294819D01*
X87140714Y-46294819D02*
X86807381Y-46675771D01*
X86807381Y-46675771D02*
X86950238Y-46675771D01*
X86950238Y-46675771D02*
X87045476Y-46723390D01*
X87045476Y-46723390D02*
X87093095Y-46771009D01*
X87093095Y-46771009D02*
X87140714Y-46866247D01*
X87140714Y-46866247D02*
X87140714Y-47104342D01*
X87140714Y-47104342D02*
X87093095Y-47199580D01*
X87093095Y-47199580D02*
X87045476Y-47247200D01*
X87045476Y-47247200D02*
X86950238Y-47294819D01*
X86950238Y-47294819D02*
X86664524Y-47294819D01*
X86664524Y-47294819D02*
X86569286Y-47247200D01*
X86569286Y-47247200D02*
X86521667Y-47199580D01*
X91910819Y-91874333D02*
X92625104Y-91874333D01*
X92625104Y-91874333D02*
X92767961Y-91921952D01*
X92767961Y-91921952D02*
X92863200Y-92017190D01*
X92863200Y-92017190D02*
X92910819Y-92160047D01*
X92910819Y-92160047D02*
X92910819Y-92255285D01*
X91910819Y-91493380D02*
X91910819Y-90874333D01*
X91910819Y-90874333D02*
X92291771Y-91207666D01*
X92291771Y-91207666D02*
X92291771Y-91064809D01*
X92291771Y-91064809D02*
X92339390Y-90969571D01*
X92339390Y-90969571D02*
X92387009Y-90921952D01*
X92387009Y-90921952D02*
X92482247Y-90874333D01*
X92482247Y-90874333D02*
X92720342Y-90874333D01*
X92720342Y-90874333D02*
X92815580Y-90921952D01*
X92815580Y-90921952D02*
X92863200Y-90969571D01*
X92863200Y-90969571D02*
X92910819Y-91064809D01*
X92910819Y-91064809D02*
X92910819Y-91350523D01*
X92910819Y-91350523D02*
X92863200Y-91445761D01*
X92863200Y-91445761D02*
X92815580Y-91493380D01*
X82369866Y-84682951D02*
X82369866Y-83921047D01*
X82750819Y-84301999D02*
X81988914Y-84301999D01*
X99840905Y-47294819D02*
X99840905Y-46294819D01*
X99840905Y-46294819D02*
X100079000Y-46294819D01*
X100079000Y-46294819D02*
X100221857Y-46342438D01*
X100221857Y-46342438D02*
X100317095Y-46437676D01*
X100317095Y-46437676D02*
X100364714Y-46532914D01*
X100364714Y-46532914D02*
X100412333Y-46723390D01*
X100412333Y-46723390D02*
X100412333Y-46866247D01*
X100412333Y-46866247D02*
X100364714Y-47056723D01*
X100364714Y-47056723D02*
X100317095Y-47151961D01*
X100317095Y-47151961D02*
X100221857Y-47247200D01*
X100221857Y-47247200D02*
X100079000Y-47294819D01*
X100079000Y-47294819D02*
X99840905Y-47294819D01*
X101269476Y-46628152D02*
X101269476Y-47294819D01*
X101031381Y-46247200D02*
X100793286Y-46961485D01*
X100793286Y-46961485D02*
X101412333Y-46961485D01*
X54887905Y-47294819D02*
X54887905Y-46294819D01*
X54887905Y-46294819D02*
X55126000Y-46294819D01*
X55126000Y-46294819D02*
X55268857Y-46342438D01*
X55268857Y-46342438D02*
X55364095Y-46437676D01*
X55364095Y-46437676D02*
X55411714Y-46532914D01*
X55411714Y-46532914D02*
X55459333Y-46723390D01*
X55459333Y-46723390D02*
X55459333Y-46866247D01*
X55459333Y-46866247D02*
X55411714Y-47056723D01*
X55411714Y-47056723D02*
X55364095Y-47151961D01*
X55364095Y-47151961D02*
X55268857Y-47247200D01*
X55268857Y-47247200D02*
X55126000Y-47294819D01*
X55126000Y-47294819D02*
X54887905Y-47294819D01*
X56411714Y-47294819D02*
X55840286Y-47294819D01*
X56126000Y-47294819D02*
X56126000Y-46294819D01*
X56126000Y-46294819D02*
X56030762Y-46437676D01*
X56030762Y-46437676D02*
X55935524Y-46532914D01*
X55935524Y-46532914D02*
X55840286Y-46580533D01*
X115847905Y-47294819D02*
X115847905Y-46294819D01*
X115847905Y-46294819D02*
X116086000Y-46294819D01*
X116086000Y-46294819D02*
X116228857Y-46342438D01*
X116228857Y-46342438D02*
X116324095Y-46437676D01*
X116324095Y-46437676D02*
X116371714Y-46532914D01*
X116371714Y-46532914D02*
X116419333Y-46723390D01*
X116419333Y-46723390D02*
X116419333Y-46866247D01*
X116419333Y-46866247D02*
X116371714Y-47056723D01*
X116371714Y-47056723D02*
X116324095Y-47151961D01*
X116324095Y-47151961D02*
X116228857Y-47247200D01*
X116228857Y-47247200D02*
X116086000Y-47294819D01*
X116086000Y-47294819D02*
X115847905Y-47294819D01*
X117324095Y-46294819D02*
X116847905Y-46294819D01*
X116847905Y-46294819D02*
X116800286Y-46771009D01*
X116800286Y-46771009D02*
X116847905Y-46723390D01*
X116847905Y-46723390D02*
X116943143Y-46675771D01*
X116943143Y-46675771D02*
X117181238Y-46675771D01*
X117181238Y-46675771D02*
X117276476Y-46723390D01*
X117276476Y-46723390D02*
X117324095Y-46771009D01*
X117324095Y-46771009D02*
X117371714Y-46866247D01*
X117371714Y-46866247D02*
X117371714Y-47104342D01*
X117371714Y-47104342D02*
X117324095Y-47199580D01*
X117324095Y-47199580D02*
X117276476Y-47247200D01*
X117276476Y-47247200D02*
X117181238Y-47294819D01*
X117181238Y-47294819D02*
X116943143Y-47294819D01*
X116943143Y-47294819D02*
X116847905Y-47247200D01*
X116847905Y-47247200D02*
X116800286Y-47199580D01*
X76670819Y-91874333D02*
X77385104Y-91874333D01*
X77385104Y-91874333D02*
X77527961Y-91921952D01*
X77527961Y-91921952D02*
X77623200Y-92017190D01*
X77623200Y-92017190D02*
X77670819Y-92160047D01*
X77670819Y-92160047D02*
X77670819Y-92255285D01*
X76766057Y-91445761D02*
X76718438Y-91398142D01*
X76718438Y-91398142D02*
X76670819Y-91302904D01*
X76670819Y-91302904D02*
X76670819Y-91064809D01*
X76670819Y-91064809D02*
X76718438Y-90969571D01*
X76718438Y-90969571D02*
X76766057Y-90921952D01*
X76766057Y-90921952D02*
X76861295Y-90874333D01*
X76861295Y-90874333D02*
X76956533Y-90874333D01*
X76956533Y-90874333D02*
X77099390Y-90921952D01*
X77099390Y-90921952D02*
X77670819Y-91493380D01*
X77670819Y-91493380D02*
X77670819Y-90874333D01*
X67129866Y-84682951D02*
X67129866Y-83921047D01*
X67510819Y-84301999D02*
X66748914Y-84301999D01*
X66324819Y-50712666D02*
X65848628Y-51045999D01*
X66324819Y-51284094D02*
X65324819Y-51284094D01*
X65324819Y-51284094D02*
X65324819Y-50903142D01*
X65324819Y-50903142D02*
X65372438Y-50807904D01*
X65372438Y-50807904D02*
X65420057Y-50760285D01*
X65420057Y-50760285D02*
X65515295Y-50712666D01*
X65515295Y-50712666D02*
X65658152Y-50712666D01*
X65658152Y-50712666D02*
X65753390Y-50760285D01*
X65753390Y-50760285D02*
X65801009Y-50807904D01*
X65801009Y-50807904D02*
X65848628Y-50903142D01*
X65848628Y-50903142D02*
X65848628Y-51284094D01*
X66324819Y-49760285D02*
X66324819Y-50331713D01*
X66324819Y-50045999D02*
X65324819Y-50045999D01*
X65324819Y-50045999D02*
X65467676Y-50141237D01*
X65467676Y-50141237D02*
X65562914Y-50236475D01*
X65562914Y-50236475D02*
X65610533Y-50331713D01*
X130579905Y-47294819D02*
X130579905Y-46294819D01*
X130579905Y-46294819D02*
X130818000Y-46294819D01*
X130818000Y-46294819D02*
X130960857Y-46342438D01*
X130960857Y-46342438D02*
X131056095Y-46437676D01*
X131056095Y-46437676D02*
X131103714Y-46532914D01*
X131103714Y-46532914D02*
X131151333Y-46723390D01*
X131151333Y-46723390D02*
X131151333Y-46866247D01*
X131151333Y-46866247D02*
X131103714Y-47056723D01*
X131103714Y-47056723D02*
X131056095Y-47151961D01*
X131056095Y-47151961D02*
X130960857Y-47247200D01*
X130960857Y-47247200D02*
X130818000Y-47294819D01*
X130818000Y-47294819D02*
X130579905Y-47294819D01*
X132008476Y-46294819D02*
X131818000Y-46294819D01*
X131818000Y-46294819D02*
X131722762Y-46342438D01*
X131722762Y-46342438D02*
X131675143Y-46390057D01*
X131675143Y-46390057D02*
X131579905Y-46532914D01*
X131579905Y-46532914D02*
X131532286Y-46723390D01*
X131532286Y-46723390D02*
X131532286Y-47104342D01*
X131532286Y-47104342D02*
X131579905Y-47199580D01*
X131579905Y-47199580D02*
X131627524Y-47247200D01*
X131627524Y-47247200D02*
X131722762Y-47294819D01*
X131722762Y-47294819D02*
X131913238Y-47294819D01*
X131913238Y-47294819D02*
X132008476Y-47247200D01*
X132008476Y-47247200D02*
X132056095Y-47199580D01*
X132056095Y-47199580D02*
X132103714Y-47104342D01*
X132103714Y-47104342D02*
X132103714Y-46866247D01*
X132103714Y-46866247D02*
X132056095Y-46771009D01*
X132056095Y-46771009D02*
X132008476Y-46723390D01*
X132008476Y-46723390D02*
X131913238Y-46675771D01*
X131913238Y-46675771D02*
X131722762Y-46675771D01*
X131722762Y-46675771D02*
X131627524Y-46723390D01*
X131627524Y-46723390D02*
X131579905Y-46771009D01*
X131579905Y-46771009D02*
X131532286Y-46866247D01*
X122544819Y-50712666D02*
X122068628Y-51045999D01*
X122544819Y-51284094D02*
X121544819Y-51284094D01*
X121544819Y-51284094D02*
X121544819Y-50903142D01*
X121544819Y-50903142D02*
X121592438Y-50807904D01*
X121592438Y-50807904D02*
X121640057Y-50760285D01*
X121640057Y-50760285D02*
X121735295Y-50712666D01*
X121735295Y-50712666D02*
X121878152Y-50712666D01*
X121878152Y-50712666D02*
X121973390Y-50760285D01*
X121973390Y-50760285D02*
X122021009Y-50807904D01*
X122021009Y-50807904D02*
X122068628Y-50903142D01*
X122068628Y-50903142D02*
X122068628Y-51284094D01*
X121544819Y-49807904D02*
X121544819Y-50284094D01*
X121544819Y-50284094D02*
X122021009Y-50331713D01*
X122021009Y-50331713D02*
X121973390Y-50284094D01*
X121973390Y-50284094D02*
X121925771Y-50188856D01*
X121925771Y-50188856D02*
X121925771Y-49950761D01*
X121925771Y-49950761D02*
X121973390Y-49855523D01*
X121973390Y-49855523D02*
X122021009Y-49807904D01*
X122021009Y-49807904D02*
X122116247Y-49760285D01*
X122116247Y-49760285D02*
X122354342Y-49760285D01*
X122354342Y-49760285D02*
X122449580Y-49807904D01*
X122449580Y-49807904D02*
X122497200Y-49855523D01*
X122497200Y-49855523D02*
X122544819Y-49950761D01*
X122544819Y-49950761D02*
X122544819Y-50188856D01*
X122544819Y-50188856D02*
X122497200Y-50284094D01*
X122497200Y-50284094D02*
X122449580Y-50331713D01*
X76316819Y-50712666D02*
X75840628Y-51045999D01*
X76316819Y-51284094D02*
X75316819Y-51284094D01*
X75316819Y-51284094D02*
X75316819Y-50903142D01*
X75316819Y-50903142D02*
X75364438Y-50807904D01*
X75364438Y-50807904D02*
X75412057Y-50760285D01*
X75412057Y-50760285D02*
X75507295Y-50712666D01*
X75507295Y-50712666D02*
X75650152Y-50712666D01*
X75650152Y-50712666D02*
X75745390Y-50760285D01*
X75745390Y-50760285D02*
X75793009Y-50807904D01*
X75793009Y-50807904D02*
X75840628Y-50903142D01*
X75840628Y-50903142D02*
X75840628Y-51284094D01*
X75412057Y-50331713D02*
X75364438Y-50284094D01*
X75364438Y-50284094D02*
X75316819Y-50188856D01*
X75316819Y-50188856D02*
X75316819Y-49950761D01*
X75316819Y-49950761D02*
X75364438Y-49855523D01*
X75364438Y-49855523D02*
X75412057Y-49807904D01*
X75412057Y-49807904D02*
X75507295Y-49760285D01*
X75507295Y-49760285D02*
X75602533Y-49760285D01*
X75602533Y-49760285D02*
X75745390Y-49807904D01*
X75745390Y-49807904D02*
X76316819Y-50379332D01*
X76316819Y-50379332D02*
X76316819Y-49760285D01*
D11*
X116575667Y-67781880D02*
X116152333Y-67781880D01*
X116152333Y-68447118D02*
X116152333Y-67177118D01*
X116152333Y-67177118D02*
X116757095Y-67177118D01*
X117845666Y-67177118D02*
X117240904Y-67177118D01*
X117240904Y-67177118D02*
X117180428Y-67781880D01*
X117180428Y-67781880D02*
X117240904Y-67721403D01*
X117240904Y-67721403D02*
X117361857Y-67660927D01*
X117361857Y-67660927D02*
X117664238Y-67660927D01*
X117664238Y-67660927D02*
X117785190Y-67721403D01*
X117785190Y-67721403D02*
X117845666Y-67781880D01*
X117845666Y-67781880D02*
X117906143Y-67902832D01*
X117906143Y-67902832D02*
X117906143Y-68205213D01*
X117906143Y-68205213D02*
X117845666Y-68326165D01*
X117845666Y-68326165D02*
X117785190Y-68386642D01*
X117785190Y-68386642D02*
X117664238Y-68447118D01*
X117664238Y-68447118D02*
X117361857Y-68447118D01*
X117361857Y-68447118D02*
X117240904Y-68386642D01*
X117240904Y-68386642D02*
X117180428Y-68326165D01*
D10*
X91556819Y-50712666D02*
X91080628Y-51045999D01*
X91556819Y-51284094D02*
X90556819Y-51284094D01*
X90556819Y-51284094D02*
X90556819Y-50903142D01*
X90556819Y-50903142D02*
X90604438Y-50807904D01*
X90604438Y-50807904D02*
X90652057Y-50760285D01*
X90652057Y-50760285D02*
X90747295Y-50712666D01*
X90747295Y-50712666D02*
X90890152Y-50712666D01*
X90890152Y-50712666D02*
X90985390Y-50760285D01*
X90985390Y-50760285D02*
X91033009Y-50807904D01*
X91033009Y-50807904D02*
X91080628Y-50903142D01*
X91080628Y-50903142D02*
X91080628Y-51284094D01*
X90556819Y-50379332D02*
X90556819Y-49760285D01*
X90556819Y-49760285D02*
X90937771Y-50093618D01*
X90937771Y-50093618D02*
X90937771Y-49950761D01*
X90937771Y-49950761D02*
X90985390Y-49855523D01*
X90985390Y-49855523D02*
X91033009Y-49807904D01*
X91033009Y-49807904D02*
X91128247Y-49760285D01*
X91128247Y-49760285D02*
X91366342Y-49760285D01*
X91366342Y-49760285D02*
X91461580Y-49807904D01*
X91461580Y-49807904D02*
X91509200Y-49855523D01*
X91509200Y-49855523D02*
X91556819Y-49950761D01*
X91556819Y-49950761D02*
X91556819Y-50236475D01*
X91556819Y-50236475D02*
X91509200Y-50331713D01*
X91509200Y-50331713D02*
X91461580Y-50379332D01*
X137630819Y-91874333D02*
X138345104Y-91874333D01*
X138345104Y-91874333D02*
X138487961Y-91921952D01*
X138487961Y-91921952D02*
X138583200Y-92017190D01*
X138583200Y-92017190D02*
X138630819Y-92160047D01*
X138630819Y-92160047D02*
X138630819Y-92255285D01*
X137630819Y-90969571D02*
X137630819Y-91160047D01*
X137630819Y-91160047D02*
X137678438Y-91255285D01*
X137678438Y-91255285D02*
X137726057Y-91302904D01*
X137726057Y-91302904D02*
X137868914Y-91398142D01*
X137868914Y-91398142D02*
X138059390Y-91445761D01*
X138059390Y-91445761D02*
X138440342Y-91445761D01*
X138440342Y-91445761D02*
X138535580Y-91398142D01*
X138535580Y-91398142D02*
X138583200Y-91350523D01*
X138583200Y-91350523D02*
X138630819Y-91255285D01*
X138630819Y-91255285D02*
X138630819Y-91064809D01*
X138630819Y-91064809D02*
X138583200Y-90969571D01*
X138583200Y-90969571D02*
X138535580Y-90921952D01*
X138535580Y-90921952D02*
X138440342Y-90874333D01*
X138440342Y-90874333D02*
X138202247Y-90874333D01*
X138202247Y-90874333D02*
X138107009Y-90921952D01*
X138107009Y-90921952D02*
X138059390Y-90969571D01*
X138059390Y-90969571D02*
X138011771Y-91064809D01*
X138011771Y-91064809D02*
X138011771Y-91255285D01*
X138011771Y-91255285D02*
X138059390Y-91350523D01*
X138059390Y-91350523D02*
X138107009Y-91398142D01*
X138107009Y-91398142D02*
X138202247Y-91445761D01*
X128089866Y-84682951D02*
X128089866Y-83921047D01*
X128470819Y-84301999D02*
X127708914Y-84301999D01*
X107150819Y-91874333D02*
X107865104Y-91874333D01*
X107865104Y-91874333D02*
X108007961Y-91921952D01*
X108007961Y-91921952D02*
X108103200Y-92017190D01*
X108103200Y-92017190D02*
X108150819Y-92160047D01*
X108150819Y-92160047D02*
X108150819Y-92255285D01*
X107484152Y-90969571D02*
X108150819Y-90969571D01*
X107103200Y-91207666D02*
X107817485Y-91445761D01*
X107817485Y-91445761D02*
X107817485Y-90826714D01*
X97609866Y-84682951D02*
X97609866Y-83921047D01*
X97990819Y-84301999D02*
X97228914Y-84301999D01*
D11*
X70696667Y-67781880D02*
X70273333Y-67781880D01*
X70273333Y-68447118D02*
X70273333Y-67177118D01*
X70273333Y-67177118D02*
X70878095Y-67177118D01*
X71301428Y-67298070D02*
X71361904Y-67237594D01*
X71361904Y-67237594D02*
X71482857Y-67177118D01*
X71482857Y-67177118D02*
X71785238Y-67177118D01*
X71785238Y-67177118D02*
X71906190Y-67237594D01*
X71906190Y-67237594D02*
X71966666Y-67298070D01*
X71966666Y-67298070D02*
X72027143Y-67419022D01*
X72027143Y-67419022D02*
X72027143Y-67539975D01*
X72027143Y-67539975D02*
X71966666Y-67721403D01*
X71966666Y-67721403D02*
X71240952Y-68447118D01*
X71240952Y-68447118D02*
X72027143Y-68447118D01*
D10*
X106288819Y-50712666D02*
X105812628Y-51045999D01*
X106288819Y-51284094D02*
X105288819Y-51284094D01*
X105288819Y-51284094D02*
X105288819Y-50903142D01*
X105288819Y-50903142D02*
X105336438Y-50807904D01*
X105336438Y-50807904D02*
X105384057Y-50760285D01*
X105384057Y-50760285D02*
X105479295Y-50712666D01*
X105479295Y-50712666D02*
X105622152Y-50712666D01*
X105622152Y-50712666D02*
X105717390Y-50760285D01*
X105717390Y-50760285D02*
X105765009Y-50807904D01*
X105765009Y-50807904D02*
X105812628Y-50903142D01*
X105812628Y-50903142D02*
X105812628Y-51284094D01*
X105622152Y-49855523D02*
X106288819Y-49855523D01*
X105241200Y-50093618D02*
X105955485Y-50331713D01*
X105955485Y-50331713D02*
X105955485Y-49712666D01*
X70127905Y-47294819D02*
X70127905Y-46294819D01*
X70127905Y-46294819D02*
X70366000Y-46294819D01*
X70366000Y-46294819D02*
X70508857Y-46342438D01*
X70508857Y-46342438D02*
X70604095Y-46437676D01*
X70604095Y-46437676D02*
X70651714Y-46532914D01*
X70651714Y-46532914D02*
X70699333Y-46723390D01*
X70699333Y-46723390D02*
X70699333Y-46866247D01*
X70699333Y-46866247D02*
X70651714Y-47056723D01*
X70651714Y-47056723D02*
X70604095Y-47151961D01*
X70604095Y-47151961D02*
X70508857Y-47247200D01*
X70508857Y-47247200D02*
X70366000Y-47294819D01*
X70366000Y-47294819D02*
X70127905Y-47294819D01*
X71080286Y-46390057D02*
X71127905Y-46342438D01*
X71127905Y-46342438D02*
X71223143Y-46294819D01*
X71223143Y-46294819D02*
X71461238Y-46294819D01*
X71461238Y-46294819D02*
X71556476Y-46342438D01*
X71556476Y-46342438D02*
X71604095Y-46390057D01*
X71604095Y-46390057D02*
X71651714Y-46485295D01*
X71651714Y-46485295D02*
X71651714Y-46580533D01*
X71651714Y-46580533D02*
X71604095Y-46723390D01*
X71604095Y-46723390D02*
X71032667Y-47294819D01*
X71032667Y-47294819D02*
X71651714Y-47294819D01*
X137157619Y-49036266D02*
X136681428Y-49369599D01*
X137157619Y-49607694D02*
X136157619Y-49607694D01*
X136157619Y-49607694D02*
X136157619Y-49226742D01*
X136157619Y-49226742D02*
X136205238Y-49131504D01*
X136205238Y-49131504D02*
X136252857Y-49083885D01*
X136252857Y-49083885D02*
X136348095Y-49036266D01*
X136348095Y-49036266D02*
X136490952Y-49036266D01*
X136490952Y-49036266D02*
X136586190Y-49083885D01*
X136586190Y-49083885D02*
X136633809Y-49131504D01*
X136633809Y-49131504D02*
X136681428Y-49226742D01*
X136681428Y-49226742D02*
X136681428Y-49607694D01*
X136157619Y-48179123D02*
X136157619Y-48369599D01*
X136157619Y-48369599D02*
X136205238Y-48464837D01*
X136205238Y-48464837D02*
X136252857Y-48512456D01*
X136252857Y-48512456D02*
X136395714Y-48607694D01*
X136395714Y-48607694D02*
X136586190Y-48655313D01*
X136586190Y-48655313D02*
X136967142Y-48655313D01*
X136967142Y-48655313D02*
X137062380Y-48607694D01*
X137062380Y-48607694D02*
X137110000Y-48560075D01*
X137110000Y-48560075D02*
X137157619Y-48464837D01*
X137157619Y-48464837D02*
X137157619Y-48274361D01*
X137157619Y-48274361D02*
X137110000Y-48179123D01*
X137110000Y-48179123D02*
X137062380Y-48131504D01*
X137062380Y-48131504D02*
X136967142Y-48083885D01*
X136967142Y-48083885D02*
X136729047Y-48083885D01*
X136729047Y-48083885D02*
X136633809Y-48131504D01*
X136633809Y-48131504D02*
X136586190Y-48179123D01*
X136586190Y-48179123D02*
X136538571Y-48274361D01*
X136538571Y-48274361D02*
X136538571Y-48464837D01*
X136538571Y-48464837D02*
X136586190Y-48560075D01*
X136586190Y-48560075D02*
X136633809Y-48607694D01*
X136633809Y-48607694D02*
X136729047Y-48655313D01*
X61430819Y-91874333D02*
X62145104Y-91874333D01*
X62145104Y-91874333D02*
X62287961Y-91921952D01*
X62287961Y-91921952D02*
X62383200Y-92017190D01*
X62383200Y-92017190D02*
X62430819Y-92160047D01*
X62430819Y-92160047D02*
X62430819Y-92255285D01*
X62430819Y-90874333D02*
X62430819Y-91445761D01*
X62430819Y-91160047D02*
X61430819Y-91160047D01*
X61430819Y-91160047D02*
X61573676Y-91255285D01*
X61573676Y-91255285D02*
X61668914Y-91350523D01*
X61668914Y-91350523D02*
X61716533Y-91445761D01*
X51889866Y-84682951D02*
X51889866Y-83921047D01*
X52270819Y-84301999D02*
X51508914Y-84301999D01*
X122390819Y-91874333D02*
X123105104Y-91874333D01*
X123105104Y-91874333D02*
X123247961Y-91921952D01*
X123247961Y-91921952D02*
X123343200Y-92017190D01*
X123343200Y-92017190D02*
X123390819Y-92160047D01*
X123390819Y-92160047D02*
X123390819Y-92255285D01*
X122390819Y-90921952D02*
X122390819Y-91398142D01*
X122390819Y-91398142D02*
X122867009Y-91445761D01*
X122867009Y-91445761D02*
X122819390Y-91398142D01*
X122819390Y-91398142D02*
X122771771Y-91302904D01*
X122771771Y-91302904D02*
X122771771Y-91064809D01*
X122771771Y-91064809D02*
X122819390Y-90969571D01*
X122819390Y-90969571D02*
X122867009Y-90921952D01*
X122867009Y-90921952D02*
X122962247Y-90874333D01*
X122962247Y-90874333D02*
X123200342Y-90874333D01*
X123200342Y-90874333D02*
X123295580Y-90921952D01*
X123295580Y-90921952D02*
X123343200Y-90969571D01*
X123343200Y-90969571D02*
X123390819Y-91064809D01*
X123390819Y-91064809D02*
X123390819Y-91302904D01*
X123390819Y-91302904D02*
X123343200Y-91398142D01*
X123343200Y-91398142D02*
X123295580Y-91445761D01*
X112849866Y-84682951D02*
X112849866Y-83921047D01*
X113230819Y-84301999D02*
X112468914Y-84301999D01*
D11*
X85937167Y-67781880D02*
X85513833Y-67781880D01*
X85513833Y-68447118D02*
X85513833Y-67177118D01*
X85513833Y-67177118D02*
X86118595Y-67177118D01*
X86481452Y-67177118D02*
X87267643Y-67177118D01*
X87267643Y-67177118D02*
X86844309Y-67660927D01*
X86844309Y-67660927D02*
X87025738Y-67660927D01*
X87025738Y-67660927D02*
X87146690Y-67721403D01*
X87146690Y-67721403D02*
X87207166Y-67781880D01*
X87207166Y-67781880D02*
X87267643Y-67902832D01*
X87267643Y-67902832D02*
X87267643Y-68205213D01*
X87267643Y-68205213D02*
X87207166Y-68326165D01*
X87207166Y-68326165D02*
X87146690Y-68386642D01*
X87146690Y-68386642D02*
X87025738Y-68447118D01*
X87025738Y-68447118D02*
X86662881Y-68447118D01*
X86662881Y-68447118D02*
X86541928Y-68386642D01*
X86541928Y-68386642D02*
X86481452Y-68326165D01*
X101313367Y-67781880D02*
X100890033Y-67781880D01*
X100890033Y-68447118D02*
X100890033Y-67177118D01*
X100890033Y-67177118D02*
X101494795Y-67177118D01*
X102522890Y-67600451D02*
X102522890Y-68447118D01*
X102220509Y-67116642D02*
X101918128Y-68023784D01*
X101918128Y-68023784D02*
X102704319Y-68023784D01*
X131815667Y-67781880D02*
X131392333Y-67781880D01*
X131392333Y-68447118D02*
X131392333Y-67177118D01*
X131392333Y-67177118D02*
X131997095Y-67177118D01*
X133025190Y-67177118D02*
X132783285Y-67177118D01*
X132783285Y-67177118D02*
X132662333Y-67237594D01*
X132662333Y-67237594D02*
X132601857Y-67298070D01*
X132601857Y-67298070D02*
X132480904Y-67479499D01*
X132480904Y-67479499D02*
X132420428Y-67721403D01*
X132420428Y-67721403D02*
X132420428Y-68205213D01*
X132420428Y-68205213D02*
X132480904Y-68326165D01*
X132480904Y-68326165D02*
X132541381Y-68386642D01*
X132541381Y-68386642D02*
X132662333Y-68447118D01*
X132662333Y-68447118D02*
X132904238Y-68447118D01*
X132904238Y-68447118D02*
X133025190Y-68386642D01*
X133025190Y-68386642D02*
X133085666Y-68326165D01*
X133085666Y-68326165D02*
X133146143Y-68205213D01*
X133146143Y-68205213D02*
X133146143Y-67902832D01*
X133146143Y-67902832D02*
X133085666Y-67781880D01*
X133085666Y-67781880D02*
X133025190Y-67721403D01*
X133025190Y-67721403D02*
X132904238Y-67660927D01*
X132904238Y-67660927D02*
X132662333Y-67660927D01*
X132662333Y-67660927D02*
X132541381Y-67721403D01*
X132541381Y-67721403D02*
X132480904Y-67781880D01*
X132480904Y-67781880D02*
X132420428Y-67902832D01*
X55456667Y-67781880D02*
X55033333Y-67781880D01*
X55033333Y-68447118D02*
X55033333Y-67177118D01*
X55033333Y-67177118D02*
X55638095Y-67177118D01*
X56787143Y-68447118D02*
X56061428Y-68447118D01*
X56424285Y-68447118D02*
X56424285Y-67177118D01*
X56424285Y-67177118D02*
X56303333Y-67358546D01*
X56303333Y-67358546D02*
X56182381Y-67479499D01*
X56182381Y-67479499D02*
X56061428Y-67539975D01*
D12*
%TO.C,REF\u002A\u002A*%
X76494207Y-40406582D02*
X76517561Y-40416788D01*
X76573302Y-40460934D01*
X76620969Y-40524767D01*
X76650448Y-40592887D01*
X76655246Y-40626470D01*
X76639160Y-40673356D01*
X76603875Y-40698165D01*
X76566044Y-40713187D01*
X76548721Y-40715955D01*
X76540286Y-40695866D01*
X76523630Y-40652151D01*
X76516323Y-40632398D01*
X76475348Y-40564071D01*
X76416022Y-40529991D01*
X76339952Y-40531039D01*
X76334318Y-40532381D01*
X76293705Y-40551636D01*
X76263848Y-40589175D01*
X76243455Y-40649609D01*
X76231236Y-40737551D01*
X76225900Y-40857613D01*
X76225400Y-40921498D01*
X76225152Y-41022203D01*
X76223526Y-41090854D01*
X76219201Y-41134473D01*
X76210854Y-41160082D01*
X76197165Y-41174703D01*
X76176811Y-41185358D01*
X76175634Y-41185895D01*
X76136438Y-41202467D01*
X76117019Y-41208569D01*
X76114035Y-41190119D01*
X76111481Y-41139123D01*
X76109540Y-41062108D01*
X76108397Y-40965605D01*
X76108169Y-40894984D01*
X76109332Y-40758325D01*
X76113879Y-40654651D01*
X76123399Y-40577908D01*
X76139481Y-40522046D01*
X76163713Y-40481012D01*
X76197686Y-40448754D01*
X76231233Y-40426240D01*
X76311899Y-40396276D01*
X76405781Y-40389518D01*
X76494207Y-40406582D01*
G36*
X76494207Y-40406582D02*
G01*
X76517561Y-40416788D01*
X76573302Y-40460934D01*
X76620969Y-40524767D01*
X76650448Y-40592887D01*
X76655246Y-40626470D01*
X76639160Y-40673356D01*
X76603875Y-40698165D01*
X76566044Y-40713187D01*
X76548721Y-40715955D01*
X76540286Y-40695866D01*
X76523630Y-40652151D01*
X76516323Y-40632398D01*
X76475348Y-40564071D01*
X76416022Y-40529991D01*
X76339952Y-40531039D01*
X76334318Y-40532381D01*
X76293705Y-40551636D01*
X76263848Y-40589175D01*
X76243455Y-40649609D01*
X76231236Y-40737551D01*
X76225900Y-40857613D01*
X76225400Y-40921498D01*
X76225152Y-41022203D01*
X76223526Y-41090854D01*
X76219201Y-41134473D01*
X76210854Y-41160082D01*
X76197165Y-41174703D01*
X76176811Y-41185358D01*
X76175634Y-41185895D01*
X76136438Y-41202467D01*
X76117019Y-41208569D01*
X76114035Y-41190119D01*
X76111481Y-41139123D01*
X76109540Y-41062108D01*
X76108397Y-40965605D01*
X76108169Y-40894984D01*
X76109332Y-40758325D01*
X76113879Y-40654651D01*
X76123399Y-40577908D01*
X76139481Y-40522046D01*
X76163713Y-40481012D01*
X76197686Y-40448754D01*
X76231233Y-40426240D01*
X76311899Y-40396276D01*
X76405781Y-40389518D01*
X76494207Y-40406582D01*
G37*
X71195064Y-40364889D02*
X71257767Y-40401158D01*
X71301361Y-40437158D01*
X71333245Y-40474875D01*
X71355210Y-40520999D01*
X71369049Y-40582221D01*
X71376553Y-40665231D01*
X71379517Y-40776719D01*
X71379861Y-40856862D01*
X71379861Y-41151865D01*
X71213785Y-41226315D01*
X71204015Y-40903202D01*
X71199979Y-40782529D01*
X71195744Y-40694941D01*
X71190497Y-40634450D01*
X71183425Y-40595068D01*
X71173711Y-40570807D01*
X71160544Y-40555680D01*
X71156319Y-40552406D01*
X71092309Y-40526834D01*
X71027608Y-40536953D01*
X70989092Y-40563800D01*
X70973425Y-40582824D01*
X70962580Y-40607788D01*
X70955688Y-40645634D01*
X70951879Y-40703302D01*
X70950283Y-40787735D01*
X70950015Y-40875728D01*
X70949963Y-40986123D01*
X70948072Y-41064263D01*
X70941745Y-41116965D01*
X70928383Y-41151042D01*
X70905385Y-41173311D01*
X70870154Y-41190587D01*
X70823097Y-41208538D01*
X70771703Y-41228078D01*
X70777821Y-40881285D01*
X70780284Y-40756268D01*
X70783167Y-40663882D01*
X70787298Y-40597681D01*
X70793507Y-40551220D01*
X70802626Y-40518056D01*
X70815483Y-40491744D01*
X70830984Y-40468529D01*
X70905771Y-40394369D01*
X70997028Y-40351484D01*
X71096283Y-40341212D01*
X71195064Y-40364889D01*
G36*
X71195064Y-40364889D02*
G01*
X71257767Y-40401158D01*
X71301361Y-40437158D01*
X71333245Y-40474875D01*
X71355210Y-40520999D01*
X71369049Y-40582221D01*
X71376553Y-40665231D01*
X71379517Y-40776719D01*
X71379861Y-40856862D01*
X71379861Y-41151865D01*
X71213785Y-41226315D01*
X71204015Y-40903202D01*
X71199979Y-40782529D01*
X71195744Y-40694941D01*
X71190497Y-40634450D01*
X71183425Y-40595068D01*
X71173711Y-40570807D01*
X71160544Y-40555680D01*
X71156319Y-40552406D01*
X71092309Y-40526834D01*
X71027608Y-40536953D01*
X70989092Y-40563800D01*
X70973425Y-40582824D01*
X70962580Y-40607788D01*
X70955688Y-40645634D01*
X70951879Y-40703302D01*
X70950283Y-40787735D01*
X70950015Y-40875728D01*
X70949963Y-40986123D01*
X70948072Y-41064263D01*
X70941745Y-41116965D01*
X70928383Y-41151042D01*
X70905385Y-41173311D01*
X70870154Y-41190587D01*
X70823097Y-41208538D01*
X70771703Y-41228078D01*
X70777821Y-40881285D01*
X70780284Y-40756268D01*
X70783167Y-40663882D01*
X70787298Y-40597681D01*
X70793507Y-40551220D01*
X70802626Y-40518056D01*
X70815483Y-40491744D01*
X70830984Y-40468529D01*
X70905771Y-40394369D01*
X70997028Y-40351484D01*
X71096283Y-40341212D01*
X71195064Y-40364889D01*
G37*
X73636762Y-40394470D02*
X73725517Y-40427221D01*
X73797422Y-40485150D01*
X73825544Y-40525928D01*
X73856202Y-40600754D01*
X73855565Y-40654858D01*
X73823387Y-40691246D01*
X73811481Y-40697433D01*
X73760075Y-40716725D01*
X73733822Y-40711782D01*
X73724930Y-40679387D01*
X73724477Y-40661492D01*
X73708197Y-40595659D01*
X73665765Y-40549607D01*
X73606788Y-40527364D01*
X73540875Y-40532961D01*
X73487295Y-40562029D01*
X73469198Y-40578610D01*
X73456371Y-40598725D01*
X73447706Y-40629132D01*
X73442096Y-40676588D01*
X73438435Y-40747850D01*
X73435615Y-40849675D01*
X73434884Y-40881915D01*
X73432220Y-40992210D01*
X73429192Y-41069836D01*
X73424650Y-41121196D01*
X73417446Y-41152690D01*
X73406433Y-41170720D01*
X73390460Y-41181688D01*
X73380234Y-41186533D01*
X73336806Y-41203101D01*
X73311242Y-41208569D01*
X73302795Y-41190307D01*
X73297639Y-41135096D01*
X73295746Y-41042299D01*
X73297089Y-40911278D01*
X73297507Y-40891069D01*
X73300458Y-40771533D01*
X73303948Y-40684249D01*
X73308914Y-40622391D01*
X73316293Y-40579136D01*
X73327024Y-40547660D01*
X73342045Y-40521139D01*
X73349902Y-40509775D01*
X73394953Y-40459492D01*
X73445340Y-40420381D01*
X73451508Y-40416967D01*
X73541858Y-40390012D01*
X73636762Y-40394470D01*
G36*
X73636762Y-40394470D02*
G01*
X73725517Y-40427221D01*
X73797422Y-40485150D01*
X73825544Y-40525928D01*
X73856202Y-40600754D01*
X73855565Y-40654858D01*
X73823387Y-40691246D01*
X73811481Y-40697433D01*
X73760075Y-40716725D01*
X73733822Y-40711782D01*
X73724930Y-40679387D01*
X73724477Y-40661492D01*
X73708197Y-40595659D01*
X73665765Y-40549607D01*
X73606788Y-40527364D01*
X73540875Y-40532961D01*
X73487295Y-40562029D01*
X73469198Y-40578610D01*
X73456371Y-40598725D01*
X73447706Y-40629132D01*
X73442096Y-40676588D01*
X73438435Y-40747850D01*
X73435615Y-40849675D01*
X73434884Y-40881915D01*
X73432220Y-40992210D01*
X73429192Y-41069836D01*
X73424650Y-41121196D01*
X73417446Y-41152690D01*
X73406433Y-41170720D01*
X73390460Y-41181688D01*
X73380234Y-41186533D01*
X73336806Y-41203101D01*
X73311242Y-41208569D01*
X73302795Y-41190307D01*
X73297639Y-41135096D01*
X73295746Y-41042299D01*
X73297089Y-40911278D01*
X73297507Y-40891069D01*
X73300458Y-40771533D01*
X73303948Y-40684249D01*
X73308914Y-40622391D01*
X73316293Y-40579136D01*
X73327024Y-40547660D01*
X73342045Y-40521139D01*
X73349902Y-40509775D01*
X73394953Y-40459492D01*
X73445340Y-40420381D01*
X73451508Y-40416967D01*
X73541858Y-40390012D01*
X73636762Y-40394470D01*
G37*
X72083246Y-40261920D02*
X72088972Y-40341780D01*
X72095549Y-40388839D01*
X72104662Y-40409366D01*
X72117998Y-40409629D01*
X72122323Y-40407178D01*
X72179844Y-40389436D01*
X72254668Y-40390472D01*
X72330739Y-40408710D01*
X72378318Y-40432305D01*
X72427102Y-40469998D01*
X72462764Y-40512655D01*
X72487245Y-40566857D01*
X72502487Y-40639184D01*
X72510430Y-40736219D01*
X72513016Y-40864542D01*
X72513062Y-40889158D01*
X72513092Y-41165670D01*
X72451561Y-41187120D01*
X72407859Y-41201712D01*
X72383882Y-41208506D01*
X72383177Y-41208569D01*
X72380815Y-41190145D01*
X72378806Y-41139326D01*
X72377301Y-41062793D01*
X72376453Y-40967230D01*
X72376323Y-40909129D01*
X72376051Y-40794571D01*
X72374652Y-40712467D01*
X72371249Y-40656193D01*
X72364967Y-40619126D01*
X72354929Y-40594644D01*
X72340261Y-40576125D01*
X72331102Y-40567206D01*
X72268189Y-40531266D01*
X72199536Y-40528575D01*
X72137248Y-40558970D01*
X72125729Y-40569944D01*
X72108833Y-40590579D01*
X72097114Y-40615056D01*
X72089633Y-40650447D01*
X72085454Y-40703826D01*
X72083637Y-40782266D01*
X72083246Y-40890417D01*
X72083246Y-41165670D01*
X72021715Y-41187120D01*
X71978013Y-41201712D01*
X71954036Y-41208506D01*
X71953330Y-41208569D01*
X71951526Y-41189869D01*
X71949900Y-41137122D01*
X71948517Y-41055357D01*
X71947442Y-40949605D01*
X71946740Y-40824894D01*
X71946477Y-40686255D01*
X71946477Y-40151606D01*
X72073477Y-40098036D01*
X72083246Y-40261920D01*
G36*
X72083246Y-40261920D02*
G01*
X72088972Y-40341780D01*
X72095549Y-40388839D01*
X72104662Y-40409366D01*
X72117998Y-40409629D01*
X72122323Y-40407178D01*
X72179844Y-40389436D01*
X72254668Y-40390472D01*
X72330739Y-40408710D01*
X72378318Y-40432305D01*
X72427102Y-40469998D01*
X72462764Y-40512655D01*
X72487245Y-40566857D01*
X72502487Y-40639184D01*
X72510430Y-40736219D01*
X72513016Y-40864542D01*
X72513062Y-40889158D01*
X72513092Y-41165670D01*
X72451561Y-41187120D01*
X72407859Y-41201712D01*
X72383882Y-41208506D01*
X72383177Y-41208569D01*
X72380815Y-41190145D01*
X72378806Y-41139326D01*
X72377301Y-41062793D01*
X72376453Y-40967230D01*
X72376323Y-40909129D01*
X72376051Y-40794571D01*
X72374652Y-40712467D01*
X72371249Y-40656193D01*
X72364967Y-40619126D01*
X72354929Y-40594644D01*
X72340261Y-40576125D01*
X72331102Y-40567206D01*
X72268189Y-40531266D01*
X72199536Y-40528575D01*
X72137248Y-40558970D01*
X72125729Y-40569944D01*
X72108833Y-40590579D01*
X72097114Y-40615056D01*
X72089633Y-40650447D01*
X72085454Y-40703826D01*
X72083637Y-40782266D01*
X72083246Y-40890417D01*
X72083246Y-41165670D01*
X72021715Y-41187120D01*
X71978013Y-41201712D01*
X71954036Y-41208506D01*
X71953330Y-41208569D01*
X71951526Y-41189869D01*
X71949900Y-41137122D01*
X71948517Y-41055357D01*
X71947442Y-40949605D01*
X71946740Y-40824894D01*
X71946477Y-40686255D01*
X71946477Y-40151606D01*
X72073477Y-40098036D01*
X72083246Y-40261920D01*
G37*
X75319329Y-40406462D02*
X75322311Y-40457868D01*
X75324647Y-40535992D01*
X75326149Y-40634657D01*
X75326631Y-40738143D01*
X75326631Y-41088333D01*
X75264801Y-41150163D01*
X75222193Y-41188262D01*
X75184790Y-41203695D01*
X75133670Y-41202718D01*
X75113378Y-41200233D01*
X75049954Y-41193000D01*
X74997495Y-41188855D01*
X74984708Y-41188472D01*
X74941599Y-41190976D01*
X74879944Y-41197262D01*
X74856038Y-41200233D01*
X74797322Y-41204828D01*
X74757864Y-41194846D01*
X74718738Y-41164028D01*
X74704615Y-41150163D01*
X74642785Y-41088333D01*
X74642785Y-40433303D01*
X74692550Y-40410629D01*
X74735402Y-40393834D01*
X74760473Y-40387954D01*
X74766901Y-40406536D01*
X74772909Y-40458455D01*
X74778097Y-40537972D01*
X74782064Y-40639346D01*
X74783977Y-40724992D01*
X74789323Y-41062031D01*
X74835960Y-41068625D01*
X74878376Y-41064014D01*
X74899160Y-41049087D01*
X74904970Y-41021177D01*
X74909930Y-40961725D01*
X74913646Y-40878266D01*
X74915724Y-40778332D01*
X74916024Y-40726904D01*
X74916323Y-40430854D01*
X74977854Y-40409404D01*
X75021404Y-40394820D01*
X75045094Y-40388019D01*
X75045777Y-40387954D01*
X75048154Y-40406442D01*
X75050766Y-40457706D01*
X75053395Y-40535449D01*
X75055821Y-40633374D01*
X75057515Y-40724992D01*
X75062861Y-41062031D01*
X75180092Y-41062031D01*
X75185472Y-40754546D01*
X75190851Y-40447061D01*
X75248001Y-40417507D01*
X75290197Y-40397213D01*
X75315170Y-40388004D01*
X75315891Y-40387954D01*
X75319329Y-40406462D01*
G36*
X75319329Y-40406462D02*
G01*
X75322311Y-40457868D01*
X75324647Y-40535992D01*
X75326149Y-40634657D01*
X75326631Y-40738143D01*
X75326631Y-41088333D01*
X75264801Y-41150163D01*
X75222193Y-41188262D01*
X75184790Y-41203695D01*
X75133670Y-41202718D01*
X75113378Y-41200233D01*
X75049954Y-41193000D01*
X74997495Y-41188855D01*
X74984708Y-41188472D01*
X74941599Y-41190976D01*
X74879944Y-41197262D01*
X74856038Y-41200233D01*
X74797322Y-41204828D01*
X74757864Y-41194846D01*
X74718738Y-41164028D01*
X74704615Y-41150163D01*
X74642785Y-41088333D01*
X74642785Y-40433303D01*
X74692550Y-40410629D01*
X74735402Y-40393834D01*
X74760473Y-40387954D01*
X74766901Y-40406536D01*
X74772909Y-40458455D01*
X74778097Y-40537972D01*
X74782064Y-40639346D01*
X74783977Y-40724992D01*
X74789323Y-41062031D01*
X74835960Y-41068625D01*
X74878376Y-41064014D01*
X74899160Y-41049087D01*
X74904970Y-41021177D01*
X74909930Y-40961725D01*
X74913646Y-40878266D01*
X74915724Y-40778332D01*
X74916024Y-40726904D01*
X74916323Y-40430854D01*
X74977854Y-40409404D01*
X75021404Y-40394820D01*
X75045094Y-40388019D01*
X75045777Y-40387954D01*
X75048154Y-40406442D01*
X75050766Y-40457706D01*
X75053395Y-40535449D01*
X75055821Y-40633374D01*
X75057515Y-40724992D01*
X75062861Y-41062031D01*
X75180092Y-41062031D01*
X75185472Y-40754546D01*
X75190851Y-40447061D01*
X75248001Y-40417507D01*
X75290197Y-40397213D01*
X75315170Y-40388004D01*
X75315891Y-40387954D01*
X75319329Y-40406462D01*
G37*
X68940286Y-40357056D02*
X69031864Y-40405209D01*
X69099449Y-40482705D01*
X69123457Y-40532527D01*
X69142138Y-40607333D01*
X69151701Y-40701852D01*
X69152608Y-40805010D01*
X69145321Y-40905735D01*
X69130303Y-40992953D01*
X69108015Y-41055591D01*
X69101165Y-41066379D01*
X69020032Y-41146905D01*
X68923666Y-41195136D01*
X68819101Y-41209250D01*
X68713368Y-41187429D01*
X68683943Y-41174347D01*
X68626641Y-41134031D01*
X68576350Y-41080575D01*
X68571597Y-41073795D01*
X68552278Y-41041121D01*
X68539508Y-41006194D01*
X68531964Y-40960214D01*
X68528324Y-40894384D01*
X68527265Y-40799905D01*
X68527246Y-40778723D01*
X68527294Y-40771982D01*
X68722631Y-40771982D01*
X68723768Y-40861149D01*
X68728241Y-40920320D01*
X68737646Y-40958541D01*
X68753576Y-40984853D01*
X68761708Y-40993646D01*
X68808458Y-41027061D01*
X68853847Y-41025537D01*
X68899740Y-40996552D01*
X68927112Y-40965609D01*
X68943323Y-40920443D01*
X68952426Y-40849220D01*
X68953051Y-40840914D01*
X68954604Y-40711837D01*
X68938365Y-40615972D01*
X68904552Y-40553907D01*
X68853384Y-40526232D01*
X68835120Y-40524723D01*
X68787160Y-40532313D01*
X68754353Y-40558608D01*
X68734295Y-40608895D01*
X68724578Y-40688464D01*
X68722631Y-40771982D01*
X68527294Y-40771982D01*
X68527974Y-40678049D01*
X68531029Y-40607706D01*
X68537722Y-40558963D01*
X68549360Y-40523088D01*
X68567253Y-40491348D01*
X68571208Y-40485448D01*
X68637667Y-40405904D01*
X68710085Y-40359729D01*
X68798249Y-40341399D01*
X68828187Y-40340503D01*
X68940286Y-40357056D01*
G36*
X68940286Y-40357056D02*
G01*
X69031864Y-40405209D01*
X69099449Y-40482705D01*
X69123457Y-40532527D01*
X69142138Y-40607333D01*
X69151701Y-40701852D01*
X69152608Y-40805010D01*
X69145321Y-40905735D01*
X69130303Y-40992953D01*
X69108015Y-41055591D01*
X69101165Y-41066379D01*
X69020032Y-41146905D01*
X68923666Y-41195136D01*
X68819101Y-41209250D01*
X68713368Y-41187429D01*
X68683943Y-41174347D01*
X68626641Y-41134031D01*
X68576350Y-41080575D01*
X68571597Y-41073795D01*
X68552278Y-41041121D01*
X68539508Y-41006194D01*
X68531964Y-40960214D01*
X68528324Y-40894384D01*
X68527265Y-40799905D01*
X68527246Y-40778723D01*
X68527294Y-40771982D01*
X68722631Y-40771982D01*
X68723768Y-40861149D01*
X68728241Y-40920320D01*
X68737646Y-40958541D01*
X68753576Y-40984853D01*
X68761708Y-40993646D01*
X68808458Y-41027061D01*
X68853847Y-41025537D01*
X68899740Y-40996552D01*
X68927112Y-40965609D01*
X68943323Y-40920443D01*
X68952426Y-40849220D01*
X68953051Y-40840914D01*
X68954604Y-40711837D01*
X68938365Y-40615972D01*
X68904552Y-40553907D01*
X68853384Y-40526232D01*
X68835120Y-40524723D01*
X68787160Y-40532313D01*
X68754353Y-40558608D01*
X68734295Y-40608895D01*
X68724578Y-40688464D01*
X68722631Y-40771982D01*
X68527294Y-40771982D01*
X68527974Y-40678049D01*
X68531029Y-40607706D01*
X68537722Y-40558963D01*
X68549360Y-40523088D01*
X68567253Y-40491348D01*
X68571208Y-40485448D01*
X68637667Y-40405904D01*
X68710085Y-40359729D01*
X68798249Y-40341399D01*
X68828187Y-40340503D01*
X68940286Y-40357056D01*
G37*
X77168624Y-40417638D02*
X77245928Y-40468161D01*
X77283214Y-40513390D01*
X77312753Y-40595463D01*
X77315099Y-40660407D01*
X77309785Y-40747245D01*
X77109515Y-40834903D01*
X77012139Y-40879687D01*
X76948513Y-40915713D01*
X76915429Y-40946917D01*
X76909680Y-40977236D01*
X76928058Y-41010605D01*
X76948323Y-41032723D01*
X77007289Y-41068193D01*
X77071424Y-41070679D01*
X77130326Y-41043035D01*
X77173597Y-40988120D01*
X77181336Y-40968728D01*
X77218406Y-40908164D01*
X77261054Y-40882352D01*
X77319554Y-40860271D01*
X77319554Y-40943984D01*
X77314382Y-41000950D01*
X77294123Y-41048989D01*
X77251662Y-41104146D01*
X77245351Y-41111314D01*
X77198120Y-41160385D01*
X77157521Y-41186720D01*
X77106728Y-41198835D01*
X77064620Y-41202803D01*
X76989302Y-41203791D01*
X76935686Y-41191266D01*
X76902238Y-41172669D01*
X76849668Y-41131775D01*
X76813279Y-41087548D01*
X76790250Y-41031926D01*
X76777759Y-40956847D01*
X76772987Y-40854249D01*
X76772606Y-40802176D01*
X76773901Y-40739748D01*
X76891871Y-40739748D01*
X76893239Y-40773238D01*
X76896649Y-40778723D01*
X76919153Y-40771272D01*
X76967582Y-40751553D01*
X77032308Y-40723518D01*
X77045843Y-40717492D01*
X77127644Y-40675896D01*
X77172712Y-40639338D01*
X77182617Y-40605096D01*
X77158926Y-40570448D01*
X77139360Y-40555139D01*
X77068760Y-40524521D01*
X77002680Y-40529580D01*
X76947359Y-40566951D01*
X76909036Y-40633273D01*
X76896749Y-40685916D01*
X76891871Y-40739748D01*
X76773901Y-40739748D01*
X76775130Y-40680520D01*
X76784432Y-40590510D01*
X76802860Y-40524967D01*
X76832760Y-40476712D01*
X76876480Y-40438567D01*
X76895541Y-40426240D01*
X76982126Y-40394136D01*
X77076922Y-40392116D01*
X77168624Y-40417638D01*
G36*
X77168624Y-40417638D02*
G01*
X77245928Y-40468161D01*
X77283214Y-40513390D01*
X77312753Y-40595463D01*
X77315099Y-40660407D01*
X77309785Y-40747245D01*
X77109515Y-40834903D01*
X77012139Y-40879687D01*
X76948513Y-40915713D01*
X76915429Y-40946917D01*
X76909680Y-40977236D01*
X76928058Y-41010605D01*
X76948323Y-41032723D01*
X77007289Y-41068193D01*
X77071424Y-41070679D01*
X77130326Y-41043035D01*
X77173597Y-40988120D01*
X77181336Y-40968728D01*
X77218406Y-40908164D01*
X77261054Y-40882352D01*
X77319554Y-40860271D01*
X77319554Y-40943984D01*
X77314382Y-41000950D01*
X77294123Y-41048989D01*
X77251662Y-41104146D01*
X77245351Y-41111314D01*
X77198120Y-41160385D01*
X77157521Y-41186720D01*
X77106728Y-41198835D01*
X77064620Y-41202803D01*
X76989302Y-41203791D01*
X76935686Y-41191266D01*
X76902238Y-41172669D01*
X76849668Y-41131775D01*
X76813279Y-41087548D01*
X76790250Y-41031926D01*
X76777759Y-40956847D01*
X76772987Y-40854249D01*
X76772606Y-40802176D01*
X76773901Y-40739748D01*
X76891871Y-40739748D01*
X76893239Y-40773238D01*
X76896649Y-40778723D01*
X76919153Y-40771272D01*
X76967582Y-40751553D01*
X77032308Y-40723518D01*
X77045843Y-40717492D01*
X77127644Y-40675896D01*
X77172712Y-40639338D01*
X77182617Y-40605096D01*
X77158926Y-40570448D01*
X77139360Y-40555139D01*
X77068760Y-40524521D01*
X77002680Y-40529580D01*
X76947359Y-40566951D01*
X76909036Y-40633273D01*
X76896749Y-40685916D01*
X76891871Y-40739748D01*
X76773901Y-40739748D01*
X76775130Y-40680520D01*
X76784432Y-40590510D01*
X76802860Y-40524967D01*
X76832760Y-40476712D01*
X76876480Y-40438567D01*
X76895541Y-40426240D01*
X76982126Y-40394136D01*
X77076922Y-40392116D01*
X77168624Y-40417638D01*
G37*
X74525481Y-40550089D02*
X74525233Y-40696120D01*
X74524272Y-40808455D01*
X74522194Y-40892478D01*
X74518593Y-40953569D01*
X74513065Y-40997109D01*
X74505204Y-41028479D01*
X74494607Y-41053062D01*
X74486582Y-41067094D01*
X74420128Y-41143188D01*
X74335870Y-41190884D01*
X74242649Y-41207999D01*
X74149300Y-41192346D01*
X74093712Y-41164218D01*
X74035357Y-41115560D01*
X73995586Y-41056133D01*
X73971590Y-40978307D01*
X73960561Y-40874452D01*
X73958999Y-40798262D01*
X73959209Y-40792786D01*
X74095708Y-40792786D01*
X74096541Y-40880155D01*
X74100361Y-40937992D01*
X74109146Y-40975829D01*
X74124874Y-41003198D01*
X74143666Y-41023842D01*
X74206775Y-41063690D01*
X74274537Y-41067095D01*
X74338579Y-41033825D01*
X74343564Y-41029317D01*
X74364839Y-41005867D01*
X74378179Y-40977966D01*
X74385401Y-40936441D01*
X74388323Y-40872116D01*
X74388785Y-40801000D01*
X74387783Y-40711658D01*
X74383638Y-40652058D01*
X74374636Y-40612889D01*
X74359067Y-40584840D01*
X74346302Y-40569944D01*
X74287000Y-40532375D01*
X74218701Y-40527857D01*
X74153510Y-40556553D01*
X74140928Y-40567206D01*
X74119511Y-40590863D01*
X74106144Y-40619051D01*
X74098966Y-40661045D01*
X74096119Y-40726119D01*
X74095708Y-40792786D01*
X73959209Y-40792786D01*
X73963722Y-40675565D01*
X73979762Y-40583377D01*
X74009928Y-40514069D01*
X74057029Y-40460011D01*
X74093712Y-40432305D01*
X74160390Y-40402372D01*
X74237672Y-40388478D01*
X74309510Y-40392197D01*
X74349708Y-40407200D01*
X74365482Y-40411470D01*
X74375950Y-40395550D01*
X74383256Y-40352889D01*
X74388785Y-40287906D01*
X74394837Y-40215532D01*
X74403244Y-40171987D01*
X74418541Y-40147087D01*
X74445264Y-40130645D01*
X74462054Y-40123364D01*
X74525554Y-40096763D01*
X74525481Y-40550089D01*
G36*
X74525481Y-40550089D02*
G01*
X74525233Y-40696120D01*
X74524272Y-40808455D01*
X74522194Y-40892478D01*
X74518593Y-40953569D01*
X74513065Y-40997109D01*
X74505204Y-41028479D01*
X74494607Y-41053062D01*
X74486582Y-41067094D01*
X74420128Y-41143188D01*
X74335870Y-41190884D01*
X74242649Y-41207999D01*
X74149300Y-41192346D01*
X74093712Y-41164218D01*
X74035357Y-41115560D01*
X73995586Y-41056133D01*
X73971590Y-40978307D01*
X73960561Y-40874452D01*
X73958999Y-40798262D01*
X73959209Y-40792786D01*
X74095708Y-40792786D01*
X74096541Y-40880155D01*
X74100361Y-40937992D01*
X74109146Y-40975829D01*
X74124874Y-41003198D01*
X74143666Y-41023842D01*
X74206775Y-41063690D01*
X74274537Y-41067095D01*
X74338579Y-41033825D01*
X74343564Y-41029317D01*
X74364839Y-41005867D01*
X74378179Y-40977966D01*
X74385401Y-40936441D01*
X74388323Y-40872116D01*
X74388785Y-40801000D01*
X74387783Y-40711658D01*
X74383638Y-40652058D01*
X74374636Y-40612889D01*
X74359067Y-40584840D01*
X74346302Y-40569944D01*
X74287000Y-40532375D01*
X74218701Y-40527857D01*
X74153510Y-40556553D01*
X74140928Y-40567206D01*
X74119511Y-40590863D01*
X74106144Y-40619051D01*
X74098966Y-40661045D01*
X74096119Y-40726119D01*
X74095708Y-40792786D01*
X73959209Y-40792786D01*
X73963722Y-40675565D01*
X73979762Y-40583377D01*
X74009928Y-40514069D01*
X74057029Y-40460011D01*
X74093712Y-40432305D01*
X74160390Y-40402372D01*
X74237672Y-40388478D01*
X74309510Y-40392197D01*
X74349708Y-40407200D01*
X74365482Y-40411470D01*
X74375950Y-40395550D01*
X74383256Y-40352889D01*
X74388785Y-40287906D01*
X74394837Y-40215532D01*
X74403244Y-40171987D01*
X74418541Y-40147087D01*
X74445264Y-40130645D01*
X74462054Y-40123364D01*
X74525554Y-40096763D01*
X74525481Y-40550089D01*
G37*
X70457654Y-40369545D02*
X70534686Y-40421367D01*
X70594216Y-40496212D01*
X70629778Y-40591454D01*
X70636971Y-40661556D01*
X70636154Y-40690809D01*
X70629314Y-40713207D01*
X70610512Y-40733274D01*
X70573808Y-40755533D01*
X70513262Y-40784509D01*
X70422934Y-40824727D01*
X70422477Y-40824929D01*
X70339333Y-40863010D01*
X70271153Y-40896825D01*
X70224905Y-40922733D01*
X70207558Y-40937095D01*
X70207554Y-40937211D01*
X70222843Y-40968485D01*
X70258596Y-41002957D01*
X70299642Y-41027790D01*
X70320437Y-41032723D01*
X70377170Y-41015662D01*
X70426027Y-40972933D01*
X70449865Y-40925955D01*
X70472797Y-40891322D01*
X70517718Y-40851881D01*
X70570523Y-40817809D01*
X70617110Y-40799280D01*
X70626852Y-40798262D01*
X70637818Y-40815015D01*
X70638479Y-40857839D01*
X70630420Y-40915581D01*
X70615227Y-40977089D01*
X70594486Y-41031209D01*
X70593438Y-41033310D01*
X70531021Y-41120460D01*
X70450126Y-41179739D01*
X70358256Y-41208834D01*
X70262913Y-41205434D01*
X70171598Y-41167228D01*
X70167538Y-41164541D01*
X70095706Y-41099442D01*
X70048473Y-41014505D01*
X70022334Y-40902821D01*
X70018826Y-40871443D01*
X70012613Y-40723336D01*
X70020061Y-40654268D01*
X70207554Y-40654268D01*
X70209990Y-40697352D01*
X70223314Y-40709926D01*
X70256532Y-40700519D01*
X70308894Y-40678283D01*
X70367424Y-40650410D01*
X70368879Y-40649672D01*
X70418489Y-40623577D01*
X70438400Y-40606163D01*
X70433490Y-40587907D01*
X70412816Y-40563920D01*
X70360219Y-40529206D01*
X70303577Y-40526656D01*
X70252769Y-40551919D01*
X70217676Y-40600647D01*
X70207554Y-40654268D01*
X70020061Y-40654268D01*
X70025392Y-40604836D01*
X70058178Y-40510855D01*
X70103821Y-40445015D01*
X70186202Y-40378481D01*
X70276946Y-40345476D01*
X70369585Y-40343373D01*
X70457654Y-40369545D01*
G36*
X70457654Y-40369545D02*
G01*
X70534686Y-40421367D01*
X70594216Y-40496212D01*
X70629778Y-40591454D01*
X70636971Y-40661556D01*
X70636154Y-40690809D01*
X70629314Y-40713207D01*
X70610512Y-40733274D01*
X70573808Y-40755533D01*
X70513262Y-40784509D01*
X70422934Y-40824727D01*
X70422477Y-40824929D01*
X70339333Y-40863010D01*
X70271153Y-40896825D01*
X70224905Y-40922733D01*
X70207558Y-40937095D01*
X70207554Y-40937211D01*
X70222843Y-40968485D01*
X70258596Y-41002957D01*
X70299642Y-41027790D01*
X70320437Y-41032723D01*
X70377170Y-41015662D01*
X70426027Y-40972933D01*
X70449865Y-40925955D01*
X70472797Y-40891322D01*
X70517718Y-40851881D01*
X70570523Y-40817809D01*
X70617110Y-40799280D01*
X70626852Y-40798262D01*
X70637818Y-40815015D01*
X70638479Y-40857839D01*
X70630420Y-40915581D01*
X70615227Y-40977089D01*
X70594486Y-41031209D01*
X70593438Y-41033310D01*
X70531021Y-41120460D01*
X70450126Y-41179739D01*
X70358256Y-41208834D01*
X70262913Y-41205434D01*
X70171598Y-41167228D01*
X70167538Y-41164541D01*
X70095706Y-41099442D01*
X70048473Y-41014505D01*
X70022334Y-40902821D01*
X70018826Y-40871443D01*
X70012613Y-40723336D01*
X70020061Y-40654268D01*
X70207554Y-40654268D01*
X70209990Y-40697352D01*
X70223314Y-40709926D01*
X70256532Y-40700519D01*
X70308894Y-40678283D01*
X70367424Y-40650410D01*
X70368879Y-40649672D01*
X70418489Y-40623577D01*
X70438400Y-40606163D01*
X70433490Y-40587907D01*
X70412816Y-40563920D01*
X70360219Y-40529206D01*
X70303577Y-40526656D01*
X70252769Y-40551919D01*
X70217676Y-40600647D01*
X70207554Y-40654268D01*
X70020061Y-40654268D01*
X70025392Y-40604836D01*
X70058178Y-40510855D01*
X70103821Y-40445015D01*
X70186202Y-40378481D01*
X70276946Y-40345476D01*
X70369585Y-40343373D01*
X70457654Y-40369545D01*
G37*
X72976901Y-40396103D02*
X73053460Y-40424533D01*
X73054336Y-40425079D01*
X73101685Y-40459927D01*
X73136641Y-40500652D01*
X73161225Y-40553725D01*
X73177462Y-40625614D01*
X73187375Y-40722792D01*
X73192986Y-40851728D01*
X73193477Y-40870098D01*
X73200541Y-41147087D01*
X73141095Y-41177828D01*
X73098081Y-41198602D01*
X73072110Y-41208446D01*
X73070909Y-41208569D01*
X73066414Y-41190406D01*
X73062844Y-41141412D01*
X73060648Y-41069831D01*
X73060169Y-41011868D01*
X73060158Y-40917970D01*
X73055866Y-40859003D01*
X73040903Y-40830879D01*
X73008882Y-40829506D01*
X72953414Y-40850798D01*
X72869669Y-40889936D01*
X72808089Y-40922443D01*
X72776417Y-40950645D01*
X72767106Y-40981382D01*
X72767092Y-40982904D01*
X72782457Y-41035854D01*
X72827947Y-41064460D01*
X72897566Y-41068603D01*
X72947713Y-41067884D01*
X72974154Y-41082327D01*
X72990643Y-41117018D01*
X73000133Y-41161216D01*
X72986457Y-41186293D01*
X72981307Y-41189882D01*
X72932825Y-41204296D01*
X72864931Y-41206337D01*
X72795012Y-41196783D01*
X72745468Y-41179322D01*
X72676970Y-41121164D01*
X72638034Y-41040208D01*
X72630323Y-40976960D01*
X72636207Y-40919911D01*
X72657501Y-40873342D01*
X72699665Y-40831981D01*
X72768159Y-40790555D01*
X72868444Y-40743793D01*
X72874554Y-40741150D01*
X72964890Y-40699417D01*
X73020635Y-40665191D01*
X73044529Y-40634435D01*
X73039313Y-40603111D01*
X73007728Y-40567183D01*
X72998283Y-40558916D01*
X72935017Y-40526858D01*
X72869464Y-40528207D01*
X72812372Y-40559638D01*
X72774493Y-40617824D01*
X72770974Y-40629246D01*
X72736700Y-40684637D01*
X72693209Y-40711318D01*
X72630323Y-40737760D01*
X72630323Y-40669348D01*
X72649452Y-40569910D01*
X72706231Y-40478702D01*
X72735778Y-40448189D01*
X72802942Y-40409028D01*
X72888356Y-40391300D01*
X72976901Y-40396103D01*
G36*
X72976901Y-40396103D02*
G01*
X73053460Y-40424533D01*
X73054336Y-40425079D01*
X73101685Y-40459927D01*
X73136641Y-40500652D01*
X73161225Y-40553725D01*
X73177462Y-40625614D01*
X73187375Y-40722792D01*
X73192986Y-40851728D01*
X73193477Y-40870098D01*
X73200541Y-41147087D01*
X73141095Y-41177828D01*
X73098081Y-41198602D01*
X73072110Y-41208446D01*
X73070909Y-41208569D01*
X73066414Y-41190406D01*
X73062844Y-41141412D01*
X73060648Y-41069831D01*
X73060169Y-41011868D01*
X73060158Y-40917970D01*
X73055866Y-40859003D01*
X73040903Y-40830879D01*
X73008882Y-40829506D01*
X72953414Y-40850798D01*
X72869669Y-40889936D01*
X72808089Y-40922443D01*
X72776417Y-40950645D01*
X72767106Y-40981382D01*
X72767092Y-40982904D01*
X72782457Y-41035854D01*
X72827947Y-41064460D01*
X72897566Y-41068603D01*
X72947713Y-41067884D01*
X72974154Y-41082327D01*
X72990643Y-41117018D01*
X73000133Y-41161216D01*
X72986457Y-41186293D01*
X72981307Y-41189882D01*
X72932825Y-41204296D01*
X72864931Y-41206337D01*
X72795012Y-41196783D01*
X72745468Y-41179322D01*
X72676970Y-41121164D01*
X72638034Y-41040208D01*
X72630323Y-40976960D01*
X72636207Y-40919911D01*
X72657501Y-40873342D01*
X72699665Y-40831981D01*
X72768159Y-40790555D01*
X72868444Y-40743793D01*
X72874554Y-40741150D01*
X72964890Y-40699417D01*
X73020635Y-40665191D01*
X73044529Y-40634435D01*
X73039313Y-40603111D01*
X73007728Y-40567183D01*
X72998283Y-40558916D01*
X72935017Y-40526858D01*
X72869464Y-40528207D01*
X72812372Y-40559638D01*
X72774493Y-40617824D01*
X72770974Y-40629246D01*
X72736700Y-40684637D01*
X72693209Y-40711318D01*
X72630323Y-40737760D01*
X72630323Y-40669348D01*
X72649452Y-40569910D01*
X72706231Y-40478702D01*
X72735778Y-40448189D01*
X72802942Y-40409028D01*
X72888356Y-40391300D01*
X72976901Y-40396103D01*
G37*
X69692286Y-40354305D02*
X69766939Y-40391527D01*
X69832831Y-40460061D01*
X69850977Y-40485448D01*
X69870745Y-40518666D01*
X69883572Y-40554745D01*
X69890910Y-40602898D01*
X69894213Y-40672336D01*
X69894938Y-40764006D01*
X69891663Y-40889630D01*
X69880277Y-40983954D01*
X69858441Y-41054323D01*
X69823819Y-41108086D01*
X69774070Y-41152588D01*
X69770414Y-41155223D01*
X69721385Y-41182177D01*
X69662345Y-41195512D01*
X69587259Y-41198800D01*
X69465195Y-41198800D01*
X69465144Y-41317297D01*
X69464008Y-41383292D01*
X69457086Y-41422002D01*
X69438998Y-41445219D01*
X69404362Y-41464733D01*
X69396045Y-41468720D01*
X69357120Y-41487403D01*
X69326983Y-41499203D01*
X69304574Y-41500222D01*
X69288833Y-41486561D01*
X69278702Y-41454322D01*
X69273123Y-41399604D01*
X69271035Y-41318511D01*
X69271381Y-41207144D01*
X69273100Y-41061602D01*
X69273637Y-41018069D01*
X69275572Y-40868005D01*
X69277304Y-40769842D01*
X69465092Y-40769842D01*
X69466148Y-40853164D01*
X69470838Y-40907680D01*
X69481451Y-40943637D01*
X69500272Y-40971282D01*
X69513050Y-40984765D01*
X69565290Y-41024217D01*
X69611542Y-41027428D01*
X69659267Y-40994849D01*
X69660477Y-40993646D01*
X69679894Y-40968468D01*
X69691707Y-40934247D01*
X69697665Y-40881548D01*
X69699520Y-40800931D01*
X69699554Y-40783071D01*
X69695070Y-40671975D01*
X69680474Y-40594961D01*
X69654050Y-40547947D01*
X69614083Y-40526850D01*
X69590984Y-40524723D01*
X69536162Y-40534700D01*
X69498558Y-40567552D01*
X69475923Y-40627657D01*
X69466006Y-40719398D01*
X69465092Y-40769842D01*
X69277304Y-40769842D01*
X69277622Y-40751860D01*
X69280273Y-40664479D01*
X69284006Y-40600705D01*
X69289307Y-40555382D01*
X69296658Y-40523355D01*
X69306543Y-40499468D01*
X69319446Y-40478564D01*
X69324979Y-40470698D01*
X69398369Y-40396395D01*
X69491160Y-40354267D01*
X69598496Y-40342522D01*
X69692286Y-40354305D01*
G36*
X69692286Y-40354305D02*
G01*
X69766939Y-40391527D01*
X69832831Y-40460061D01*
X69850977Y-40485448D01*
X69870745Y-40518666D01*
X69883572Y-40554745D01*
X69890910Y-40602898D01*
X69894213Y-40672336D01*
X69894938Y-40764006D01*
X69891663Y-40889630D01*
X69880277Y-40983954D01*
X69858441Y-41054323D01*
X69823819Y-41108086D01*
X69774070Y-41152588D01*
X69770414Y-41155223D01*
X69721385Y-41182177D01*
X69662345Y-41195512D01*
X69587259Y-41198800D01*
X69465195Y-41198800D01*
X69465144Y-41317297D01*
X69464008Y-41383292D01*
X69457086Y-41422002D01*
X69438998Y-41445219D01*
X69404362Y-41464733D01*
X69396045Y-41468720D01*
X69357120Y-41487403D01*
X69326983Y-41499203D01*
X69304574Y-41500222D01*
X69288833Y-41486561D01*
X69278702Y-41454322D01*
X69273123Y-41399604D01*
X69271035Y-41318511D01*
X69271381Y-41207144D01*
X69273100Y-41061602D01*
X69273637Y-41018069D01*
X69275572Y-40868005D01*
X69277304Y-40769842D01*
X69465092Y-40769842D01*
X69466148Y-40853164D01*
X69470838Y-40907680D01*
X69481451Y-40943637D01*
X69500272Y-40971282D01*
X69513050Y-40984765D01*
X69565290Y-41024217D01*
X69611542Y-41027428D01*
X69659267Y-40994849D01*
X69660477Y-40993646D01*
X69679894Y-40968468D01*
X69691707Y-40934247D01*
X69697665Y-40881548D01*
X69699520Y-40800931D01*
X69699554Y-40783071D01*
X69695070Y-40671975D01*
X69680474Y-40594961D01*
X69654050Y-40547947D01*
X69614083Y-40526850D01*
X69590984Y-40524723D01*
X69536162Y-40534700D01*
X69498558Y-40567552D01*
X69475923Y-40627657D01*
X69466006Y-40719398D01*
X69465092Y-40769842D01*
X69277304Y-40769842D01*
X69277622Y-40751860D01*
X69280273Y-40664479D01*
X69284006Y-40600705D01*
X69289307Y-40555382D01*
X69296658Y-40523355D01*
X69306543Y-40499468D01*
X69319446Y-40478564D01*
X69324979Y-40470698D01*
X69398369Y-40396395D01*
X69491160Y-40354267D01*
X69598496Y-40342522D01*
X69692286Y-40354305D01*
G37*
X75810733Y-40403328D02*
X75866990Y-40428917D01*
X75911147Y-40459924D01*
X75943501Y-40494595D01*
X75965838Y-40539320D01*
X75979946Y-40600492D01*
X75987611Y-40684501D01*
X75990620Y-40797740D01*
X75990938Y-40872309D01*
X75990938Y-41163220D01*
X75941173Y-41185895D01*
X75901976Y-41202467D01*
X75882557Y-41208569D01*
X75878842Y-41190410D01*
X75875895Y-41141448D01*
X75874091Y-41069953D01*
X75873708Y-41013185D01*
X75872061Y-40931171D01*
X75867622Y-40866109D01*
X75861140Y-40826267D01*
X75855990Y-40817800D01*
X75821377Y-40826446D01*
X75767040Y-40848623D01*
X75704122Y-40878686D01*
X75643768Y-40910992D01*
X75597121Y-40939898D01*
X75575326Y-40959761D01*
X75575239Y-40959975D01*
X75577114Y-40996735D01*
X75593925Y-41031826D01*
X75623439Y-41060328D01*
X75666516Y-41069861D01*
X75703332Y-41068750D01*
X75755474Y-41067933D01*
X75782844Y-41080149D01*
X75799282Y-41112424D01*
X75801355Y-41118510D01*
X75808481Y-41164539D01*
X75789424Y-41192487D01*
X75739753Y-41205807D01*
X75686097Y-41208270D01*
X75589542Y-41190010D01*
X75539559Y-41163931D01*
X75477829Y-41102668D01*
X75445090Y-41027470D01*
X75442153Y-40948011D01*
X75469824Y-40873967D01*
X75511447Y-40827569D01*
X75553004Y-40801593D01*
X75618322Y-40768707D01*
X75694438Y-40735357D01*
X75707126Y-40730261D01*
X75790733Y-40693365D01*
X75838930Y-40660846D01*
X75854430Y-40628518D01*
X75839950Y-40592194D01*
X75815092Y-40563800D01*
X75756339Y-40528839D01*
X75691693Y-40526217D01*
X75632408Y-40553158D01*
X75589739Y-40606888D01*
X75584139Y-40620750D01*
X75551533Y-40671736D01*
X75503930Y-40709587D01*
X75443861Y-40740650D01*
X75443861Y-40652568D01*
X75447397Y-40598751D01*
X75462556Y-40556334D01*
X75496168Y-40511079D01*
X75528435Y-40476220D01*
X75578609Y-40426862D01*
X75617593Y-40400347D01*
X75659464Y-40389711D01*
X75706860Y-40387954D01*
X75810733Y-40403328D01*
G36*
X75810733Y-40403328D02*
G01*
X75866990Y-40428917D01*
X75911147Y-40459924D01*
X75943501Y-40494595D01*
X75965838Y-40539320D01*
X75979946Y-40600492D01*
X75987611Y-40684501D01*
X75990620Y-40797740D01*
X75990938Y-40872309D01*
X75990938Y-41163220D01*
X75941173Y-41185895D01*
X75901976Y-41202467D01*
X75882557Y-41208569D01*
X75878842Y-41190410D01*
X75875895Y-41141448D01*
X75874091Y-41069953D01*
X75873708Y-41013185D01*
X75872061Y-40931171D01*
X75867622Y-40866109D01*
X75861140Y-40826267D01*
X75855990Y-40817800D01*
X75821377Y-40826446D01*
X75767040Y-40848623D01*
X75704122Y-40878686D01*
X75643768Y-40910992D01*
X75597121Y-40939898D01*
X75575326Y-40959761D01*
X75575239Y-40959975D01*
X75577114Y-40996735D01*
X75593925Y-41031826D01*
X75623439Y-41060328D01*
X75666516Y-41069861D01*
X75703332Y-41068750D01*
X75755474Y-41067933D01*
X75782844Y-41080149D01*
X75799282Y-41112424D01*
X75801355Y-41118510D01*
X75808481Y-41164539D01*
X75789424Y-41192487D01*
X75739753Y-41205807D01*
X75686097Y-41208270D01*
X75589542Y-41190010D01*
X75539559Y-41163931D01*
X75477829Y-41102668D01*
X75445090Y-41027470D01*
X75442153Y-40948011D01*
X75469824Y-40873967D01*
X75511447Y-40827569D01*
X75553004Y-40801593D01*
X75618322Y-40768707D01*
X75694438Y-40735357D01*
X75707126Y-40730261D01*
X75790733Y-40693365D01*
X75838930Y-40660846D01*
X75854430Y-40628518D01*
X75839950Y-40592194D01*
X75815092Y-40563800D01*
X75756339Y-40528839D01*
X75691693Y-40526217D01*
X75632408Y-40553158D01*
X75589739Y-40606888D01*
X75584139Y-40620750D01*
X75551533Y-40671736D01*
X75503930Y-40709587D01*
X75443861Y-40740650D01*
X75443861Y-40652568D01*
X75447397Y-40598751D01*
X75462556Y-40556334D01*
X75496168Y-40511079D01*
X75528435Y-40476220D01*
X75578609Y-40426862D01*
X75617593Y-40400347D01*
X75659464Y-40389711D01*
X75706860Y-40387954D01*
X75810733Y-40403328D01*
G37*
X73063278Y-34057576D02*
X73169012Y-34058155D01*
X73245532Y-34059722D01*
X73297772Y-34062772D01*
X73330663Y-34067796D01*
X73349137Y-34075289D01*
X73358127Y-34085744D01*
X73362563Y-34099653D01*
X73362994Y-34101454D01*
X73369733Y-34133945D01*
X73382208Y-34198052D01*
X73399119Y-34286951D01*
X73419171Y-34393819D01*
X73441064Y-34511833D01*
X73441829Y-34515978D01*
X73463759Y-34631631D01*
X73484277Y-34733814D01*
X73502059Y-34816398D01*
X73515781Y-34873256D01*
X73524118Y-34898258D01*
X73524516Y-34898701D01*
X73549077Y-34910910D01*
X73599715Y-34931256D01*
X73665495Y-34955345D01*
X73665861Y-34955474D01*
X73748717Y-34986618D01*
X73846400Y-35026291D01*
X73938477Y-35066181D01*
X73942834Y-35068153D01*
X74092807Y-35136220D01*
X74424898Y-34909439D01*
X74526774Y-34840304D01*
X74619057Y-34778497D01*
X74696403Y-34727533D01*
X74753464Y-34690927D01*
X74784895Y-34672194D01*
X74787879Y-34670804D01*
X74810721Y-34676990D01*
X74853382Y-34706835D01*
X74917528Y-34761747D01*
X75004821Y-34843134D01*
X75093935Y-34929722D01*
X75179841Y-35015047D01*
X75256727Y-35092908D01*
X75319964Y-35158497D01*
X75364923Y-35207005D01*
X75386976Y-35233625D01*
X75387796Y-35234995D01*
X75390234Y-35253263D01*
X75381050Y-35283095D01*
X75357974Y-35328521D01*
X75318737Y-35393570D01*
X75261070Y-35482270D01*
X75184195Y-35596457D01*
X75115970Y-35696962D01*
X75054982Y-35787103D01*
X75004756Y-35861649D01*
X74968816Y-35915365D01*
X74950687Y-35943018D01*
X74949546Y-35944895D01*
X74951759Y-35971390D01*
X74968538Y-36022886D01*
X74996542Y-36089651D01*
X75006522Y-36110972D01*
X75050072Y-36205959D01*
X75096534Y-36313737D01*
X75134277Y-36406992D01*
X75161473Y-36476206D01*
X75183075Y-36528806D01*
X75195558Y-36556297D01*
X75197109Y-36558416D01*
X75220068Y-36561924D01*
X75274186Y-36571538D01*
X75352268Y-36585889D01*
X75447119Y-36603607D01*
X75551543Y-36623325D01*
X75658344Y-36643674D01*
X75760326Y-36663286D01*
X75850294Y-36680791D01*
X75921053Y-36694822D01*
X75965406Y-36704009D01*
X75976285Y-36706607D01*
X75987522Y-36713018D01*
X75996005Y-36727497D01*
X76002114Y-36754933D01*
X76006232Y-36800211D01*
X76008741Y-36868220D01*
X76010021Y-36963847D01*
X76010454Y-37091980D01*
X76010477Y-37144501D01*
X76010477Y-37571645D01*
X75907900Y-37591891D01*
X75850831Y-37602870D01*
X75765669Y-37618895D01*
X75662772Y-37638033D01*
X75552496Y-37658351D01*
X75522015Y-37663932D01*
X75420255Y-37683717D01*
X75331605Y-37703173D01*
X75263508Y-37720497D01*
X75223404Y-37733888D01*
X75216723Y-37737879D01*
X75200319Y-37766142D01*
X75176799Y-37820909D01*
X75150716Y-37891388D01*
X75145542Y-37906569D01*
X75111356Y-38000696D01*
X75068923Y-38106901D01*
X75027397Y-38202273D01*
X75027192Y-38202716D01*
X74958040Y-38352325D01*
X75412912Y-39021417D01*
X75120900Y-39313916D01*
X75032580Y-39400970D01*
X74952025Y-39477709D01*
X74883760Y-39540037D01*
X74832308Y-39583856D01*
X74802194Y-39605070D01*
X74797874Y-39606416D01*
X74772511Y-39595816D01*
X74720758Y-39566347D01*
X74648268Y-39521505D01*
X74560694Y-39464784D01*
X74466012Y-39401262D01*
X74369916Y-39336468D01*
X74284237Y-39280087D01*
X74214416Y-39235588D01*
X74165894Y-39206439D01*
X74144182Y-39196108D01*
X74117693Y-39204850D01*
X74067462Y-39227887D01*
X74003851Y-39260431D01*
X73997108Y-39264049D01*
X73911446Y-39307010D01*
X73852706Y-39328079D01*
X73816172Y-39328303D01*
X73797131Y-39308728D01*
X73797020Y-39308454D01*
X73787502Y-39285272D01*
X73764803Y-39230241D01*
X73730682Y-39147622D01*
X73686900Y-39041672D01*
X73635216Y-38916652D01*
X73577392Y-38776820D01*
X73521391Y-38641437D01*
X73459847Y-38492034D01*
X73403339Y-38353632D01*
X73353561Y-38230473D01*
X73312206Y-38126802D01*
X73280968Y-38046859D01*
X73261541Y-37994888D01*
X73255554Y-37975492D01*
X73270568Y-37953243D01*
X73309839Y-37917782D01*
X73362207Y-37878687D01*
X73511341Y-37755045D01*
X73627911Y-37613322D01*
X73710518Y-37456504D01*
X73757766Y-37287575D01*
X73768257Y-37109522D01*
X73760631Y-37027339D01*
X73719082Y-36856831D01*
X73647523Y-36706259D01*
X73550395Y-36577109D01*
X73432134Y-36470864D01*
X73297180Y-36389010D01*
X73149971Y-36333032D01*
X72994944Y-36304415D01*
X72836539Y-36304644D01*
X72679194Y-36335205D01*
X72527346Y-36397582D01*
X72385435Y-36493260D01*
X72326203Y-36547372D01*
X72212603Y-36686320D01*
X72133506Y-36838161D01*
X72088386Y-36998467D01*
X72076716Y-37162812D01*
X72097969Y-37326771D01*
X72151620Y-37485918D01*
X72237140Y-37635825D01*
X72354005Y-37772067D01*
X72484593Y-37878687D01*
X72538988Y-37919442D01*
X72577414Y-37954518D01*
X72591246Y-37975526D01*
X72584003Y-37998435D01*
X72563405Y-38053165D01*
X72531146Y-38135472D01*
X72488921Y-38241115D01*
X72438423Y-38365850D01*
X72381348Y-38505436D01*
X72325254Y-38641470D01*
X72263367Y-38791001D01*
X72206044Y-38929567D01*
X72155044Y-39052907D01*
X72112127Y-39156764D01*
X72079053Y-39236880D01*
X72057581Y-39288995D01*
X72049625Y-39308454D01*
X72030829Y-39328223D01*
X71994474Y-39328165D01*
X71935879Y-39307241D01*
X71850368Y-39264413D01*
X71849692Y-39264049D01*
X71785307Y-39230812D01*
X71733261Y-39206602D01*
X71703912Y-39196204D01*
X71702617Y-39196108D01*
X71680524Y-39206655D01*
X71631748Y-39235984D01*
X71561731Y-39280627D01*
X71475914Y-39337114D01*
X71380788Y-39401262D01*
X71283940Y-39466211D01*
X71196653Y-39522696D01*
X71124581Y-39567221D01*
X71073377Y-39596290D01*
X71048926Y-39606416D01*
X71026410Y-39593107D01*
X70981142Y-39555912D01*
X70917644Y-39498928D01*
X70840439Y-39426249D01*
X70754051Y-39341971D01*
X70725799Y-39313816D01*
X70433687Y-39021216D01*
X70656031Y-38694904D01*
X70723602Y-38594697D01*
X70782907Y-38504763D01*
X70830617Y-38430310D01*
X70863407Y-38376551D01*
X70877948Y-38348694D01*
X70878374Y-38346712D01*
X70870708Y-38320455D01*
X70850089Y-38267637D01*
X70820085Y-38197110D01*
X70799025Y-38149893D01*
X70759648Y-38059494D01*
X70722565Y-37968166D01*
X70693815Y-37891000D01*
X70686005Y-37867492D01*
X70663817Y-37804716D01*
X70642127Y-37756211D01*
X70630213Y-37737879D01*
X70603923Y-37726659D01*
X70546542Y-37710754D01*
X70465518Y-37691967D01*
X70368295Y-37672099D01*
X70324785Y-37663932D01*
X70214296Y-37643629D01*
X70108316Y-37623970D01*
X70017201Y-37606888D01*
X69951308Y-37594318D01*
X69938900Y-37591891D01*
X69836323Y-37571645D01*
X69836323Y-37144501D01*
X69836553Y-37004046D01*
X69837499Y-36897779D01*
X69839541Y-36820813D01*
X69843062Y-36768260D01*
X69848443Y-36735233D01*
X69856066Y-36716845D01*
X69866312Y-36708208D01*
X69870515Y-36706607D01*
X69895870Y-36700927D01*
X69951884Y-36689595D01*
X70031364Y-36673979D01*
X70127112Y-36655447D01*
X70231933Y-36635369D01*
X70338632Y-36615112D01*
X70440013Y-36596046D01*
X70528879Y-36579539D01*
X70598037Y-36566959D01*
X70640289Y-36559675D01*
X70649690Y-36558416D01*
X70658207Y-36541563D01*
X70677060Y-36496670D01*
X70702724Y-36432230D01*
X70712523Y-36406992D01*
X70752048Y-36309486D01*
X70798592Y-36201759D01*
X70840277Y-36110972D01*
X70870950Y-36041553D01*
X70891356Y-35984510D01*
X70898168Y-35949577D01*
X70897082Y-35944895D01*
X70882685Y-35922791D01*
X70849812Y-35873631D01*
X70801990Y-35802648D01*
X70742748Y-35715078D01*
X70675615Y-35616157D01*
X70662341Y-35596630D01*
X70584446Y-35480940D01*
X70527187Y-35392844D01*
X70488281Y-35328286D01*
X70465444Y-35283211D01*
X70456394Y-35253563D01*
X70458848Y-35235285D01*
X70458911Y-35235169D01*
X70478227Y-35211161D01*
X70520951Y-35164747D01*
X70582451Y-35100737D01*
X70658098Y-35023945D01*
X70743261Y-34939182D01*
X70752865Y-34929722D01*
X70860190Y-34825789D01*
X70943015Y-34749475D01*
X71003005Y-34699371D01*
X71041823Y-34674070D01*
X71058920Y-34670804D01*
X71083873Y-34685050D01*
X71135655Y-34717956D01*
X71208920Y-34766008D01*
X71298320Y-34825690D01*
X71398511Y-34893488D01*
X71421901Y-34909439D01*
X71753993Y-35136220D01*
X71903965Y-35068153D01*
X71995170Y-35028485D01*
X72093069Y-34988591D01*
X72177231Y-34956783D01*
X72180938Y-34955474D01*
X72246769Y-34931376D01*
X72297516Y-34911000D01*
X72322242Y-34898736D01*
X72322284Y-34898701D01*
X72330129Y-34876534D01*
X72343466Y-34822017D01*
X72360970Y-34741280D01*
X72381317Y-34640450D01*
X72403182Y-34525656D01*
X72404971Y-34515978D01*
X72426904Y-34397704D01*
X72447040Y-34290342D01*
X72464080Y-34200717D01*
X72476728Y-34135651D01*
X72483684Y-34101968D01*
X72483806Y-34101454D01*
X72488039Y-34087125D01*
X72496271Y-34076307D01*
X72513433Y-34068506D01*
X72544458Y-34063229D01*
X72594278Y-34059982D01*
X72667824Y-34058272D01*
X72770029Y-34057607D01*
X72905825Y-34057493D01*
X72923400Y-34057492D01*
X73063278Y-34057576D01*
G36*
X73063278Y-34057576D02*
G01*
X73169012Y-34058155D01*
X73245532Y-34059722D01*
X73297772Y-34062772D01*
X73330663Y-34067796D01*
X73349137Y-34075289D01*
X73358127Y-34085744D01*
X73362563Y-34099653D01*
X73362994Y-34101454D01*
X73369733Y-34133945D01*
X73382208Y-34198052D01*
X73399119Y-34286951D01*
X73419171Y-34393819D01*
X73441064Y-34511833D01*
X73441829Y-34515978D01*
X73463759Y-34631631D01*
X73484277Y-34733814D01*
X73502059Y-34816398D01*
X73515781Y-34873256D01*
X73524118Y-34898258D01*
X73524516Y-34898701D01*
X73549077Y-34910910D01*
X73599715Y-34931256D01*
X73665495Y-34955345D01*
X73665861Y-34955474D01*
X73748717Y-34986618D01*
X73846400Y-35026291D01*
X73938477Y-35066181D01*
X73942834Y-35068153D01*
X74092807Y-35136220D01*
X74424898Y-34909439D01*
X74526774Y-34840304D01*
X74619057Y-34778497D01*
X74696403Y-34727533D01*
X74753464Y-34690927D01*
X74784895Y-34672194D01*
X74787879Y-34670804D01*
X74810721Y-34676990D01*
X74853382Y-34706835D01*
X74917528Y-34761747D01*
X75004821Y-34843134D01*
X75093935Y-34929722D01*
X75179841Y-35015047D01*
X75256727Y-35092908D01*
X75319964Y-35158497D01*
X75364923Y-35207005D01*
X75386976Y-35233625D01*
X75387796Y-35234995D01*
X75390234Y-35253263D01*
X75381050Y-35283095D01*
X75357974Y-35328521D01*
X75318737Y-35393570D01*
X75261070Y-35482270D01*
X75184195Y-35596457D01*
X75115970Y-35696962D01*
X75054982Y-35787103D01*
X75004756Y-35861649D01*
X74968816Y-35915365D01*
X74950687Y-35943018D01*
X74949546Y-35944895D01*
X74951759Y-35971390D01*
X74968538Y-36022886D01*
X74996542Y-36089651D01*
X75006522Y-36110972D01*
X75050072Y-36205959D01*
X75096534Y-36313737D01*
X75134277Y-36406992D01*
X75161473Y-36476206D01*
X75183075Y-36528806D01*
X75195558Y-36556297D01*
X75197109Y-36558416D01*
X75220068Y-36561924D01*
X75274186Y-36571538D01*
X75352268Y-36585889D01*
X75447119Y-36603607D01*
X75551543Y-36623325D01*
X75658344Y-36643674D01*
X75760326Y-36663286D01*
X75850294Y-36680791D01*
X75921053Y-36694822D01*
X75965406Y-36704009D01*
X75976285Y-36706607D01*
X75987522Y-36713018D01*
X75996005Y-36727497D01*
X76002114Y-36754933D01*
X76006232Y-36800211D01*
X76008741Y-36868220D01*
X76010021Y-36963847D01*
X76010454Y-37091980D01*
X76010477Y-37144501D01*
X76010477Y-37571645D01*
X75907900Y-37591891D01*
X75850831Y-37602870D01*
X75765669Y-37618895D01*
X75662772Y-37638033D01*
X75552496Y-37658351D01*
X75522015Y-37663932D01*
X75420255Y-37683717D01*
X75331605Y-37703173D01*
X75263508Y-37720497D01*
X75223404Y-37733888D01*
X75216723Y-37737879D01*
X75200319Y-37766142D01*
X75176799Y-37820909D01*
X75150716Y-37891388D01*
X75145542Y-37906569D01*
X75111356Y-38000696D01*
X75068923Y-38106901D01*
X75027397Y-38202273D01*
X75027192Y-38202716D01*
X74958040Y-38352325D01*
X75412912Y-39021417D01*
X75120900Y-39313916D01*
X75032580Y-39400970D01*
X74952025Y-39477709D01*
X74883760Y-39540037D01*
X74832308Y-39583856D01*
X74802194Y-39605070D01*
X74797874Y-39606416D01*
X74772511Y-39595816D01*
X74720758Y-39566347D01*
X74648268Y-39521505D01*
X74560694Y-39464784D01*
X74466012Y-39401262D01*
X74369916Y-39336468D01*
X74284237Y-39280087D01*
X74214416Y-39235588D01*
X74165894Y-39206439D01*
X74144182Y-39196108D01*
X74117693Y-39204850D01*
X74067462Y-39227887D01*
X74003851Y-39260431D01*
X73997108Y-39264049D01*
X73911446Y-39307010D01*
X73852706Y-39328079D01*
X73816172Y-39328303D01*
X73797131Y-39308728D01*
X73797020Y-39308454D01*
X73787502Y-39285272D01*
X73764803Y-39230241D01*
X73730682Y-39147622D01*
X73686900Y-39041672D01*
X73635216Y-38916652D01*
X73577392Y-38776820D01*
X73521391Y-38641437D01*
X73459847Y-38492034D01*
X73403339Y-38353632D01*
X73353561Y-38230473D01*
X73312206Y-38126802D01*
X73280968Y-38046859D01*
X73261541Y-37994888D01*
X73255554Y-37975492D01*
X73270568Y-37953243D01*
X73309839Y-37917782D01*
X73362207Y-37878687D01*
X73511341Y-37755045D01*
X73627911Y-37613322D01*
X73710518Y-37456504D01*
X73757766Y-37287575D01*
X73768257Y-37109522D01*
X73760631Y-37027339D01*
X73719082Y-36856831D01*
X73647523Y-36706259D01*
X73550395Y-36577109D01*
X73432134Y-36470864D01*
X73297180Y-36389010D01*
X73149971Y-36333032D01*
X72994944Y-36304415D01*
X72836539Y-36304644D01*
X72679194Y-36335205D01*
X72527346Y-36397582D01*
X72385435Y-36493260D01*
X72326203Y-36547372D01*
X72212603Y-36686320D01*
X72133506Y-36838161D01*
X72088386Y-36998467D01*
X72076716Y-37162812D01*
X72097969Y-37326771D01*
X72151620Y-37485918D01*
X72237140Y-37635825D01*
X72354005Y-37772067D01*
X72484593Y-37878687D01*
X72538988Y-37919442D01*
X72577414Y-37954518D01*
X72591246Y-37975526D01*
X72584003Y-37998435D01*
X72563405Y-38053165D01*
X72531146Y-38135472D01*
X72488921Y-38241115D01*
X72438423Y-38365850D01*
X72381348Y-38505436D01*
X72325254Y-38641470D01*
X72263367Y-38791001D01*
X72206044Y-38929567D01*
X72155044Y-39052907D01*
X72112127Y-39156764D01*
X72079053Y-39236880D01*
X72057581Y-39288995D01*
X72049625Y-39308454D01*
X72030829Y-39328223D01*
X71994474Y-39328165D01*
X71935879Y-39307241D01*
X71850368Y-39264413D01*
X71849692Y-39264049D01*
X71785307Y-39230812D01*
X71733261Y-39206602D01*
X71703912Y-39196204D01*
X71702617Y-39196108D01*
X71680524Y-39206655D01*
X71631748Y-39235984D01*
X71561731Y-39280627D01*
X71475914Y-39337114D01*
X71380788Y-39401262D01*
X71283940Y-39466211D01*
X71196653Y-39522696D01*
X71124581Y-39567221D01*
X71073377Y-39596290D01*
X71048926Y-39606416D01*
X71026410Y-39593107D01*
X70981142Y-39555912D01*
X70917644Y-39498928D01*
X70840439Y-39426249D01*
X70754051Y-39341971D01*
X70725799Y-39313816D01*
X70433687Y-39021216D01*
X70656031Y-38694904D01*
X70723602Y-38594697D01*
X70782907Y-38504763D01*
X70830617Y-38430310D01*
X70863407Y-38376551D01*
X70877948Y-38348694D01*
X70878374Y-38346712D01*
X70870708Y-38320455D01*
X70850089Y-38267637D01*
X70820085Y-38197110D01*
X70799025Y-38149893D01*
X70759648Y-38059494D01*
X70722565Y-37968166D01*
X70693815Y-37891000D01*
X70686005Y-37867492D01*
X70663817Y-37804716D01*
X70642127Y-37756211D01*
X70630213Y-37737879D01*
X70603923Y-37726659D01*
X70546542Y-37710754D01*
X70465518Y-37691967D01*
X70368295Y-37672099D01*
X70324785Y-37663932D01*
X70214296Y-37643629D01*
X70108316Y-37623970D01*
X70017201Y-37606888D01*
X69951308Y-37594318D01*
X69938900Y-37591891D01*
X69836323Y-37571645D01*
X69836323Y-37144501D01*
X69836553Y-37004046D01*
X69837499Y-36897779D01*
X69839541Y-36820813D01*
X69843062Y-36768260D01*
X69848443Y-36735233D01*
X69856066Y-36716845D01*
X69866312Y-36708208D01*
X69870515Y-36706607D01*
X69895870Y-36700927D01*
X69951884Y-36689595D01*
X70031364Y-36673979D01*
X70127112Y-36655447D01*
X70231933Y-36635369D01*
X70338632Y-36615112D01*
X70440013Y-36596046D01*
X70528879Y-36579539D01*
X70598037Y-36566959D01*
X70640289Y-36559675D01*
X70649690Y-36558416D01*
X70658207Y-36541563D01*
X70677060Y-36496670D01*
X70702724Y-36432230D01*
X70712523Y-36406992D01*
X70752048Y-36309486D01*
X70798592Y-36201759D01*
X70840277Y-36110972D01*
X70870950Y-36041553D01*
X70891356Y-35984510D01*
X70898168Y-35949577D01*
X70897082Y-35944895D01*
X70882685Y-35922791D01*
X70849812Y-35873631D01*
X70801990Y-35802648D01*
X70742748Y-35715078D01*
X70675615Y-35616157D01*
X70662341Y-35596630D01*
X70584446Y-35480940D01*
X70527187Y-35392844D01*
X70488281Y-35328286D01*
X70465444Y-35283211D01*
X70456394Y-35253563D01*
X70458848Y-35235285D01*
X70458911Y-35235169D01*
X70478227Y-35211161D01*
X70520951Y-35164747D01*
X70582451Y-35100737D01*
X70658098Y-35023945D01*
X70743261Y-34939182D01*
X70752865Y-34929722D01*
X70860190Y-34825789D01*
X70943015Y-34749475D01*
X71003005Y-34699371D01*
X71041823Y-34674070D01*
X71058920Y-34670804D01*
X71083873Y-34685050D01*
X71135655Y-34717956D01*
X71208920Y-34766008D01*
X71298320Y-34825690D01*
X71398511Y-34893488D01*
X71421901Y-34909439D01*
X71753993Y-35136220D01*
X71903965Y-35068153D01*
X71995170Y-35028485D01*
X72093069Y-34988591D01*
X72177231Y-34956783D01*
X72180938Y-34955474D01*
X72246769Y-34931376D01*
X72297516Y-34911000D01*
X72322242Y-34898736D01*
X72322284Y-34898701D01*
X72330129Y-34876534D01*
X72343466Y-34822017D01*
X72360970Y-34741280D01*
X72381317Y-34640450D01*
X72403182Y-34525656D01*
X72404971Y-34515978D01*
X72426904Y-34397704D01*
X72447040Y-34290342D01*
X72464080Y-34200717D01*
X72476728Y-34135651D01*
X72483684Y-34101968D01*
X72483806Y-34101454D01*
X72488039Y-34087125D01*
X72496271Y-34076307D01*
X72513433Y-34068506D01*
X72544458Y-34063229D01*
X72594278Y-34059982D01*
X72667824Y-34058272D01*
X72770029Y-34057607D01*
X72905825Y-34057493D01*
X72923400Y-34057492D01*
X73063278Y-34057576D01*
G37*
D13*
%TO.C,D3*%
X83795000Y-49255000D02*
X83795000Y-52345000D01*
X83795000Y-49255170D02*
G75*
G02*
X89345000Y-50799952I2560000J-1544830D01*
G01*
X89345000Y-50800048D02*
G75*
G02*
X83795000Y-52344830I-2990000J48D01*
G01*
X88855000Y-50800000D02*
G75*
G02*
X83855000Y-50800000I-2500000J0D01*
G01*
X83855000Y-50800000D02*
G75*
G02*
X88855000Y-50800000I2500000J0D01*
G01*
%TO.C,J3*%
X81661000Y-83654000D02*
X81661000Y-99542000D01*
X91580000Y-83654000D02*
X81661000Y-83654000D01*
X91580000Y-83654000D02*
X91580000Y-99504000D01*
X91580000Y-99542000D02*
X81661000Y-99542000D01*
%TO.C,D4*%
X98019000Y-49255000D02*
X98019000Y-52345000D01*
X98019000Y-49255170D02*
G75*
G02*
X103569000Y-50799952I2560000J-1544830D01*
G01*
X103569000Y-50800048D02*
G75*
G02*
X98019000Y-52344830I-2990000J48D01*
G01*
X103079000Y-50800000D02*
G75*
G02*
X98079000Y-50800000I-2500000J0D01*
G01*
X98079000Y-50800000D02*
G75*
G02*
X103079000Y-50800000I2500000J0D01*
G01*
%TO.C,D1*%
X53066000Y-49255000D02*
X53066000Y-52345000D01*
X53066000Y-49255170D02*
G75*
G02*
X58616000Y-50799952I2560000J-1544830D01*
G01*
X58616000Y-50800048D02*
G75*
G02*
X53066000Y-52344830I-2990000J48D01*
G01*
X58126000Y-50800000D02*
G75*
G02*
X53126000Y-50800000I-2500000J0D01*
G01*
X53126000Y-50800000D02*
G75*
G02*
X58126000Y-50800000I2500000J0D01*
G01*
%TO.C,D5*%
X114026000Y-49255000D02*
X114026000Y-52345000D01*
X114026000Y-49255170D02*
G75*
G02*
X119576000Y-50799952I2560000J-1544830D01*
G01*
X119576000Y-50800048D02*
G75*
G02*
X114026000Y-52344830I-2990000J48D01*
G01*
X119086000Y-50800000D02*
G75*
G02*
X114086000Y-50800000I-2500000J0D01*
G01*
X114086000Y-50800000D02*
G75*
G02*
X119086000Y-50800000I2500000J0D01*
G01*
%TO.C,J2*%
X66421000Y-83654000D02*
X66421000Y-99542000D01*
X76340000Y-83654000D02*
X66421000Y-83654000D01*
X76340000Y-83654000D02*
X76340000Y-99504000D01*
X76340000Y-99542000D02*
X66421000Y-99542000D01*
%TO.C,R1*%
X64870000Y-53816000D02*
X64540000Y-53816000D01*
X64870000Y-47276000D02*
X64870000Y-53816000D01*
X64540000Y-47276000D02*
X64870000Y-47276000D01*
X62460000Y-47276000D02*
X62130000Y-47276000D01*
X62130000Y-53816000D02*
X62460000Y-53816000D01*
X62130000Y-47276000D02*
X62130000Y-53816000D01*
%TO.C,D6*%
X128758000Y-49255000D02*
X128758000Y-52345000D01*
X128758000Y-49255170D02*
G75*
G02*
X134308000Y-50799952I2560000J-1544830D01*
G01*
X134308000Y-50800048D02*
G75*
G02*
X128758000Y-52344830I-2990000J48D01*
G01*
X133818000Y-50800000D02*
G75*
G02*
X128818000Y-50800000I-2500000J0D01*
G01*
X128818000Y-50800000D02*
G75*
G02*
X133818000Y-50800000I2500000J0D01*
G01*
%TO.C,R5*%
X125830000Y-53816000D02*
X125830000Y-47276000D01*
X125830000Y-47276000D02*
X125500000Y-47276000D01*
X125500000Y-53816000D02*
X125830000Y-53816000D01*
X123420000Y-53816000D02*
X123090000Y-53816000D01*
X123090000Y-53816000D02*
X123090000Y-47276000D01*
X123090000Y-47276000D02*
X123420000Y-47276000D01*
%TO.C,R2*%
X79602000Y-53816000D02*
X79602000Y-47276000D01*
X79602000Y-47276000D02*
X79272000Y-47276000D01*
X79272000Y-53816000D02*
X79602000Y-53816000D01*
X77192000Y-53816000D02*
X76862000Y-53816000D01*
X76862000Y-53816000D02*
X76862000Y-47276000D01*
X76862000Y-47276000D02*
X77192000Y-47276000D01*
D14*
%TO.C,F5*%
X120381000Y-77777800D02*
X113616000Y-77777800D01*
X120381000Y-57967800D02*
X120381000Y-77777800D01*
X113616000Y-77777800D02*
X113616000Y-57967800D01*
X113616000Y-57967800D02*
X120381000Y-57967800D01*
D13*
%TO.C,R3*%
X94842000Y-53816000D02*
X94842000Y-47276000D01*
X94842000Y-47276000D02*
X94512000Y-47276000D01*
X94512000Y-53816000D02*
X94842000Y-53816000D01*
X92432000Y-53816000D02*
X92102000Y-53816000D01*
X92102000Y-53816000D02*
X92102000Y-47276000D01*
X92102000Y-47276000D02*
X92432000Y-47276000D01*
%TO.C,J6*%
X127381000Y-83654000D02*
X127381000Y-99542000D01*
X137300000Y-83654000D02*
X127381000Y-83654000D01*
X137300000Y-83654000D02*
X137300000Y-99504000D01*
X137300000Y-99542000D02*
X127381000Y-99542000D01*
%TO.C,J4*%
X96901000Y-83654000D02*
X96901000Y-99542000D01*
X106820000Y-83654000D02*
X96901000Y-83654000D01*
X106820000Y-83654000D02*
X106820000Y-99504000D01*
X106820000Y-99542000D02*
X96901000Y-99542000D01*
D14*
%TO.C,F2*%
X74502500Y-77777800D02*
X67737500Y-77777800D01*
X74502500Y-57967800D02*
X74502500Y-77777800D01*
X67737500Y-77777800D02*
X67737500Y-57967800D01*
X67737500Y-57967800D02*
X74502500Y-57967800D01*
D13*
%TO.C,R4*%
X109574000Y-53816000D02*
X109574000Y-47276000D01*
X109574000Y-47276000D02*
X109244000Y-47276000D01*
X109244000Y-53816000D02*
X109574000Y-53816000D01*
X107164000Y-53816000D02*
X106834000Y-53816000D01*
X106834000Y-53816000D02*
X106834000Y-47276000D01*
X106834000Y-47276000D02*
X107164000Y-47276000D01*
%TO.C,D2*%
X68306000Y-49255000D02*
X68306000Y-52345000D01*
X68306000Y-49255170D02*
G75*
G02*
X73856000Y-50799952I2560000J-1544830D01*
G01*
X73856000Y-50800048D02*
G75*
G02*
X68306000Y-52344830I-2990000J48D01*
G01*
X73366000Y-50800000D02*
G75*
G02*
X68366000Y-50800000I-2500000J0D01*
G01*
X68366000Y-50800000D02*
G75*
G02*
X73366000Y-50800000I2500000J0D01*
G01*
%TO.C,R6*%
X138022000Y-53816000D02*
X138022000Y-47276000D01*
X138022000Y-47276000D02*
X137692000Y-47276000D01*
X137692000Y-53816000D02*
X138022000Y-53816000D01*
X135612000Y-53816000D02*
X135282000Y-53816000D01*
X135282000Y-53816000D02*
X135282000Y-47276000D01*
X135282000Y-47276000D02*
X135612000Y-47276000D01*
%TO.C,J1*%
X51181000Y-83654000D02*
X51181000Y-99542000D01*
X61100000Y-83654000D02*
X51181000Y-83654000D01*
X61100000Y-83654000D02*
X61100000Y-99504000D01*
X61100000Y-99542000D02*
X51181000Y-99542000D01*
%TO.C,J5*%
X112141000Y-83654000D02*
X112141000Y-99542000D01*
X122060000Y-83654000D02*
X112141000Y-83654000D01*
X122060000Y-83654000D02*
X122060000Y-99504000D01*
X122060000Y-99542000D02*
X112141000Y-99542000D01*
D14*
%TO.C,F3*%
X89742500Y-77777800D02*
X82977500Y-77777800D01*
X89742500Y-57967800D02*
X89742500Y-77777800D01*
X82977500Y-77777800D02*
X82977500Y-57967800D01*
X82977500Y-57967800D02*
X89742500Y-57967800D01*
%TO.C,F4*%
X105119200Y-77777800D02*
X98354200Y-77777800D01*
X105119200Y-57967800D02*
X105119200Y-77777800D01*
X98354200Y-77777800D02*
X98354200Y-57967800D01*
X98354200Y-57967800D02*
X105119200Y-57967800D01*
%TO.C,F6*%
X135621000Y-77777800D02*
X128856000Y-77777800D01*
X135621000Y-57967800D02*
X135621000Y-77777800D01*
X128856000Y-77777800D02*
X128856000Y-57967800D01*
X128856000Y-57967800D02*
X135621000Y-57967800D01*
%TO.C,F1*%
X59262500Y-77777800D02*
X52497500Y-77777800D01*
X59262500Y-57967800D02*
X59262500Y-77777800D01*
X52497500Y-77777800D02*
X52497500Y-57967800D01*
X52497500Y-57967800D02*
X59262500Y-57967800D01*
%TD*%
%LPC*%
D15*
%TO.C,D3*%
X85085000Y-50800000D03*
D16*
X87625000Y-50800000D03*
%TD*%
D17*
%TO.C,J3*%
X84836000Y-87604000D03*
X84836000Y-95504000D03*
%TD*%
D15*
%TO.C,D4*%
X99309000Y-50800000D03*
D16*
X101849000Y-50800000D03*
%TD*%
D15*
%TO.C,D1*%
X54356000Y-50800000D03*
D16*
X56896000Y-50800000D03*
%TD*%
D15*
%TO.C,D5*%
X115316000Y-50800000D03*
D16*
X117856000Y-50800000D03*
%TD*%
D17*
%TO.C,J2*%
X69596000Y-87604000D03*
X69596000Y-95504000D03*
%TD*%
D18*
%TO.C,R1*%
X63500000Y-54356000D03*
D19*
X63500000Y-46736000D03*
%TD*%
D15*
%TO.C,D6*%
X130048000Y-50800000D03*
D16*
X132588000Y-50800000D03*
%TD*%
D18*
%TO.C,R5*%
X124460000Y-46736000D03*
D19*
X124460000Y-54356000D03*
%TD*%
D18*
%TO.C,R2*%
X78232000Y-46736000D03*
D19*
X78232000Y-54356000D03*
%TD*%
D20*
%TO.C,F5*%
X115316000Y-61137800D03*
X118716000Y-61137800D03*
X118716000Y-74607800D03*
X115316000Y-74607800D03*
%TD*%
D18*
%TO.C,R3*%
X93472000Y-46736000D03*
D19*
X93472000Y-54356000D03*
%TD*%
D17*
%TO.C,J6*%
X130556000Y-87604000D03*
X130556000Y-95504000D03*
%TD*%
D21*
%TO.C,REF\u002A\u002A*%
X131064000Y-39116000D03*
%TD*%
%TO.C,REF\u002A\u002A*%
X54356000Y-39116000D03*
%TD*%
D17*
%TO.C,J4*%
X100076000Y-87604000D03*
X100076000Y-95504000D03*
%TD*%
D21*
%TO.C,REF\u002A\u002A*%
X56140500Y-105664000D03*
%TD*%
D20*
%TO.C,F2*%
X69437500Y-61137800D03*
X72837500Y-61137800D03*
X72837500Y-74607800D03*
X69437500Y-74607800D03*
%TD*%
D18*
%TO.C,R4*%
X108204000Y-46736000D03*
D19*
X108204000Y-54356000D03*
%TD*%
D21*
%TO.C,REF\u002A\u002A*%
X93472000Y-39116000D03*
%TD*%
D15*
%TO.C,D2*%
X69596000Y-50800000D03*
D16*
X72136000Y-50800000D03*
%TD*%
D18*
%TO.C,R6*%
X136652000Y-46736000D03*
D19*
X136652000Y-54356000D03*
%TD*%
D17*
%TO.C,J1*%
X54356000Y-87604000D03*
X54356000Y-95504000D03*
%TD*%
D21*
%TO.C,REF\u002A\u002A*%
X132340500Y-105664000D03*
%TD*%
%TO.C,REF\u002A\u002A*%
X94240500Y-105664000D03*
%TD*%
D17*
%TO.C,J5*%
X115316000Y-87604000D03*
X115316000Y-95504000D03*
%TD*%
D20*
%TO.C,F3*%
X84677500Y-61137800D03*
X88077500Y-61137800D03*
X88077500Y-74607800D03*
X84677500Y-74607800D03*
%TD*%
%TO.C,F4*%
X100054200Y-61137800D03*
X103454200Y-61137800D03*
X103454200Y-74607800D03*
X100054200Y-74607800D03*
%TD*%
%TO.C,F6*%
X130556000Y-61137800D03*
X133956000Y-61137800D03*
X133956000Y-74607800D03*
X130556000Y-74607800D03*
%TD*%
%TO.C,F1*%
X54197500Y-61137800D03*
X57597500Y-61137800D03*
X57597500Y-74607800D03*
X54197500Y-74607800D03*
%TD*%
%LPD*%
M02*
