%TF.GenerationSoftware,KiCad,Pcbnew,8.0.6*%
%TF.CreationDate,2024-11-19T18:22:25+00:00*%
%TF.ProjectId,PowerPole,506f7765-7250-46f6-9c65-2e6b69636164,rev?*%
%TF.SameCoordinates,Original*%
%TF.FileFunction,Legend,Top*%
%TF.FilePolarity,Positive*%
%FSLAX46Y46*%
G04 Gerber Fmt 4.6, Leading zero omitted, Abs format (unit mm)*
G04 Created by KiCad (PCBNEW 8.0.6) date 2024-11-19 18:22:25*
%MOMM*%
%LPD*%
G01*
G04 APERTURE LIST*
%ADD10C,0.150000*%
%ADD11C,0.120000*%
G04 APERTURE END LIST*
D10*
X111970319Y-34470333D02*
X112684604Y-34470333D01*
X112684604Y-34470333D02*
X112827461Y-34517952D01*
X112827461Y-34517952D02*
X112922700Y-34613190D01*
X112922700Y-34613190D02*
X112970319Y-34756047D01*
X112970319Y-34756047D02*
X112970319Y-34851285D01*
X111970319Y-33565571D02*
X111970319Y-33756047D01*
X111970319Y-33756047D02*
X112017938Y-33851285D01*
X112017938Y-33851285D02*
X112065557Y-33898904D01*
X112065557Y-33898904D02*
X112208414Y-33994142D01*
X112208414Y-33994142D02*
X112398890Y-34041761D01*
X112398890Y-34041761D02*
X112779842Y-34041761D01*
X112779842Y-34041761D02*
X112875080Y-33994142D01*
X112875080Y-33994142D02*
X112922700Y-33946523D01*
X112922700Y-33946523D02*
X112970319Y-33851285D01*
X112970319Y-33851285D02*
X112970319Y-33660809D01*
X112970319Y-33660809D02*
X112922700Y-33565571D01*
X112922700Y-33565571D02*
X112875080Y-33517952D01*
X112875080Y-33517952D02*
X112779842Y-33470333D01*
X112779842Y-33470333D02*
X112541747Y-33470333D01*
X112541747Y-33470333D02*
X112446509Y-33517952D01*
X112446509Y-33517952D02*
X112398890Y-33565571D01*
X112398890Y-33565571D02*
X112351271Y-33660809D01*
X112351271Y-33660809D02*
X112351271Y-33851285D01*
X112351271Y-33851285D02*
X112398890Y-33946523D01*
X112398890Y-33946523D02*
X112446509Y-33994142D01*
X112446509Y-33994142D02*
X112541747Y-34041761D01*
X102429366Y-27278951D02*
X102429366Y-26517047D01*
X102810319Y-26897999D02*
X102048414Y-26897999D01*
X96730319Y-34470333D02*
X97444604Y-34470333D01*
X97444604Y-34470333D02*
X97587461Y-34517952D01*
X97587461Y-34517952D02*
X97682700Y-34613190D01*
X97682700Y-34613190D02*
X97730319Y-34756047D01*
X97730319Y-34756047D02*
X97730319Y-34851285D01*
X96730319Y-33517952D02*
X96730319Y-33994142D01*
X96730319Y-33994142D02*
X97206509Y-34041761D01*
X97206509Y-34041761D02*
X97158890Y-33994142D01*
X97158890Y-33994142D02*
X97111271Y-33898904D01*
X97111271Y-33898904D02*
X97111271Y-33660809D01*
X97111271Y-33660809D02*
X97158890Y-33565571D01*
X97158890Y-33565571D02*
X97206509Y-33517952D01*
X97206509Y-33517952D02*
X97301747Y-33470333D01*
X97301747Y-33470333D02*
X97539842Y-33470333D01*
X97539842Y-33470333D02*
X97635080Y-33517952D01*
X97635080Y-33517952D02*
X97682700Y-33565571D01*
X97682700Y-33565571D02*
X97730319Y-33660809D01*
X97730319Y-33660809D02*
X97730319Y-33898904D01*
X97730319Y-33898904D02*
X97682700Y-33994142D01*
X97682700Y-33994142D02*
X97635080Y-34041761D01*
X87189366Y-27278951D02*
X87189366Y-26517047D01*
X87570319Y-26897999D02*
X86808414Y-26897999D01*
X81490319Y-34470333D02*
X82204604Y-34470333D01*
X82204604Y-34470333D02*
X82347461Y-34517952D01*
X82347461Y-34517952D02*
X82442700Y-34613190D01*
X82442700Y-34613190D02*
X82490319Y-34756047D01*
X82490319Y-34756047D02*
X82490319Y-34851285D01*
X81823652Y-33565571D02*
X82490319Y-33565571D01*
X81442700Y-33803666D02*
X82156985Y-34041761D01*
X82156985Y-34041761D02*
X82156985Y-33422714D01*
X71949366Y-27278951D02*
X71949366Y-26517047D01*
X72330319Y-26897999D02*
X71568414Y-26897999D01*
X66250319Y-34470333D02*
X66964604Y-34470333D01*
X66964604Y-34470333D02*
X67107461Y-34517952D01*
X67107461Y-34517952D02*
X67202700Y-34613190D01*
X67202700Y-34613190D02*
X67250319Y-34756047D01*
X67250319Y-34756047D02*
X67250319Y-34851285D01*
X66250319Y-34089380D02*
X66250319Y-33470333D01*
X66250319Y-33470333D02*
X66631271Y-33803666D01*
X66631271Y-33803666D02*
X66631271Y-33660809D01*
X66631271Y-33660809D02*
X66678890Y-33565571D01*
X66678890Y-33565571D02*
X66726509Y-33517952D01*
X66726509Y-33517952D02*
X66821747Y-33470333D01*
X66821747Y-33470333D02*
X67059842Y-33470333D01*
X67059842Y-33470333D02*
X67155080Y-33517952D01*
X67155080Y-33517952D02*
X67202700Y-33565571D01*
X67202700Y-33565571D02*
X67250319Y-33660809D01*
X67250319Y-33660809D02*
X67250319Y-33946523D01*
X67250319Y-33946523D02*
X67202700Y-34041761D01*
X67202700Y-34041761D02*
X67155080Y-34089380D01*
X56709366Y-27278951D02*
X56709366Y-26517047D01*
X57090319Y-26897999D02*
X56328414Y-26897999D01*
X51010319Y-34470333D02*
X51724604Y-34470333D01*
X51724604Y-34470333D02*
X51867461Y-34517952D01*
X51867461Y-34517952D02*
X51962700Y-34613190D01*
X51962700Y-34613190D02*
X52010319Y-34756047D01*
X52010319Y-34756047D02*
X52010319Y-34851285D01*
X51105557Y-34041761D02*
X51057938Y-33994142D01*
X51057938Y-33994142D02*
X51010319Y-33898904D01*
X51010319Y-33898904D02*
X51010319Y-33660809D01*
X51010319Y-33660809D02*
X51057938Y-33565571D01*
X51057938Y-33565571D02*
X51105557Y-33517952D01*
X51105557Y-33517952D02*
X51200795Y-33470333D01*
X51200795Y-33470333D02*
X51296033Y-33470333D01*
X51296033Y-33470333D02*
X51438890Y-33517952D01*
X51438890Y-33517952D02*
X52010319Y-34089380D01*
X52010319Y-34089380D02*
X52010319Y-33470333D01*
X41469366Y-27278951D02*
X41469366Y-26517047D01*
X41850319Y-26897999D02*
X41088414Y-26897999D01*
X35770319Y-34470333D02*
X36484604Y-34470333D01*
X36484604Y-34470333D02*
X36627461Y-34517952D01*
X36627461Y-34517952D02*
X36722700Y-34613190D01*
X36722700Y-34613190D02*
X36770319Y-34756047D01*
X36770319Y-34756047D02*
X36770319Y-34851285D01*
X36770319Y-33470333D02*
X36770319Y-34041761D01*
X36770319Y-33756047D02*
X35770319Y-33756047D01*
X35770319Y-33756047D02*
X35913176Y-33851285D01*
X35913176Y-33851285D02*
X36008414Y-33946523D01*
X36008414Y-33946523D02*
X36056033Y-34041761D01*
X26229366Y-27278951D02*
X26229366Y-26517047D01*
X26610319Y-26897999D02*
X25848414Y-26897999D01*
D11*
%TO.C,J6*%
X111639500Y-26250000D02*
X101720500Y-26250000D01*
X111639500Y-26250000D02*
X111639500Y-42100000D01*
X101720500Y-26250000D02*
X101720500Y-42138000D01*
X111639500Y-42138000D02*
X101720500Y-42138000D01*
%TO.C,J5*%
X96399500Y-26250000D02*
X86480500Y-26250000D01*
X96399500Y-26250000D02*
X96399500Y-42100000D01*
X86480500Y-26250000D02*
X86480500Y-42138000D01*
X96399500Y-42138000D02*
X86480500Y-42138000D01*
%TO.C,J4*%
X81159500Y-26250000D02*
X71240500Y-26250000D01*
X81159500Y-26250000D02*
X81159500Y-42100000D01*
X71240500Y-26250000D02*
X71240500Y-42138000D01*
X81159500Y-42138000D02*
X71240500Y-42138000D01*
%TO.C,J3*%
X65919500Y-26250000D02*
X56000500Y-26250000D01*
X65919500Y-26250000D02*
X65919500Y-42100000D01*
X56000500Y-26250000D02*
X56000500Y-42138000D01*
X65919500Y-42138000D02*
X56000500Y-42138000D01*
%TO.C,J2*%
X50679500Y-26250000D02*
X40760500Y-26250000D01*
X50679500Y-26250000D02*
X50679500Y-42100000D01*
X40760500Y-26250000D02*
X40760500Y-42138000D01*
X50679500Y-42138000D02*
X40760500Y-42138000D01*
%TO.C,J1*%
X35439500Y-42138000D02*
X25520500Y-42138000D01*
X25520500Y-26250000D02*
X25520500Y-42138000D01*
X35439500Y-26250000D02*
X35439500Y-42100000D01*
X35439500Y-26250000D02*
X25520500Y-26250000D01*
%TD*%
M02*
