M48
; DRILL file {KiCad 8.0.8-2.fc41} date 2025-02-20T10:07:39+0000
; FORMAT={-:-/ absolute / metric / decimal}
; #@! TF.CreationDate,2025-02-20T10:07:39+00:00
; #@! TF.GenerationSoftware,Kicad,Pcbnew,8.0.8-2.fc41
; #@! TF.FileFunction,Plated,1,2,PTH
FMAT,2
METRIC
; #@! TA.AperFunction,Plated,PTH,ComponentDrill
T1C0.800
; #@! TA.AperFunction,Plated,PTH,ComponentDrill
T2C0.900
; #@! TA.AperFunction,Plated,PTH,ComponentDrill
T3C1.200
; #@! TA.AperFunction,Plated,PTH,ComponentDrill
T4C1.600
%
G90
G05
T1
X63.5Y-46.736
X63.5Y-54.356
X78.232Y-46.736
X78.232Y-54.356
X93.472Y-46.736
X93.472Y-54.356
X108.204Y-46.736
X108.204Y-54.356
X124.46Y-46.736
X124.46Y-54.356
X136.652Y-46.736
X136.652Y-54.356
T2
X54.356Y-50.8
X56.896Y-50.8
X69.596Y-50.8
X72.136Y-50.8
X85.085Y-50.8
X87.625Y-50.8
X99.309Y-50.8
X101.849Y-50.8
X115.316Y-50.8
X117.856Y-50.8
X130.048Y-50.8
X132.588Y-50.8
T4
X54.197Y-61.138
X54.197Y-74.608
X57.597Y-61.138
X57.597Y-74.608
X69.438Y-61.138
X69.438Y-74.608
X72.837Y-61.138
X72.837Y-74.608
X84.677Y-61.138
X84.677Y-74.608
X88.078Y-61.138
X88.078Y-74.608
X100.054Y-61.138
X100.054Y-74.608
X103.454Y-61.138
X103.454Y-74.608
X115.316Y-61.138
X115.316Y-74.608
X118.716Y-61.138
X118.716Y-74.608
X130.556Y-61.138
X130.556Y-74.608
X133.956Y-61.138
X133.956Y-74.608
T3
X54.356Y-86.004G85X54.356Y-89.204
G05
X54.356Y-93.904G85X54.356Y-97.104
G05
X69.596Y-86.004G85X69.596Y-89.204
G05
X69.596Y-93.904G85X69.596Y-97.104
G05
X84.836Y-86.004G85X84.836Y-89.204
G05
X84.836Y-93.904G85X84.836Y-97.104
G05
X100.076Y-86.004G85X100.076Y-89.204
G05
X100.076Y-93.904G85X100.076Y-97.104
G05
X115.316Y-86.004G85X115.316Y-89.204
G05
X115.316Y-93.904G85X115.316Y-97.104
G05
X130.556Y-86.004G85X130.556Y-89.204
G05
X130.556Y-93.904G85X130.556Y-97.104
G05
M30
